<svg width="177" height="177" viewBox="0 0 177 177" fill="none" xmlns="http://www.w3.org/2000/svg">
<g clip-path="url(#clip0_1_4928)">
<path d="M95.0152 103.093C124.9 87.7365 140.743 58.9727 130.401 38.8475C120.06 18.7222 87.4497 14.8566 57.5648 30.2134C27.6799 45.5702 11.837 74.334 22.1786 94.4593C32.5203 114.584 65.1303 118.45 95.0152 103.093Z" fill="#5B2C06"/>
<path d="M125.66 42.4297C124.222 42.817 122.979 43.7247 122.172 44.9766C121.365 46.2285 121.052 47.7355 121.293 49.2054C122.618 57.2837 118.687 67.1986 110.508 76.4074C110.477 76.442 110.447 76.4766 110.418 76.5116C110.386 76.5451 110.355 76.5792 110.324 76.6136C103.197 84.5656 93.3513 91.2883 82.6015 95.5443C79.9229 96.607 77.1855 97.5151 74.4029 98.2642C66.1616 100.472 58.0744 101.044 51.0147 99.9178C49.4409 99.6666 47.8318 100.051 46.5413 100.986C45.2509 101.922 44.3849 103.331 44.1337 104.905C43.8826 106.479 44.267 108.088 45.2023 109.379C46.1376 110.669 47.5472 111.535 49.1211 111.786C49.3709 111.826 49.6222 111.864 49.8744 111.901L49.9752 111.915C50.1597 111.942 50.3451 111.967 50.5308 111.992L50.5329 111.992L50.6336 112.005C50.6671 112.01 50.7006 112.014 50.7336 112.019L50.7366 112.019L50.8369 112.032L50.8374 112.032L50.9379 112.044L50.9404 112.045C50.9733 112.049 51.0068 112.053 51.0399 112.057L51.0429 112.057L51.1421 112.07L51.1451 112.07L51.2446 112.082L51.2467 112.082L51.5005 112.112L51.5023 112.112L51.6022 112.124L51.6052 112.124L51.7053 112.135L51.708 112.135L51.8083 112.146L51.8105 112.147L51.9111 112.158L51.9138 112.158L52.0138 112.169L52.0174 112.169L52.1173 112.179L52.1203 112.18L52.1698 112.185L52.1701 112.185L52.2205 112.19L52.2235 112.191L52.2714 112.195L52.2744 112.196L52.3239 112.201L52.3274 112.201L52.373 112.205L52.3787 112.206L52.4269 112.211L52.4314 112.211L52.4773 112.216L52.4817 112.216L52.5796 112.226L52.5868 112.226L52.6837 112.236L52.6903 112.236L52.7875 112.245L52.7945 112.246L52.8918 112.255L52.8987 112.255L52.9961 112.264L53.0021 112.265L53.1009 112.273L53.106 112.274L53.2042 112.282L53.2117 112.283L53.2564 112.287L53.2606 112.287L53.3096 112.291L53.3152 112.292L53.3617 112.295L53.3647 112.295L53.4142 112.3L53.4195 112.3L53.4633 112.303L53.4708 112.304L53.5196 112.308L53.522 112.308C53.537 112.31 53.5527 112.311 53.5679 112.312L53.5755 112.313L53.6239 112.316L53.6273 112.317L53.6731 112.32L53.6805 112.321L53.7769 112.328L53.7858 112.328L53.8826 112.336L53.8909 112.336L53.987 112.343L53.9967 112.344L54.039 112.347L54.0452 112.348L54.0928 112.351L54.1017 112.351L54.1453 112.354L54.1501 112.355L54.1985 112.358L54.2057 112.359L54.2496 112.361L54.2561 112.362L54.3045 112.365L54.3111 112.366L54.3544 112.369L54.3615 112.369L54.409 112.372L54.4184 112.372L54.4571 112.375L54.4689 112.376L54.5159 112.379L54.5215 112.379L54.563 112.382L54.5745 112.382L54.6214 112.385L54.627 112.386L54.6694 112.388L54.6801 112.389L54.7281 112.392L54.7286 112.392L54.7758 112.394L54.7858 112.395L54.8338 112.398L54.8344 112.398L54.8806 112.4L54.8931 112.401L54.9878 112.406L54.9984 112.407L55.0419 112.409L55.0464 112.41L55.0946 112.412L55.104 112.413L55.1475 112.415L55.1525 112.415L55.2011 112.418L55.2096 112.418L55.2528 112.42L55.2595 112.421L55.3069 112.423L55.3172 112.423L55.3583 112.426L55.3659 112.426L55.4141 112.428L55.4218 112.429L55.4635 112.431L55.4732 112.431L55.521 112.433L55.5278 112.434L55.5692 112.436L55.5804 112.436L55.6276 112.438L55.6335 112.438L55.676 112.44L55.6878 112.441L55.7342 112.443L55.7417 112.443L55.781 112.445L55.7951 112.445L55.8414 112.447L55.8438 112.447L55.8898 112.449L55.9013 112.45L55.9484 112.451L55.9971 112.453L56.0076 112.454L56.0518 112.455L56.0565 112.455L56.1043 112.457L56.1155 112.458L56.1561 112.459L56.1641 112.46C56.1805 112.46 56.1958 112.46 56.2121 112.461L56.2208 112.461L56.2635 112.463L56.2715 112.463L56.3195 112.465L56.3288 112.465L56.3694 112.466L56.3794 112.467L56.4271 112.468L56.435 112.468L56.4765 112.47L56.487 112.47L56.5353 112.472L56.5406 112.472L56.5829 112.473L56.5955 112.473L56.6419 112.474L56.6492 112.475L56.6907 112.476L56.703 112.476L56.7501 112.478L56.7544 112.478L56.7979 112.479L56.8108 112.479L56.8583 112.48L56.859 112.48L56.9053 112.481L56.9197 112.482L56.9655 112.483L56.966 112.482L57.0136 112.484L57.0271 112.484L57.0699 112.485L57.0746 112.485L57.1227 112.486L57.1344 112.486L57.1754 112.487L57.1831 112.487L57.2302 112.488L57.2425 112.488L57.283 112.489L57.2915 112.489L57.3386 112.49L57.3503 112.49L57.3902 112.491L57.3999 112.491L57.4467 112.492L57.4596 112.492L57.4968 112.492L57.5094 112.493L57.5562 112.493L57.5646 112.493L57.6062 112.494L57.6167 112.494L57.6656 112.494L57.6697 112.494L57.7159 112.495L57.7247 112.495L57.7744 112.496L57.7767 112.496L57.823 112.496L57.834 112.496L57.8826 112.497L57.8854 112.496L57.9313 112.497L57.943 112.497L57.99 112.497L57.9916 112.497L58.04 112.498L58.0517 112.498L58.0929 112.498L58.1016 112.498L58.1489 112.498L58.1609 112.498L58.2015 112.498L58.2102 112.498L58.2575 112.499L58.2697 112.498L58.3085 112.499L58.3202 112.499L58.3666 112.499L58.3791 112.499L58.4174 112.499L58.429 112.499L58.4759 112.499L58.4873 112.498L58.5261 112.499L58.5386 112.498L58.5861 112.499L58.5943 112.498L58.6353 112.498L58.6479 112.498L58.695 112.498L58.7038 112.498L58.744 112.498L58.7577 112.498L58.8054 112.497L58.8095 112.497L58.8543 112.497L58.8659 112.497C58.8826 112.497 58.8983 112.497 58.9148 112.496L58.9163 112.497L58.9626 112.496L58.9771 112.496L59.0199 112.496L59.0251 112.496L59.0716 112.495L59.0873 112.495L59.1252 112.495L59.1356 112.494L59.181 112.494L59.1979 112.494L59.2327 112.493L59.2461 112.493L59.2912 112.493L59.3065 112.492L59.3419 112.492L59.3565 112.492L59.4009 112.491L59.4166 112.491L59.4523 112.49L59.4654 112.49L59.5121 112.489L59.5249 112.489L59.5614 112.488L59.576 112.488L59.6218 112.487L59.6357 112.487L59.6708 112.486L59.6865 112.486L59.7324 112.485L59.744 112.485L59.7813 112.484L59.797 112.483L59.8426 112.483L59.8535 112.482L59.8912 112.482L59.9069 112.481L59.9507 112.48L59.9605 112.48L60.0025 112.479L60.017 112.478L60.0592 112.477L60.0657 112.477L60.1122 112.476L60.1273 112.476L60.1678 112.475L60.1762 112.474L60.224 112.473L60.2376 112.472L60.2758 112.472L60.2874 112.471L60.3343 112.47L60.3472 112.469L60.3872 112.468L60.3976 112.468L60.445 112.466L60.4586 112.466L60.4951 112.465L60.509 112.464L60.5561 112.463L60.5677 112.463L60.6066 112.461L60.6196 112.461L60.6677 112.459L60.6769 112.459L60.7165 112.458L60.7312 112.457L60.7777 112.455L60.7884 112.455L60.827 112.453L60.8427 112.453L60.8888 112.451L60.8993 112.451L60.9368 112.449L60.9541 112.449L60.9965 112.447L61.0081 112.447L61.0489 112.445L61.0646 112.444L61.1084 112.442L61.1128 112.442L61.1598 112.44L61.1759 112.44L61.2163 112.438L61.2244 112.438L61.2728 112.435L61.2855 112.435L61.3258 112.433L61.3362 112.433L61.3823 112.431L61.3987 112.43L61.4353 112.428L61.448 112.428L61.4941 112.426L61.5102 112.425L61.5459 112.423L61.5594 112.422L61.6055 112.42L61.6216 112.419L61.6562 112.418L61.6717 112.417L61.7178 112.415L61.7316 112.414L61.7675 112.412L61.7836 112.411C61.7985 112.41 61.8138 112.41 61.8291 112.409L61.8432 112.408L61.8797 112.406L61.8952 112.405L61.9418 112.403L61.9527 112.402L61.9912 112.4L62.0065 112.399L62.0487 112.397L62.0642 112.396L62.1024 112.394L62.1194 112.393L62.1613 112.391L62.1676 112.39L62.2142 112.388L62.2314 112.387L62.2665 112.385L62.2819 112.384L62.3267 112.381L62.3429 112.38L62.3798 112.378L62.3925 112.377L62.4396 112.375L62.4536 112.374L62.4909 112.371L62.5052 112.37L62.5512 112.368L62.5666 112.367L62.6022 112.364L62.6173 112.363L62.663 112.361L62.6802 112.359L62.712 112.357L62.7312 112.356L62.7759 112.353L62.791 112.352L62.8252 112.35L62.8424 112.349L62.8882 112.346L62.9023 112.345L62.9377 112.342L62.9558 112.341L63.0016 112.338L63.0122 112.337L63.0508 112.335L63.0669 112.333L63.1099 112.331L63.1241 112.329L63.1628 112.327L63.1808 112.325L63.2216 112.322L63.2294 112.322L63.276 112.318L63.2921 112.317L63.3306 112.314L63.3424 112.314L63.3887 112.31L63.4056 112.309L63.4421 112.306L63.4551 112.306L63.5014 112.302L63.5176 112.3L63.5542 112.298L63.5682 112.297L63.614 112.293L63.6313 112.292L63.6664 112.289L63.6808 112.288L63.7273 112.284L63.7433 112.283L63.7781 112.28L63.7946 112.279L63.8406 112.275L63.8561 112.274L63.8911 112.271L63.9071 112.27L63.9536 112.266L63.9676 112.265L64.0041 112.262L64.0212 112.26C64.036 112.259 64.0507 112.258 64.0651 112.256L64.0816 112.255L64.1165 112.252L64.1341 112.25L64.1761 112.247L64.1917 112.246L64.2299 112.242L64.2476 112.241L64.2886 112.237L64.298 112.236L64.3436 112.232L64.3607 112.231L64.3986 112.228L64.4105 112.227L64.4567 112.222L64.4752 112.221L64.5074 112.218L64.525 112.216L64.5703 112.212L64.587 112.21L64.6232 112.207L64.638 112.206L64.6849 112.201L64.6997 112.2L64.7364 112.197L64.7512 112.195L64.7985 112.191L64.8126 112.189L64.8496 112.186L64.8653 112.185L64.9128 112.18L64.9246 112.179L64.9625 112.175L64.979 112.174L65.0262 112.169L65.0375 112.168L65.0772 112.164L65.0924 112.162L65.1403 112.158L65.15 112.157L65.1897 112.152L65.2068 112.151L65.2522 112.146L65.2622 112.145L65.3039 112.141L65.321 112.139L65.3643 112.135L65.3697 112.134L65.4169 112.13L65.4353 112.127L65.4736 112.124L65.4844 112.122L65.5326 112.117L65.5482 112.116L65.5859 112.112L65.5989 112.11L65.6454 112.105L65.6622 112.104L65.6998 112.099L65.7132 112.098L65.7599 112.093L65.7764 112.091L65.8133 112.087L65.8268 112.086L65.8744 112.08L65.89 112.079L65.9268 112.075L65.9415 112.073L65.9897 112.068L66.0027 112.066L66.0406 112.062L66.0562 112.06L66.1038 112.055L66.1157 112.054L66.1552 112.049L66.1706 112.047L66.2186 112.042L66.2294 112.041L66.2684 112.036L66.2855 112.034L66.325 112.03L66.3464 112.027L66.3822 112.023L66.4005 112.021L66.4409 112.016L66.4534 112.014L66.4972 112.009L66.5153 112.007L66.5517 112.003L66.5652 112.001L66.6127 111.995L66.6288 111.993L66.667 111.989L66.6794 111.987L66.7277 111.982L66.7421 111.98L66.7811 111.975L66.7946 111.974L66.8426 111.967L66.8568 111.966L66.8951 111.961L66.9092 111.959L66.9572 111.953L66.9713 111.952L67.01 111.947L67.024 111.945L67.0731 111.939L67.0835 111.937L67.1244 111.932L67.1388 111.93L67.1879 111.924L67.1977 111.923L67.2394 111.917L67.2536 111.916L67.3037 111.909L67.3088 111.908L67.3558 111.902L67.3671 111.901L67.419 111.894L67.4206 111.894L67.4694 111.887L67.4835 111.885L67.5848 111.872L67.5981 111.87L67.643 111.864L67.6496 111.863L67.6994 111.856L67.7143 111.855L67.7557 111.849L67.7652 111.848L67.8144 111.841L67.8288 111.839L67.869 111.833L67.8811 111.832L67.9298 111.825L67.9438 111.823L67.984 111.818L67.9961 111.816L68.0447 111.809L68.0599 111.807L68.0964 111.802L68.113 111.799L68.1602 111.792L68.1754 111.79L68.2122 111.785L68.2279 111.783L68.2762 111.776L68.2883 111.774L68.3278 111.769L68.3439 111.766L68.3916 111.759L68.4037 111.758L68.4432 111.752L68.4586 111.75L68.5078 111.742L68.5156 111.741L68.5583 111.735L68.5751 111.733L68.6198 111.726L68.6262 111.725L68.675 111.718L68.6901 111.716L68.7316 111.709L68.7417 111.708L68.7908 111.701L68.8056 111.698L68.8446 111.692L68.858 111.69L68.9066 111.683L68.9205 111.681L68.9612 111.675L68.9735 111.673L69.0219 111.665L69.0379 111.663L69.0737 111.657L69.0899 111.655L69.1381 111.647L69.1526 111.645L69.1902 111.639L69.2061 111.637L69.2549 111.629L69.2666 111.627L69.3058 111.621L69.3217 111.619L69.371 111.611L69.3816 111.609L69.4224 111.603L69.4378 111.6L69.4873 111.592L69.4954 111.591L69.5379 111.584L69.5539 111.582L69.6034 111.574L69.61 111.573L69.6547 111.565L69.6699 111.563L69.7162 111.555L69.7219 111.555L69.7704 111.546L69.7864 111.544L69.8296 111.537L69.8375 111.536L69.8872 111.527L69.9028 111.525L69.9428 111.518L69.9542 111.516L70.0013 111.508L70.0206 111.505L70.0558 111.499L70.0719 111.496L70.1188 111.488L70.1364 111.485L70.1718 111.479L70.188 111.477L70.2348 111.469L70.253 111.466L70.2876 111.46L70.3049 111.457L70.3526 111.449L70.3676 111.446L70.4044 111.44L70.4208 111.437L70.4691 111.429L70.4824 111.426L70.5223 111.419L70.5371 111.417L70.5863 111.408L70.5969 111.406L70.6382 111.399L70.654 111.396L70.6986 111.388L70.715 111.386L70.7537 111.379L70.7715 111.376L70.8158 111.368L70.8241 111.366L70.8706 111.358L70.8881 111.355L70.9271 111.348L70.9396 111.345L70.988 111.337L71.0041 111.334L71.045 111.326L71.0556 111.325L71.1051 111.315L71.1198 111.313L71.1598 111.305L71.1735 111.303L71.2224 111.294L71.2369 111.291L71.2763 111.284L71.2897 111.282L71.3386 111.273L71.3544 111.27L71.3907 111.263L71.4083 111.26L71.4558 111.251L71.4713 111.248L71.5071 111.241L71.5255 111.238L71.5724 111.229L71.5882 111.226L71.6243 111.219L71.6426 111.216L71.6904 111.207L71.7026 111.204L71.7419 111.197L71.7586 111.194L71.8069 111.185L71.8174 111.182L71.8584 111.175L71.8773 111.171L71.92 111.163L71.9306 111.161L71.9757 111.152L71.994 111.148L72.0337 111.141L72.0448 111.139L72.0938 111.129L72.1104 111.126L72.1512 111.118L72.162 111.116L72.2113 111.106L72.227 111.103L72.2672 111.095L72.2797 111.092L72.329 111.083L72.3442 111.08L72.3852 111.072L72.3962 111.069L72.4469 111.059L72.4599 111.057L72.5006 111.049L72.5144 111.045L72.5642 111.036L72.5772 111.033L72.6174 111.025L72.632 111.022L72.6817 111.011L72.6929 111.01L72.7352 111.001L72.7495 110.998L72.7992 110.987L72.8103 110.985L72.8527 110.977L72.8664 110.974L72.917 110.963L72.9253 110.962L72.9704 110.953L72.9839 110.95L73.035 110.939L73.036 110.939L73.0872 110.928L73.1021 110.925L73.1463 110.916L73.1546 110.914L73.2051 110.903L73.2197 110.9L73.2614 110.892L73.2724 110.889L73.3221 110.879L73.337 110.875L73.3784 110.867L73.3905 110.864L73.4405 110.854L73.4548 110.85L73.4948 110.842L73.5086 110.839C73.5254 110.835 73.5416 110.832 73.5585 110.828L73.5717 110.825L73.6122 110.817L73.6266 110.814L73.6768 110.803L73.6889 110.8L73.7286 110.792L73.7451 110.788L73.7944 110.777L73.8057 110.775L73.8476 110.765L73.8624 110.762L73.9126 110.751L73.9225 110.749L73.9649 110.74L73.9803 110.736L74.031 110.725L74.0373 110.724L74.083 110.713L74.0984 110.71L74.1474 110.699L74.151 110.698L74.2 110.688L74.217 110.684L74.2611 110.674L74.2687 110.672L74.3193 110.661L74.3344 110.657L74.3771 110.648L74.3869 110.645C74.4041 110.642 74.42 110.638 74.437 110.634L74.4521 110.631L74.4942 110.621L74.5052 110.619L74.5552 110.607L74.5706 110.604L74.611 110.594L74.6233 110.591L74.6733 110.58L74.6887 110.577L74.7277 110.568L74.7423 110.564L74.7928 110.552L74.8052 110.55L74.8463 110.54L74.8601 110.537L74.9111 110.525L74.921 110.523L74.9654 110.512L74.9784 110.509L75.03 110.497L75.037 110.495L75.0832 110.485L75.0969 110.481L75.1479 110.47L75.1558 110.467L75.2011 110.457L75.2151 110.454L75.3195 110.429L75.3332 110.425L75.3795 110.414L75.3866 110.413L75.4381 110.4L75.4519 110.397L75.4952 110.387L75.5055 110.384L75.5562 110.372L75.5704 110.368L75.6115 110.358L75.6247 110.355L75.6742 110.343L75.6895 110.339L75.7304 110.33L75.7424 110.327L75.7938 110.314L75.8062 110.311L75.848 110.301L75.8617 110.297L75.9129 110.285L75.9238 110.282L75.9662 110.272L75.9804 110.268L76.0313 110.256L76.0414 110.253L76.0846 110.242L76.0994 110.239L76.1505 110.226L76.1578 110.224L76.2043 110.212L76.2169 110.209L76.2693 110.196L76.2745 110.194C76.2904 110.191 76.3057 110.187 76.3218 110.183L76.3368 110.179L76.4406 110.153L76.4551 110.149L76.5009 110.137L76.5083 110.135L76.5594 110.123L76.5743 110.119L76.6186 110.108L76.6268 110.105L76.6781 110.092L76.6928 110.088L76.7356 110.077L76.7462 110.074L76.7975 110.061L76.8111 110.058L76.8537 110.047L76.8649 110.044L76.9165 110.031L76.9295 110.027L76.9715 110.016L76.9845 110.013L77.0356 110L77.0897 109.985L77.1034 109.982L77.1549 109.968L77.2085 109.954L77.2233 109.95L77.2847 109.934L77.3278 109.922L77.5131 109.873C80.7417 109.005 83.9176 107.952 87.0252 106.719L87.0674 106.702L87.0805 106.697L87.1095 106.685L87.1256 106.679L87.1532 106.668L87.168 106.662L87.1949 106.651L87.2123 106.644L87.2434 106.632L87.2534 106.628L87.2939 106.612L87.3111 106.605L87.3363 106.595L87.3556 106.587L87.3772 106.579L87.3982 106.57L87.4204 106.561L87.4398 106.553L87.4636 106.544L87.4891 106.534L87.5207 106.521L87.5417 106.512L87.562 106.504L87.5849 106.495L87.6041 106.487L87.6254 106.479L87.6464 106.47L87.6683 106.461L87.6857 106.454L87.7756 106.418L87.7877 106.413L87.8145 106.402L87.8287 106.396L87.8542 106.386L87.8706 106.379L87.8958 106.369L87.9089 106.363L88.0043 106.324L88.0136 106.321L88.0425 106.309L88.0548 106.304L88.0818 106.293L88.0953 106.287L88.1234 106.276L88.1323 106.272L88.2281 106.232L88.2413 106.227L88.2681 106.216L88.2804 106.211L88.3093 106.199L88.3203 106.194L88.3497 106.182L88.3592 106.178L88.4993 106.12L88.5045 106.118L88.5357 106.105L88.5457 106.101L88.5761 106.088L88.5832 106.085L88.7256 106.026L88.73 106.024L88.7623 106.01L88.7701 106.007L88.8029 105.993L88.8061 105.992L88.9523 105.93L88.9549 105.929L88.9876 105.915L88.995 105.912L89.0272 105.898L89.0337 105.896L89.0667 105.882L89.0676 105.882L89.2149 105.819L89.2183 105.817L89.2533 105.802L89.2555 105.801L89.4391 105.723L89.443 105.721L89.4782 105.706L89.4793 105.705C100.123 101.127 109.412 94.7159 116.684 87.3813L116.684 87.3802L116.709 87.3552L116.71 87.3544L116.808 87.2552L116.813 87.2504L116.835 87.2283L116.839 87.2235L116.861 87.2017L116.865 87.197C116.896 87.1657 116.927 87.1338 116.958 87.1027L116.966 87.0948L116.985 87.0751L116.993 87.0673L117.012 87.0481L117.02 87.0395L117.04 87.0196L117.042 87.0173L117.11 86.9482L117.118 86.9395L117.136 86.9206L117.145 86.9119L117.163 86.8937L117.172 86.8835L117.19 86.8653L117.2 86.8554L117.216 86.8382L117.231 86.8231L117.257 86.7968L117.27 86.7826L117.283 86.7696L117.299 86.7533L117.31 86.742L117.329 86.7223L117.338 86.7125L117.357 86.6932L117.366 86.6834L117.393 86.6557L117.401 86.6479L117.422 86.6259L117.431 86.6165L117.45 86.5968L117.459 86.587L117.479 86.5673L117.488 86.5571L117.513 86.532L117.515 86.5296L117.544 86.4993L117.546 86.4974L117.572 86.4699L117.579 86.4622L117.599 86.4413L117.608 86.4319L117.63 86.4095L117.636 86.4032L117.663 86.3746L117.752 86.2817L117.753 86.2806L117.781 86.2513L117.783 86.2489L117.9 86.1258L117.901 86.1246L118.077 85.938C118.485 85.5041 118.886 85.0678 119.279 84.6292C119.314 84.5898 119.348 84.5506 119.382 84.5105C119.416 84.4747 119.449 84.4383 119.482 84.4012C122.174 81.3901 124.585 78.1383 126.683 74.6868L126.684 74.6851L126.703 74.6528L126.704 74.651L126.724 74.619L126.725 74.6166L126.744 74.5853L126.746 74.5828L126.764 74.5516L126.766 74.5481C126.841 74.424 126.913 74.3034 126.986 74.179L126.988 74.1763L127.005 74.1471L127.008 74.1409L127.025 74.1125L127.028 74.1067L127.045 74.079L127.049 74.0714L127.065 74.0443L127.069 74.0374L127.085 74.0098L127.089 74.0026L127.106 73.9749L127.109 73.9697L127.126 73.94L127.128 73.9365L127.146 73.9055L127.148 73.903L127.166 73.8715L127.166 73.8708L127.243 73.7384L127.245 73.7349L127.263 73.7041L127.265 73.7007L127.282 73.6714L127.285 73.6662L127.3 73.6393L127.305 73.63L127.319 73.6069L127.326 73.5945L127.339 73.5714L127.346 73.5601L127.359 73.5366L127.366 73.5256L127.379 73.5014L127.386 73.4902L127.398 73.4678L127.406 73.4547L127.419 73.4316L127.425 73.422L127.439 73.3969L127.444 73.3886L127.459 73.3615L127.461 73.358L127.478 73.3271L127.48 73.3237L127.535 73.2281L127.537 73.2246L127.55 73.2006L127.557 73.1886L127.569 73.1656L127.576 73.1543L127.589 73.1316L127.596 73.1189L127.608 73.0966L127.615 73.0839L127.628 73.0622L127.636 73.0479L127.647 73.0283L127.655 73.0122L127.666 72.993L127.675 72.9768L127.686 72.958L127.695 72.9416L127.705 72.9231L127.716 72.9042L127.725 72.8884L127.736 72.8686L127.744 72.8528L127.756 72.8306L127.764 72.8179L127.78 72.7884L127.783 72.7826L127.803 72.7468L127.805 72.7426L127.823 72.7117L127.829 72.7002L127.842 72.6759L127.849 72.6635L127.861 72.6407L127.87 72.6256L127.881 72.6055L127.889 72.5904L127.9 72.5699L127.908 72.5546L127.919 72.5344L127.928 72.5191L127.939 72.4992L127.948 72.4831L127.958 72.4634L127.967 72.4483L127.978 72.4278L127.986 72.4125L127.998 72.391L128.005 72.3777L128.017 72.3546L128.024 72.342L128.038 72.316L128.043 72.3068L128.058 72.2785L128.062 72.271L128.101 72.1991L128.103 72.1947L128.12 72.163L128.124 72.1559L128.139 72.128L128.145 72.1177L128.159 72.0915L128.163 72.0824L128.177 72.0565L128.184 72.0446L128.196 72.0207L128.202 72.0096L128.216 71.9843L128.221 71.9741L128.235 71.9486L128.241 71.9372L128.253 71.9144L128.26 71.9008L128.273 71.8769L128.278 71.8661C128.283 71.856 128.288 71.8484 128.293 71.8383L128.297 71.8312L128.313 71.7996L128.316 71.7954L128.411 71.6136L128.412 71.611L128.43 71.5771L128.432 71.574L128.449 71.5414L128.451 71.5363L128.467 71.5059L128.47 71.4992L128.486 71.4697L128.49 71.4625L128.505 71.4331L128.508 71.427L128.523 71.3969L128.526 71.3902L128.541 71.3614L128.545 71.3539L128.56 71.3249L128.564 71.318C128.613 71.2217 128.663 71.1244 128.712 71.028L128.714 71.0232L128.73 70.9912L128.732 70.9872L128.748 70.9557L128.751 70.9497L128.767 70.9194L128.77 70.9133L128.785 70.8829L128.788 70.8775L128.804 70.8452L128.806 70.8412L128.822 70.8088L128.824 70.8051C128.885 70.6826 128.945 70.5618 129.005 70.4393L129.006 70.4383C130.692 67.053 131.952 63.4719 132.758 59.7767C132.794 59.6036 132.83 59.4309 132.864 59.2584L132.864 59.2575L132.871 59.2221L132.871 59.2202L132.878 59.1867L132.879 59.1818L132.885 59.1491L132.886 59.1461L132.892 59.1119L132.893 59.1095L132.9 59.0747L132.9 59.0726L132.907 59.0375L132.907 59.036L132.949 58.8149L132.949 58.8127L132.955 58.7787L132.956 58.7741L132.962 58.7434L132.963 58.7351L132.969 58.7063L132.97 58.6996L132.975 58.6698L132.977 58.6624L132.982 58.634L132.983 58.6257L132.988 58.5981L132.99 58.5886L132.995 58.5604L132.996 58.5534L133.002 58.5227L133.003 58.5173L133.009 58.4827L133.009 58.4814L133.041 58.2985L133.042 58.2906L133.047 58.2618L133.048 58.2543L133.053 58.2264L133.055 58.216L133.059 58.1897L133.061 58.1796L133.065 58.1543L133.067 58.143L133.071 58.1177L133.073 58.1064L133.077 58.0826L133.079 58.0697L133.083 58.046L133.085 58.0338L133.089 58.0106L133.091 57.9975C133.092 57.9899 133.094 57.9807 133.095 57.9731L133.097 57.9618L133.101 57.9352L133.103 57.9261L133.108 57.8932L133.108 57.8902L133.12 57.8171L133.121 57.8113L133.126 57.7818L133.128 57.7689C133.129 57.7611 133.13 57.7538 133.131 57.7462L133.134 57.7316L133.137 57.7103L133.139 57.6944L133.142 57.6746L133.145 57.6588L133.148 57.6391L133.15 57.6227L133.153 57.6032L133.156 57.5874L133.159 57.567L133.161 57.5509L133.164 57.5312L133.167 57.5156L133.17 57.4953L133.172 57.4792L133.175 57.4592L133.177 57.444L133.18 57.423L133.183 57.4078L133.186 57.3848L133.188 57.3726L133.192 57.3441L133.193 57.3365L133.198 57.3002L133.198 57.298L133.203 57.2653L133.205 57.2513L133.208 57.2289L133.21 57.215L133.213 57.1937L133.216 57.178L133.218 57.158L133.221 57.1407C133.222 57.1345 133.222 57.1295 133.223 57.1235L133.226 57.1044L133.228 57.0871L133.231 57.0689L133.233 57.0517L133.235 57.0335L133.238 57.0157L133.24 56.9975L133.243 56.9815C133.243 56.9748 133.244 56.9682 133.245 56.9615L133.247 56.9464L133.25 56.9255L133.252 56.9113L133.255 56.8901L133.257 56.8762L133.259 56.8542L133.26 56.8467L133.273 56.7541L133.273 56.75L133.277 56.7218L133.278 56.7149L133.281 56.689L133.282 56.6796L133.285 56.6549L133.287 56.644L133.29 56.6207L133.291 56.6086L133.294 56.5845L133.295 56.5737L133.298 56.5492L133.3 56.5387C133.3 56.5303 133.301 56.5224 133.303 56.5137L133.304 56.5031L133.307 56.4796L133.308 56.4675L133.311 56.4434L133.312 56.4335L133.315 56.4082L133.316 56.3992L133.32 56.3721L133.32 56.3676L133.324 56.3375L133.324 56.3338L133.339 56.202L133.34 56.199L133.343 56.1708L133.343 56.1639L133.347 56.1373L133.347 56.1285L133.351 56.1013L133.351 56.0941L133.354 56.0674L133.355 56.0584L133.358 56.0323L133.359 56.0239L133.362 55.9968L133.363 55.9887L133.365 55.9621L133.366 55.9542L133.369 55.9269L133.37 55.9196C133.371 55.9096 133.372 55.9013 133.373 55.8912L133.374 55.887C133.375 55.8768 133.376 55.866 133.377 55.856L133.377 55.8543C133.385 55.7742 133.393 55.6957 133.401 55.6155L133.4 55.615L133.404 55.5835L133.404 55.5799L133.407 55.5493L133.407 55.5449L133.41 55.515L133.411 55.5101C133.411 55.4986 133.412 55.491 133.413 55.4797L133.414 55.4758C133.415 55.4644 133.416 55.4569 133.416 55.4453L133.417 55.4411L133.42 55.4103L133.42 55.4073C133.421 55.396 133.422 55.3868 133.423 55.3753L133.423 55.3735C133.435 55.2361 133.447 55.101 133.457 54.9637L133.457 54.9625C133.666 52.3851 133.562 49.7919 133.149 47.2392C132.886 45.6711 132.013 44.2711 130.719 43.3459C129.426 42.4206 127.819 42.0456 126.25 42.3029C126.049 42.3356 125.853 42.3779 125.66 42.4297Z" fill="#3D180B"/>
<path d="M89.2265 106.068C111.996 94.3673 124.46 73.2164 117.065 58.8261C109.671 44.4357 85.2177 42.2552 62.448 53.9557C39.6783 65.6562 27.2144 86.8071 34.6091 101.197C42.0038 115.588 66.4569 117.768 89.2265 106.068Z" fill="#69341C"/>
<path d="M78.1161 54.2869C75.6217 54.9593 73.17 55.7815 70.7745 56.749L70.7445 56.7611L70.7385 56.7636C65.7089 58.7929 60.9458 61.4284 56.5548 64.6117C55.9164 65.0756 55.3757 65.6607 54.9634 66.3336C54.5511 67.0065 54.2754 67.754 54.1521 68.5334C54.0287 69.3128 54.06 70.1089 54.2443 70.8762C54.4286 71.6435 54.7622 72.3671 55.2261 73.0054C55.69 73.6438 56.2751 74.1846 56.948 74.5969C57.6209 75.0091 58.3684 75.2848 59.1478 75.4082C60.7219 75.6574 62.3306 75.271 63.6199 74.3341C67.2231 71.7201 71.1337 69.5583 75.2638 67.8973C77.2094 67.1109 79.2006 66.4424 81.2266 65.8954C82.766 65.483 84.0785 64.4759 84.8753 63.0957C85.6721 61.7155 85.8881 60.0753 85.4756 58.536C85.0631 56.9966 84.056 55.6841 82.6759 54.8873C81.2957 54.0904 79.6555 53.8745 78.1161 54.2869Z" fill="#764126"/>
<path d="M51.9527 111.184C50.795 111.491 49.5879 111.565 48.4013 111.402C47.2147 111.24 46.0722 110.843 45.0399 110.236C44.0215 109.64 43.1311 108.849 42.4201 107.908C41.7091 106.966 41.1916 105.894 40.8974 104.751C40.2992 102.43 40.6463 99.9665 41.8625 97.901C51.0721 82.3682 67.232 69.0804 86.2431 61.5593C94.4638 58.2428 103.127 56.1518 111.955 55.3532C114.345 55.1601 116.713 55.9231 118.54 57.4748C120.367 59.0264 121.504 61.2399 121.7 63.6289C122.078 68.5065 118.347 72.9264 113.466 73.3017C106.413 73.9942 99.4934 75.6807 92.9127 78.3109C77.7062 84.2506 64.4216 95.0276 57.3771 107.055C56.7927 108.069 56.0119 108.956 55.0806 109.665C54.1492 110.374 53.0859 110.891 51.9527 111.184Z" fill="#4D2100"/>
<path d="M73.4487 36.8744C70.2504 37.7352 67.107 38.7883 64.0356 40.0279C53.8357 44.1368 44.5168 50.1853 37.0857 57.5197C35.9514 58.6393 35.3084 60.1637 35.298 61.7574C35.2876 63.3511 35.9108 64.8837 37.0304 66.018C38.15 67.1523 39.6743 67.7954 41.268 67.8057C42.8618 67.8161 44.3944 67.193 45.5287 66.0734L45.53 66.0718L45.5628 66.0397L45.5672 66.0353L45.5985 66.0042L45.6006 66.0025L45.6342 65.969L45.6378 65.966C45.6492 65.9542 45.6594 65.9444 45.6713 65.9331L45.6718 65.9327C45.6832 65.9209 45.6943 65.9103 45.7062 65.8989L45.7091 65.8958L45.7773 65.8291L45.7808 65.8259L45.85 65.7586L45.8522 65.7563L45.9218 65.6884L45.924 65.6866L45.994 65.6183L45.996 65.6169L46.0666 65.5487L46.0683 65.5471L46.1028 65.5139L46.1063 65.5106L46.1385 65.4795L46.1411 65.4771L46.1759 65.4438L46.1782 65.4415L46.2485 65.3742L46.2509 65.3721L46.3212 65.3049L46.3243 65.302L46.3935 65.2362L46.3977 65.2322L46.4679 65.1656L46.4701 65.1638L46.5403 65.0972L46.5438 65.0939L46.6143 65.0275L46.6172 65.025L46.6873 64.9592L46.6912 64.9553L46.7262 64.9226L46.7276 64.9213L46.7619 64.8894L46.7647 64.8866L46.8002 64.8537L46.8018 64.8521L46.8741 64.7846L46.8763 64.7829L46.9482 64.7161L46.9507 64.7137L47.0227 64.6471L47.0251 64.645L47.0974 64.5784L47.0996 64.5761L47.1715 64.5102L47.1751 64.5072L47.2106 64.4743L47.2115 64.4735L47.2467 64.4416L47.2498 64.4387L47.2851 64.4062L47.2882 64.4037L47.3219 64.3728L47.3245 64.3703L47.3603 64.3377L47.3627 64.3356L47.3979 64.3037L47.3995 64.3021L47.4361 64.269L47.4375 64.2677C47.4612 64.2462 47.4872 64.2223 47.511 64.2014L47.514 64.1982L47.5854 64.1339L47.591 64.1289L47.661 64.0658L47.6667 64.0608L47.737 63.9979L47.7427 63.9929L47.8139 63.9289L47.8174 63.9256L47.8542 63.893L47.8547 63.8929L47.8881 63.8629L47.8952 63.8567L47.9298 63.8258L47.9328 63.823L47.9651 63.7945L47.9712 63.7891L48.0059 63.7585L48.0099 63.7548L48.0429 63.7255L48.0466 63.7222L48.0825 63.6907L48.0862 63.6871L48.1219 63.6559L48.1226 63.6552L48.1594 63.6229L48.163 63.6199L48.2368 63.5549L48.2392 63.5528L48.3136 63.4876L48.3166 63.4848L48.3904 63.4207L48.3947 63.4169L48.4677 63.3533L48.472 63.3496L48.5079 63.3183L48.5112 63.3154L48.5451 63.2862L48.5498 63.282L48.5863 63.2507L48.5877 63.2494L48.6247 63.2176L48.6261 63.2161L48.6633 63.1843L48.6673 63.1806L48.7014 63.1513L48.7047 63.1484L48.741 63.1174L48.7457 63.1132L48.7801 63.0836L48.7825 63.0818L48.8181 63.0512L48.8248 63.0457L48.8969 62.984L48.9025 62.979L48.974 62.9182L48.9819 62.9117L49.0536 62.8505L49.0596 62.8457L49.0957 62.815L49.0971 62.8138L49.1304 62.7856L49.1391 62.778L49.1736 62.7489L49.1784 62.745L49.2103 62.7181L49.2171 62.7122L49.2529 62.6822L49.2565 62.6795L49.289 62.6518L49.2962 62.6461C49.3069 62.6368 49.32 62.6257 49.331 62.6169L49.3377 62.6114L49.3686 62.5853L49.3753 62.5797L49.41 62.5506L49.4172 62.5446L49.4487 62.5186L49.4539 62.514L49.4885 62.4852L49.4973 62.4779L49.5283 62.4521L49.5333 62.4478L49.5681 62.419L49.5771 62.4113L49.6079 62.3858L49.6132 62.3815L49.6473 62.3531L49.6561 62.3458L49.6903 62.3177L49.6953 62.3134L49.7265 62.2876L49.7366 62.2793L49.7703 62.2516L49.7772 62.246L49.8066 62.2218L49.8156 62.2141L49.8501 62.1859L49.8573 62.1802L49.8871 62.1556L49.896 62.1485L49.9295 62.1209L49.9393 62.113L49.9663 62.0907L49.9758 62.0828L50.0094 62.0558L50.0204 62.0467L50.0457 62.0259L50.057 62.0168L50.0891 61.9907L50.1018 61.9806L50.1259 61.9607L50.137 61.9519C50.147 61.9434 50.159 61.9337 50.1691 61.9258L50.1818 61.9157L50.2081 61.894L50.2172 61.8866L50.2496 61.8605L50.263 61.8496L50.2904 61.8277L50.2999 61.8199L50.3299 61.7958L50.3435 61.7846L50.37 61.7635L50.386 61.7504L50.4105 61.7308L50.4247 61.7196L50.4568 61.6936L50.4655 61.6869L50.4923 61.6651L50.5043 61.6555L50.5372 61.6291L50.5483 61.6203L50.5728 61.6009L50.5862 61.5901L50.6189 61.5641L50.6291 61.5561L50.6554 61.5348L50.6665 61.5263L50.6997 61.4999L50.7111 61.491L50.7365 61.4705L50.7485 61.4611L50.781 61.4352L50.7935 61.4255L50.8183 61.406L50.8299 61.397C50.8397 61.3889 50.852 61.3794 50.8619 61.3716L50.8758 61.3605L50.8994 61.342L50.9148 61.3297L50.9444 61.3063L50.957 61.2965L50.983 61.2761L50.9999 61.2628L51.0249 61.243L51.0396 61.2315L51.0632 61.2132L51.0856 61.1955L51.1066 61.1791L51.122 61.1671L51.1539 61.1423L51.1658 61.1332L51.1891 61.1147L51.2041 61.1032L51.2328 61.0809L51.2505 61.0674L51.271 61.0514L51.2871 61.0386L51.3173 61.0154L51.3332 61.0029L51.3535 60.9873L51.3684 60.9754L51.3994 60.9517L51.4158 60.9391L51.4359 60.9235L51.4516 60.9114L51.4825 60.8874L51.498 60.8757L51.5198 60.859L51.5343 60.8479L51.565 60.8242L51.5807 60.8121L51.6029 60.7948L51.6233 60.7794L51.6475 60.761L51.6643 60.7477L51.6855 60.7318L51.7099 60.713L51.7295 60.6982L51.7481 60.6838L51.7692 60.6677L51.7924 60.6498C51.7995 60.645 51.807 60.6392 51.8138 60.6339L51.8308 60.6212L51.8542 60.6032L51.8783 60.5851L51.8957 60.5717L51.9144 60.5576L51.9403 60.5379L51.9614 60.522L51.9799 60.5083L51.9977 60.4945L52.0281 60.4718L52.0452 60.4584L52.0622 60.4457L52.0819 60.4308L52.1106 60.4094L52.13 60.3949L52.146 60.3827L52.1734 60.362L52.1943 60.3465L52.2137 60.3319L52.23 60.3197L52.2579 60.2988L52.2781 60.2838L52.2973 60.2696L52.3143 60.2568L52.3442 60.2343L52.3624 60.2206L52.3814 60.2068L52.3977 60.1946L52.4298 60.1708L52.4463 60.1585L52.4651 60.1447C52.4719 60.1396 52.4787 60.1345 52.4855 60.1293L52.5133 60.109L52.5306 60.0963L52.5505 60.0813L52.5677 60.0685L52.5989 60.0456L52.6145 60.0341L52.635 60.019L52.6503 60.0076L52.6839 59.9829L52.6993 59.9717L52.7194 59.9567L52.7326 59.947L52.7699 59.9196L52.7826 59.9103L52.854 59.858L52.8679 59.8481L52.9045 59.8214L52.9172 59.8121L52.9398 59.7953L52.9508 59.7874L52.9923 59.7573L53.0013 59.7505L53.025 59.7334L53.0348 59.7264L53.0812 59.6927L53.0854 59.6898L53.1114 59.6706L53.1163 59.6672L53.162 59.6343L53.1713 59.6274L53.1955 59.6101L53.2036 59.6042L53.248 59.5719L53.2561 59.5662L53.2813 59.5481L53.2837 59.5463L53.3324 59.5114L53.3421 59.5044L53.3661 59.4871L53.3708 59.4839L53.4187 59.4494L53.4261 59.4443L53.5044 59.3883L53.5117 59.3831L53.5893 59.3276L53.5979 59.3215L53.6768 59.2654L53.6809 59.2625L53.7626 59.2048L53.766 59.2024L53.8175 59.1661L53.8217 59.163L53.8484 59.1442L53.8518 59.1418L53.9348 59.0837L53.9355 59.0829L53.9905 59.0445L53.993 59.0427L54.0767 58.9841L54.0787 58.9827L54.1619 58.9246L54.1659 58.922L54.2487 58.8643L54.252 58.8622L54.3355 58.804L54.3373 58.8029C58.0748 56.2223 62.0463 53.9981 66.1995 52.1598L66.2031 52.158L66.2996 52.1155L66.3064 52.1125L66.4008 52.0709L66.4086 52.0673L66.5039 52.0257L66.5098 52.023L66.6049 51.9815L66.6138 51.9776L66.6749 51.9511L66.6765 51.9506L66.7085 51.9362L66.7138 51.9342L66.7749 51.9076L66.7788 51.9057L66.8115 51.8917L66.8139 51.8908L66.8734 51.8649L66.8834 51.8608L66.9132 51.8478L66.9184 51.8456L66.9756 51.8209L66.9859 51.8167L67.0157 51.8038L67.0183 51.8028L67.0785 51.777L67.0889 51.7725L67.1789 51.7338L67.1939 51.7277L67.2821 51.6901L67.2978 51.6835L67.3399 51.6655L67.3593 51.6574L67.384 51.647L67.4036 51.6388L67.4397 51.6233L67.4625 51.6137L67.4882 51.6031L67.5066 51.5952L67.5459 51.5789L67.567 51.5703L67.5912 51.5597L67.6123 51.5512L67.65 51.5352L67.671 51.5267L67.6946 51.5166L67.72 51.506L67.7518 51.4928L67.7762 51.4827L67.7977 51.4738L67.8339 51.4585L67.8546 51.4501L67.8809 51.4392L67.9019 51.4307L67.9413 51.4143L67.957 51.4078L67.9883 51.395L68.0049 51.3882L68.0461 51.3713L68.0623 51.3644L68.0926 51.3522L68.1094 51.3451L68.1509 51.3281L68.1659 51.322L68.2 51.3079L68.2132 51.3027L68.2572 51.285L68.2694 51.2797L68.3081 51.2641L68.317 51.2603L68.362 51.2421L68.3744 51.237L68.4151 51.2206L68.4217 51.2179L68.4675 51.1995L68.4793 51.1946L68.5262 51.1756C71.147 50.1169 73.8295 49.2177 76.559 48.4832L76.7317 48.4369L76.7481 48.4328L76.8137 48.4152L76.8263 48.4121L76.857 48.4039L76.8816 48.3976L76.9205 48.3872L76.9295 48.3851L76.9644 48.3757L76.984 48.3708L76.9957 48.3676L77.0148 48.3628L77.0472 48.3541L77.0601 48.351L77.0775 48.3463L77.092 48.3427L77.1094 48.338L77.1239 48.3344L77.1408 48.3299L77.1553 48.3263L77.1755 48.3212L77.1864 48.3183L77.2125 48.3116L77.227 48.308L77.2494 48.3023L77.2584 48.2999L77.2816 48.2939L77.2917 48.2912L77.3128 48.2862L77.3247 48.283L77.3436 48.2782L77.358 48.2743L77.3758 48.2699L77.3877 48.2667L77.408 48.2618L77.4205 48.2585L77.4397 48.2539L77.4514 48.2508L77.4722 48.2455L77.4836 48.2424L77.5465 48.2268L77.5519 48.2253L77.5784 48.2188L77.588 48.2162L77.6088 48.2112L77.6224 48.2076L77.6413 48.2031L77.6538 48.1997L77.6722 48.1954L77.6847 48.192L77.7058 48.187L77.7159 48.1843L77.7372 48.1791L77.7479 48.1763L77.77 48.1709L77.7794 48.1687L77.8029 48.163L77.8111 48.1608L77.8365 48.1546L77.8431 48.1528L77.8751 48.1451L77.8756 48.145L77.9066 48.1375L77.914 48.1356L77.9386 48.1296L77.9468 48.1274L77.9704 48.1219L77.9791 48.1196L78.0018 48.1141L78.0122 48.1116L78.0339 48.1064L78.0437 48.1037L78.0651 48.0989L78.076 48.096L78.0974 48.0911L78.1072 48.0885L78.1269 48.0838L78.1406 48.0804L78.1626 48.0754L78.1708 48.0732L78.202 48.0657L78.2104 48.0634L78.2343 48.0579L78.2439 48.0556L78.2642 48.0508L78.2788 48.0475L78.2968 48.0429L78.3089 48.0402L78.3281 48.0357L78.341 48.0325L78.3596 48.0281L78.3733 48.0247L78.3895 48.021L78.4049 48.0175L78.4227 48.0133L78.4353 48.0102L78.4595 48.0046L78.4657 48.0029L78.5294 47.9882L78.5381 47.9858L78.5609 47.9806L78.5711 47.9782L78.5925 47.9733L78.6048 47.9703L78.6232 47.9659L78.638 47.9626L78.6531 47.9591L78.6707 47.955L78.6845 47.9519L78.7007 47.9481L78.7158 47.9446L78.7331 47.9406L78.7454 47.9376L78.7638 47.9335L78.7753 47.9307L78.7954 47.9262L78.8044 47.9241L78.8253 47.9194L78.8311 47.9178L78.8712 47.9088L78.8871 47.9051L78.9023 47.9017L78.9174 47.8982L78.9325 47.8947L78.9507 47.8908L78.9633 47.8879L78.9809 47.8838L78.9949 47.8806L79.013 47.8764L79.0259 47.8735L79.0444 47.8694L79.0573 47.8665L79.0777 47.862L79.0886 47.8593L79.1084 47.8549L79.1203 47.8523L79.1414 47.8475L79.1519 47.8453L79.1821 47.8383L79.1937 47.8358L79.2133 47.8315L79.2262 47.8286L79.2446 47.8245L79.2578 47.8216L79.2768 47.8173L79.2879 47.815L79.3082 47.8104L79.3203 47.8077L79.3396 47.8034L79.3517 47.8008L79.3702 47.7967L79.3839 47.7936L79.4026 47.7895L79.4139 47.787L79.4346 47.7824L79.4461 47.7799L79.471 47.7747L79.477 47.7731L79.5082 47.7664L79.5164 47.7645L79.5398 47.7594L79.5528 47.7568L79.5687 47.7531L79.5866 47.7492L79.6005 47.7464L79.6162 47.743L79.6319 47.7397L79.6468 47.7363L79.6636 47.7327L79.6793 47.7293L79.6917 47.7266L79.711 47.7226L79.7229 47.72L79.7413 47.7159L79.7532 47.7133L79.772 47.7095L79.7819 47.7074L79.8308 47.6972L79.8319 47.6969L79.8483 47.6931L79.8643 47.6897L79.8754 47.6876L79.8955 47.6831L79.9088 47.6804L79.9267 47.6765L79.9397 47.6738L79.9574 47.6703L79.972 47.6669L79.9894 47.6634L80.0018 47.6607L80.0211 47.6567L80.0339 47.6542L80.0535 47.6501L80.0642 47.6478L80.0868 47.6429L80.0957 47.6411L80.1584 47.6281L80.1639 47.6269L80.1897 47.6217L80.1996 47.6197L80.2198 47.6154L80.2333 47.6127L80.2516 47.609L80.2639 47.6062L80.2819 47.6026L80.2955 47.5998L80.3149 47.5961L80.3259 47.5937L80.3452 47.5897L80.3577 47.5872L80.377 47.5832L80.3892 47.5808L80.4099 47.5764L80.4197 47.5747L80.4816 47.5622L80.4927 47.5598L80.5134 47.5557L80.5234 47.5536L80.5439 47.5496L80.5577 47.5468L80.5743 47.5435L80.5887 47.5405L80.6053 47.5372L80.6211 47.5341L80.6357 47.5311L80.6513 47.5281L80.6665 47.5252L80.6831 47.5219L80.697 47.5191L80.7133 47.5158L80.7252 47.5135L80.7878 47.5011L80.8052 47.4976L80.8153 47.4958L80.8368 47.4915L80.8482 47.4893L80.8662 47.4857L80.8828 47.4824L80.897 47.4798L80.9136 47.4765L80.9275 47.4739L80.9441 47.4706L80.9594 47.4677L80.9749 47.4647L80.9882 47.462L81.0065 47.4586L81.0181 47.4563L81.0367 47.4528L81.0506 47.45L81.0672 47.447L81.0972 47.4413L81.1063 47.4394L81.1274 47.4352L81.1435 47.4324L81.1582 47.4296L81.1732 47.4267L81.1896 47.4235L81.2051 47.4205L81.2195 47.4178L81.2368 47.4147L81.2498 47.4121L81.267 47.4089L81.2814 47.4062L81.297 47.4032L81.3131 47.4003L81.3281 47.3975L81.3436 47.3945L81.359 47.3918L81.3729 47.3893L81.3906 47.3857L81.4198 47.3805L81.4303 47.3783L81.4498 47.3748L81.4681 47.3713L81.4797 47.3691L81.4987 47.3658L81.5107 47.3637L81.5281 47.3602L81.5417 47.3577L81.5593 47.3548L81.5717 47.3523L81.589 47.3492L81.604 47.3466L81.6193 47.3437L81.6345 47.3407L81.6499 47.3381L81.6666 47.3351L81.6805 47.3325L81.6983 47.3295L81.7114 47.3271L81.7414 47.3217L81.7503 47.3199L81.772 47.3161L81.7856 47.3137L81.8029 47.3105L81.8168 47.308L81.8329 47.3051L81.8491 47.3022L81.8638 47.2997L81.8788 47.2969L81.8945 47.2944L81.9103 47.2913L81.9251 47.2888L81.9407 47.2861L81.9559 47.2832L81.9713 47.2805L81.9888 47.2776L82.0017 47.2753L82.0175 47.2725L82.0775 47.2623L82.0927 47.2594L82.1067 47.2571L82.1239 47.2539L82.1382 47.2516L82.1538 47.2488L82.1694 47.2461L82.1855 47.2433L82.1987 47.2412L82.2174 47.2379L82.2291 47.236L82.248 47.2326L82.2608 47.2304L82.2764 47.2277L82.2926 47.2251L82.3052 47.2229L82.3233 47.2198L82.3389 47.217L82.3529 47.2148L82.3827 47.2097L82.3978 47.2071L82.4131 47.2044L82.4288 47.202L82.4441 47.1993L82.4581 47.1971L82.4754 47.1942L82.4896 47.1918L82.5047 47.1892L82.5209 47.1866L82.5348 47.1841L82.5518 47.1813L82.5652 47.1791L82.5817 47.1765L82.5973 47.1737L82.6121 47.1712L82.6289 47.1685L82.6426 47.1663L82.6601 47.1633L82.6789 47.1603L82.7035 47.1564L82.713 47.1547L82.7331 47.1516L82.7487 47.1489L82.7633 47.1468L82.7809 47.1438L82.7929 47.1418L82.8111 47.1389L82.8245 47.1368L82.8402 47.1343L82.8555 47.1317L82.8704 47.1295L82.886 47.1267L82.9011 47.1244L82.9168 47.122L82.9313 47.1195L82.9489 47.1169L82.9621 47.1148L82.9788 47.1121L83.0062 47.1076L83.0216 47.1052L83.0373 47.1028L83.0524 47.1005L83.0672 47.098L83.0833 47.0957L83.0972 47.0935L83.114 47.0907L83.128 47.0887L83.1448 47.086L83.1577 47.084L83.1759 47.0811L83.1893 47.079L83.2056 47.0767L83.2195 47.0744L83.2372 47.0717L83.2501 47.0697L83.2702 47.0666L83.2803 47.0651L83.2988 47.0622L83.3235 47.0585L83.3408 47.0559L83.3528 47.0538L83.3711 47.0513L83.3837 47.0493L83.4028 47.0466L83.4148 47.0445L83.4316 47.0421L83.447 47.0397L83.4624 47.0373L83.4774 47.0353L83.4928 47.033L83.5076 47.0307L83.5238 47.0281L83.5382 47.026L83.5534 47.024L83.569 47.0216L83.5861 47.019L83.5985 47.0172L83.6591 47.0082L83.6709 47.0065L83.6891 47.004L83.7042 47.0017L83.7191 46.9994L83.7343 46.9974L83.7494 46.9951L83.7655 46.9928L83.7795 46.9908L83.7958 46.9885L83.8087 46.9865L83.8269 46.984L83.8399 46.9822L83.8553 46.9799L83.8721 46.9774L83.8862 46.9756L83.9031 46.9732L83.9162 46.9711L83.9354 46.9686L83.9564 46.9656L83.9764 46.9629L83.9881 46.9609L84.0062 46.9587L84.0202 46.9567L84.0371 46.9542L84.0503 46.9524L84.0672 46.9499L84.0804 46.9481L84.0992 46.9454L84.1104 46.9439L84.1282 46.9414L84.1422 46.9394L84.1588 46.9373L84.1723 46.9354L84.1881 46.9333L84.203 46.9313L84.219 46.9291L84.2331 46.927L84.2449 46.9256L84.2837 46.9202L84.2922 46.9191L84.3111 46.9166L84.3218 46.9152L84.3415 46.9126L84.3516 46.911L84.3716 46.9086L84.3809 46.9073L84.4014 46.9044L84.411 46.9033L84.4295 46.9006L84.442 46.8991L84.4602 46.8965L84.4712 46.895L84.4898 46.8927L84.5017 46.8912L84.5197 46.8887L84.5323 46.8871L84.5493 46.8849L84.5546 46.8841L84.6048 46.8776L84.6075 46.8771L84.6273 46.8748L84.638 46.8734L84.6549 46.8712L84.6682 46.8694L84.6868 46.8673L84.6964 46.8659L84.717 46.8633L84.7265 46.8619L84.7468 46.8594L84.7558 46.8581L84.7759 46.8557L84.7858 46.8545L84.8064 46.8519L84.8119 46.851L84.9184 46.8379L84.9226 46.8373L84.9416 46.8352L84.9528 46.8336L84.9705 46.8312L84.9833 46.8298L84.9988 46.8277L85.0138 46.826L85.0304 46.8239L85.0426 46.8227L85.0601 46.8203L85.0726 46.819L85.0906 46.8168L85.1019 46.8153L85.1197 46.8131L85.1321 46.8118L85.1502 46.8096L85.1584 46.8086L85.1793 46.8059L85.1819 46.8058L85.2265 46.8005L85.2378 46.7992L85.2584 46.7966L85.2663 46.7957L85.2872 46.793L85.2966 46.792L85.3169 46.7897L85.3254 46.7886L85.3458 46.7864L85.3559 46.7851L85.3754 46.7828L85.3854 46.7819L85.4046 46.7796L85.416 46.7783L85.4341 46.7764L85.4454 46.7748L85.4638 46.7728L85.4734 46.7717L85.5476 46.7635L85.5504 46.763L85.5727 46.7605L85.5804 46.7597L85.6019 46.7571L85.6098 46.7564L85.6302 46.7539L85.6392 46.7529L85.6599 46.7506L85.669 46.7496L85.6882 46.7474L85.699 46.7463L85.7188 46.7441L85.7273 46.7433L85.7477 46.7408L85.7568 46.7401L85.7777 46.7377L85.8603 46.729L85.8637 46.7287L85.8829 46.7264L85.8942 46.7251L85.9096 46.7236L85.9255 46.722L85.9402 46.7204L85.9535 46.7189L85.9708 46.7171L85.983 46.7159L86.0009 46.714L86.0117 46.7129L86.0304 46.7108L86.0418 46.7098L86.0607 46.7076L86.0665 46.7073L86.145 46.6991L86.147 46.6988L86.1678 46.6968L86.1763 46.6959L86.197 46.6939L86.2055 46.693L86.2263 46.691L86.2348 46.6902L86.2535 46.6881L86.2654 46.6869L86.2838 46.6849L86.2941 46.6842L86.3134 46.6819L86.3225 46.6812L86.3433 46.6792L86.3521 46.6783L86.3714 46.6766L86.3836 46.6754L86.4015 46.6735L86.4052 46.6731L86.4789 46.6662L86.4885 46.6651L86.5076 46.6634L86.5172 46.6623L86.5363 46.6607L86.5468 46.6596L86.5661 46.6577L86.5755 46.6569L86.5946 46.655L86.606 46.6543L86.6242 46.6523L86.635 46.6515L86.6532 46.6495L86.6646 46.6485L86.6837 46.6469L86.6888 46.6464L86.7902 46.6373L86.7987 46.6365L86.8172 46.6347L86.828 46.6339L86.8479 46.632L86.8571 46.6313L86.8758 46.6292L86.8867 46.6286L86.9057 46.6267L86.9158 46.6261L86.934 46.6244L86.9456 46.6233L86.9645 46.6218L86.9739 46.621L86.993 46.6194L87.0018 46.6185C87.0348 46.6155 87.0677 46.6127 87.1004 46.6101L87.1084 46.6095L87.1292 46.6077L87.1372 46.607L87.1566 46.6053L87.168 46.6043L87.1863 46.6029L87.1957 46.6021L87.2157 46.6006L87.2256 46.5996L87.2442 46.5982L87.2553 46.5972L87.2725 46.5958L87.2853 46.5947L87.303 46.5935L87.309 46.593L87.3861 46.587L87.3883 46.5864L87.4127 46.5848L87.4169 46.5843L87.4386 46.5825L87.4467 46.5821L87.4664 46.5806L87.4763 46.5797L87.4929 46.5785L87.5069 46.5773L87.5235 46.5761L87.5349 46.5751L87.5526 46.5738L87.5638 46.5732L87.5827 46.5716L87.5932 46.5708L87.6104 46.5697L87.6244 46.5686L87.6404 46.5672L87.6519 46.5665L87.6847 46.5641L87.6973 46.5631L87.7116 46.5621L87.7279 46.5607L87.7411 46.5601L87.7563 46.5589L87.7714 46.5578L87.786 46.5568L87.802 46.5554L87.8135 46.5547L87.8315 46.5534L87.8438 46.5527L87.8609 46.5513L87.8719 46.5507L87.8899 46.5494L87.9014 46.5486L87.9194 46.5473L87.928 46.5468L87.948 46.5455L87.9583 46.5447L87.9916 46.5425L88.005 46.5416L88.022 46.5405L88.0342 46.5396L88.0505 46.5384L88.0632 46.5376L88.0815 46.5365L88.0921 46.5357L88.109 46.5347L88.1219 46.5339L88.1385 46.5326L88.1515 46.5321L88.1666 46.5309L88.1802 46.5302L88.1979 46.529L88.2059 46.5283L88.226 46.527L88.2337 46.5266L88.3322 46.5207L88.3407 46.5199L88.3588 46.5188L88.3694 46.5183L88.3866 46.5172L88.3996 46.5166L88.4168 46.5155L88.4265 46.5147L88.4464 46.5137L88.4558 46.5132L88.4748 46.5119L88.4842 46.5114L88.5038 46.5103L88.5113 46.51L88.6055 46.5046L88.6181 46.5039L88.6353 46.5027L88.6466 46.5023L88.6655 46.5013L88.6744 46.5007L88.6948 46.4996L88.7034 46.4991L88.7224 46.4981L88.7325 46.4977L88.7526 46.4967L88.7593 46.4964L88.7814 46.4951L88.7871 46.4947L88.8378 46.4922L88.8429 46.4917L88.943 46.4868L88.9516 46.4862L88.9718 46.4852L88.979 46.485L88.9998 46.4841L89.0084 46.4836L89.0285 46.4825L89.0363 46.4822L89.0562 46.4812L89.0671 46.4807L89.0844 46.4801L89.0948 46.4796L89.1141 46.4786L89.1213 46.4784L89.1426 46.4773L89.1452 46.4772L89.2189 46.4738L89.2268 46.4737L89.2486 46.4725L89.2544 46.4724L89.2749 46.4716L89.2839 46.4713L89.3028 46.4703L89.3132 46.4698L89.3305 46.469L89.3421 46.4688L89.3594 46.4679L89.3709 46.4675L89.3883 46.4669L89.3986 46.4662L89.418 46.4657L89.4237 46.4653L89.4462 46.4645L89.4511 46.4641C89.4613 46.464 89.4716 46.4635 89.4817 46.4629L89.5028 46.4622L89.5166 46.4614L89.5299 46.4613L89.549 46.4606L89.559 46.4599L89.5781 46.4592L89.5868 46.4592L89.6053 46.4583L89.6169 46.4581L89.6341 46.4573L89.644 46.457L89.6636 46.4564L89.6712 46.4561L89.6928 46.4553L89.6985 46.4549L89.72 46.4544L89.7292 46.454L89.8263 46.4507L89.8321 46.4506L89.8527 46.4501L89.8607 46.4497L89.881 46.4492L89.8891 46.4488L89.9093 46.448L89.918 46.448L89.9354 46.4475L89.9483 46.4469L89.9643 46.4467L89.9756 46.4463L89.9938 46.4458L90.0013 46.4455L90.0236 46.4448L90.1322 46.442L90.133 46.4417L90.1539 46.4414L90.1626 46.4411L90.1829 46.4406L90.1898 46.4405L90.2107 46.4399L90.2185 46.4398L90.2388 46.4393L90.2466 46.439L90.2669 46.4385L90.2755 46.4383L90.2947 46.4381L90.304 46.4376L90.3234 46.4374L90.33 46.4371L90.4034 46.4355L90.4063 46.4356L90.4246 46.4351L90.4354 46.4351L90.4541 46.4344L90.4629 46.4344L90.4826 46.4341L90.4908 46.434L90.5113 46.4334L90.5189 46.4334L90.5392 46.4329L90.5473 46.4328L90.5676 46.4323L90.5746 46.4325L90.5949 46.432L90.6024 46.4317L90.7576 46.4295L90.7616 46.4293L90.782 46.4294L90.791 46.429L90.8087 46.4289L90.8201 46.4288L90.8378 46.4285L90.8468 46.4284L90.8672 46.4282L90.8738 46.4281L90.8951 46.428L90.9009 46.4279L90.9227 46.4276L90.928 46.4276L91.0274 46.4266L91.0332 46.4265L91.0545 46.4267L91.0606 46.4265L91.0828 46.4264L91.0886 46.4263L91.1097 46.4259L91.1168 46.426L91.1362 46.4258L91.1456 46.4259L91.1648 46.4257L91.1733 46.4257L91.1927 46.4255L91.2006 46.4254L91.221 46.4255L91.2277 46.4254L91.2484 46.4254L91.2519 46.4254L91.298 46.4253L91.3032 46.4253L91.3236 46.4251L91.3309 46.4252L91.3498 46.4251L91.3597 46.4251L91.3787 46.4252L91.3866 46.4252L91.4064 46.4251L91.4151 46.4251L91.4344 46.4252L91.4425 46.425L91.4623 46.425L91.4708 46.425L91.4904 46.4251L91.4962 46.4252L91.5187 46.4251L91.6255 46.4256L91.627 46.4255L91.6503 46.4256L91.655 46.4256L91.6763 46.4257L91.683 46.4256L91.7049 46.4259L91.7099 46.426L91.7321 46.4259L91.7377 46.4262L91.7598 46.4261L91.7645 46.4263L91.7876 46.4265L91.7906 46.4266L91.9475 46.428L91.9504 46.4278L91.9732 46.4281L91.9785 46.4281L91.999 46.4285L92.0074 46.4285L92.0271 46.4288L92.0341 46.429L92.0549 46.4292L92.0616 46.4292L92.0821 46.4295L92.09 46.4297L92.1099 46.4299L92.1134 46.4299L92.2127 46.4316L92.2191 46.4316L92.2391 46.4321L92.2467 46.4321L92.2663 46.4326L92.2742 46.4326L92.2939 46.4331L92.3024 46.4332L92.3205 46.4333L92.3304 46.4335L92.3489 46.4338L92.3568 46.4341L92.3768 46.4345L92.382 46.4346L92.5094 46.4375L92.512 46.4374L92.5325 46.4377L92.541 46.4381L92.561 46.4385L92.5671 46.4387L92.5885 46.439L92.5945 46.4395L92.617 46.4399L92.6197 46.44L92.6447 46.4406L92.6449 46.4406L92.8015 46.445L92.8053 46.4448L92.8283 46.4457L92.8324 46.4457L92.8536 46.4465L92.8606 46.4466L92.8811 46.447L92.8879 46.4475L92.9076 46.448L92.9156 46.4482L92.9355 46.4487L92.9426 46.4491L92.9621 46.4498L92.9706 46.4501L93.121 46.4553L93.1239 46.4554L93.1475 46.4561L93.151 46.4563L93.1731 46.4571L93.1796 46.4574L93.2002 46.4583L93.2055 46.4583L93.2279 46.4593L93.2309 46.4594L93.385 46.4653L93.3883 46.4656L93.4115 46.4664L93.4148 46.4667L93.4384 46.4677L93.4416 46.4677L93.4661 46.4687L93.4673 46.4689L93.4918 46.47L93.495 46.47L93.7008 46.4796L93.7053 46.4798L93.728 46.4808L93.7312 46.481L93.7538 46.4823L93.7596 46.4825L93.7806 46.4836L93.786 46.4839L93.8072 46.4849L93.814 46.4851L93.8347 46.4863L93.8377 46.4866C93.8799 46.4884 93.9225 46.4907 93.9646 46.4932L93.9666 46.4932L93.9897 46.4946L93.9938 46.4947L94.0152 46.4959L94.0214 46.4963L94.0427 46.4973L94.0477 46.4977L94.0687 46.4988L94.0753 46.4994L94.096 46.5005L94.1014 46.5008L94.123 46.5021L94.1259 46.5021L94.2222 46.5078L94.2293 46.5083L94.2501 46.5097L94.2551 46.5098L94.2764 46.5111L94.2824 46.5115L94.3026 46.5128L94.3094 46.5133L94.3293 46.5144L94.3364 46.5149L94.3571 46.516L94.361 46.5164L94.3841 46.5178L94.3859 46.5179L94.5144 46.5263L94.5147 46.5263L94.5364 46.5278L94.5426 46.5281L94.5628 46.5297L94.5693 46.53L94.589 46.5314L94.5964 46.5318L94.6157 46.5333L94.6241 46.534L94.641 46.5353L94.6522 46.5358L94.6692 46.5371L94.6781 46.5376L94.6956 46.5387L94.7031 46.5394L94.7943 46.5458L94.8024 46.5466L94.8214 46.5479L94.8285 46.5483L94.8464 46.5497L94.8562 46.5505L94.8741 46.5519L94.8818 46.5524L94.9012 46.5539L94.9089 46.5545L94.9288 46.5559L94.933 46.5562L94.9557 46.558L94.9583 46.5582L94.9819 46.56L94.9834 46.5602L95.0548 46.5656L95.0598 46.566L95.0804 46.5677L95.0864 46.5682L95.1064 46.5698L95.1129 46.5704L95.1332 46.572L95.1398 46.5725L95.1585 46.5739L95.1663 46.5748L95.1866 46.5763L95.1919 46.5767L95.2125 46.5784L95.2188 46.5791L95.2399 46.5807L95.2414 46.5809L95.2659 46.5831L95.267 46.5828L95.3664 46.5911L95.3697 46.5917C95.3773 46.5926 95.3856 46.5933 95.3933 46.5936L95.3951 46.5939L95.4172 46.5959L95.4229 46.5964L95.4429 46.5981L95.4492 46.5987L95.4686 46.6005L95.4767 46.6012L95.4963 46.6027L95.5002 46.6031L95.65 46.6169L95.6521 46.6169L95.6721 46.6189L95.6797 46.6198L95.699 46.6213L95.7053 46.6219L95.7256 46.6238L95.731 46.6244L95.7529 46.6267L95.7559 46.6267L95.7781 46.629L95.7831 46.6294L95.9305 46.6438L95.9338 46.6441L95.9572 46.6466L95.9589 46.6467L95.9811 46.6489L95.9862 46.6493L96.0081 46.6516L96.011 46.6517L96.0336 46.6544L96.0372 46.6546L96.2361 46.6754L96.24 46.6758L96.2619 46.6781L96.2658 46.6785L96.2865 46.6808L96.2925 46.6813L96.3144 46.6838L96.3157 46.6841L96.3396 46.6864L96.3421 46.6869L96.4872 46.7029L96.4942 46.7039L96.5149 46.7059L96.5189 46.7066L96.5402 46.7091L96.5453 46.7095L96.5664 46.712L96.5709 46.7125L96.591 46.7147L96.5985 46.7156L96.6175 46.7178L96.6224 46.7186L96.7684 46.7357L96.7713 46.7358L96.7907 46.7385L96.7985 46.7393L96.8169 46.7417L96.8239 46.7424L96.8431 46.7446L96.8492 46.7456L96.8703 46.7481L96.8733 46.7484L96.8947 46.7511L96.9007 46.7516L96.9967 46.7638L97.0211 46.7668L97.0223 46.7668L97.0422 46.7694L97.0495 46.7703L97.0676 46.7728L97.0751 46.7737L97.0923 46.7758L97.102 46.777L97.1195 46.7793L97.1262 46.7804L97.1452 46.7826L97.1524 46.7836L97.1718 46.786L97.1751 46.7865L97.293 46.8022L97.299 46.8029L97.319 46.8054L97.3245 46.8063L97.3432 46.8088L97.3508 46.8097L97.3689 46.8122L97.3767 46.813L97.3943 46.8156L97.4025 46.8169L97.4209 46.8192L97.4274 46.8204L97.4455 46.8226L97.4552 46.824L97.4724 46.8264L97.4779 46.827L97.4972 46.8297L97.5033 46.8304L97.5409 46.8358L97.5484 46.8367L97.5678 46.8394L97.5733 46.8402L97.5921 46.8431L97.5996 46.844L97.6191 46.8469L97.6241 46.8473L97.6436 46.8503L97.6511 46.8512L97.6687 46.8537L97.6772 46.855L97.6936 46.8573L97.7042 46.8588L97.7203 46.8612L97.7273 46.8622L97.7461 46.8648L97.7522 46.8661L97.8128 46.8746L97.822 46.876L97.8378 46.8784L97.848 46.8798L97.8633 46.8821L97.8741 46.8835L97.8878 46.8857L97.9006 46.8875L97.9146 46.8896L97.9258 46.8913L97.9407 46.8934L97.951 46.895L97.9671 46.8974L97.9762 46.8988L97.9927 46.9014L98.0009 46.9027L98.092 46.9162L98.0936 46.9169L98.1149 46.9199L98.1188 46.9206L98.1377 46.9235L98.1453 46.9246L98.1636 46.9276L98.1703 46.9287L98.1885 46.9314L98.1961 46.9326L98.2143 46.9353L98.2213 46.9363L98.2393 46.9394L98.2473 46.9407L98.2649 46.9433L98.2719 46.9444L98.2902 46.9473L98.2966 46.9485L98.3627 46.9591L98.3648 46.9594L98.3825 46.9622L98.391 46.9635L98.4087 46.9663L98.416 46.9676L98.4337 46.9704L98.4414 46.9718L98.4593 46.9746L98.4669 46.9758L98.4843 46.9787L98.492 46.9802L98.5109 46.9833L98.5145 46.9837L98.5359 46.9871L98.5393 46.9879C98.5709 46.9928 98.6015 46.9981 98.633 47.0036L98.6348 47.0037L98.6547 47.0071L98.6601 47.008L98.6767 47.0109L98.687 47.0125L98.7038 47.0153L98.7105 47.0164L98.7295 47.0197L98.7357 47.021L98.754 47.024L98.7609 47.025L98.7793 47.0283L98.786 47.0294L98.8056 47.0329C98.8459 47.0396 98.886 47.0466 98.9262 47.054L98.9279 47.0541L98.9494 47.0579L98.9531 47.0587L98.9723 47.062L98.9793 47.063L98.9978 47.0665L99.0039 47.0678L99.0223 47.0711L99.029 47.0722L99.0479 47.0753L99.0536 47.0767L99.0725 47.0798L99.0786 47.081L99.1666 47.0968L99.1715 47.0979L99.1899 47.1011L99.196 47.1024L99.2144 47.1056L99.2215 47.1069L99.2396 47.1102L99.2463 47.1114L99.2635 47.1146L99.2727 47.1165L99.2887 47.1195L99.2973 47.121L99.3139 47.1242L99.3212 47.1254L99.4324 47.1464L99.4377 47.1476L99.4545 47.1506L99.4628 47.1522L99.4795 47.1556L99.488 47.1571L99.5046 47.1602L99.5126 47.1616L99.5301 47.1651L99.5372 47.1664L99.5547 47.1699L99.5621 47.1714L99.5802 47.1747L99.5852 47.1757L99.6049 47.1797L99.6092 47.1803L99.6994 47.1982L99.7024 47.1985L99.7219 47.2026L99.7268 47.2036L99.7453 47.2074L99.7523 47.2085L99.7708 47.2123L99.7757 47.2133L99.7955 47.2173L99.8007 47.2183L99.8192 47.222L99.8263 47.2236L99.8435 47.2269L99.8522 47.2287L99.8691 47.232L99.8722 47.2326L99.9598 47.2506L99.9665 47.2517L99.9845 47.2556L99.9907 47.2569L100.009 47.2607L100.015 47.2619L100.032 47.2653L100.041 47.2675L100.057 47.2708L100.065 47.2725L100.082 47.2758L100.09 47.2775L100.107 47.2812L100.115 47.2827L100.131 47.286L100.14 47.288L100.219 47.3048L100.23 47.307L100.242 47.3096L100.254 47.3122L100.268 47.3151L100.279 47.3175L100.293 47.3205L100.304 47.3228L100.318 47.326L100.329 47.3283L100.343 47.3313L100.353 47.3336L100.368 47.3367L100.377 47.3387L100.393 47.3421L100.4 47.3435L100.464 47.3577L100.465 47.3578L100.484 47.3619L100.49 47.3631L100.505 47.3668L100.515 47.3691L100.53 47.3722L100.54 47.3745L100.555 47.3775L100.564 47.38L100.58 47.3834L100.589 47.3853L100.604 47.3886L100.613 47.391L100.629 47.3945L100.636 47.3958L100.654 47.3997L100.657 47.4008L100.743 47.4201L100.75 47.4218L100.766 47.4255L100.774 47.4274L100.789 47.4307L100.8 47.4331L100.815 47.4365L100.823 47.4386L100.839 47.4422L100.848 47.4444L100.863 47.4477L100.874 47.4501L100.887 47.4532L100.898 47.456L100.912 47.4591L100.921 47.4612L100.936 47.4648L100.961 47.4705L100.964 47.4712L100.986 47.4763L100.993 47.4781L101.01 47.4822L101.021 47.4849L101.033 47.4875L101.048 47.491L101.058 47.4937L101.071 47.4967L101.083 47.4992L101.096 47.5025L101.107 47.5053L101.12 47.5084L101.132 47.5109L101.145 47.5144L101.156 47.5173L101.169 47.5203L101.181 47.5229L101.237 47.5365L101.241 47.5375L101.256 47.5413L101.266 47.5438L101.279 47.547L101.291 47.5498L101.303 47.5528L101.316 47.5557L101.328 47.559L101.339 47.5619L101.352 47.5647L101.365 47.5681L101.377 47.5708L101.388 47.5736L101.402 47.5772L101.411 47.5792L101.427 47.5834L101.428 47.5835L101.49 47.599L101.497 47.6008L101.512 47.6046L101.522 47.6073L101.535 47.6104L101.547 47.6133L101.559 47.6166L101.571 47.6194L101.583 47.6228L101.595 47.6256L101.608 47.629L101.62 47.632L101.631 47.6349L101.645 47.6384L101.657 47.6415L101.669 47.6445L101.68 47.6475L101.699 47.6524L101.705 47.6538L101.729 47.6603L101.734 47.6612L101.752 47.6661L101.764 47.6689L101.778 47.6727L101.788 47.6753L101.801 47.6789L101.813 47.6817L101.825 47.6853L101.838 47.6886L101.848 47.6914L101.863 47.6951L101.873 47.6977L101.886 47.7011L101.898 47.7042L101.91 47.7072L101.924 47.7113L101.934 47.7139L101.947 47.7172L101.975 47.7246L101.981 47.7263L101.994 47.7297L102.006 47.7329L102.018 47.736L102.03 47.7395L102.042 47.7425L102.054 47.746L102.067 47.7493L102.079 47.7527L102.089 47.7553L102.104 47.7592L102.114 47.7623L102.128 47.7658L102.137 47.7685L102.152 47.7723L102.162 47.7752L102.179 47.7799L102.186 47.7815L102.204 47.7866L102.219 47.7907L102.234 47.7949L102.245 47.7979L102.257 47.8014L102.269 47.8046L102.282 47.8081L102.292 47.8112L102.306 47.8146L102.317 47.8181L102.33 47.8218L102.341 47.8246L102.355 47.8286L102.364 47.8311L102.381 47.8356L102.388 47.8378L102.405 47.8424L102.413 47.8446L102.433 47.8503L102.436 47.8514L102.485 47.8652L102.49 47.8668C102.497 47.8685 102.502 47.8699 102.509 47.8719L102.518 47.8743L102.533 47.8788L102.542 47.8812L102.557 47.8856L102.567 47.8885L102.581 47.8925L102.59 47.895L102.605 47.8993L102.615 47.9024L102.63 47.9065L102.638 47.9089L102.653 47.9134L102.663 47.9161L102.679 47.9206L102.686 47.923L102.71 47.9297L102.714 47.9309L102.734 47.937L102.742 47.9392L102.757 47.9436L102.768 47.9466L102.782 47.951L102.79 47.9534L102.806 47.958L102.815 47.9605L102.83 47.9652L102.84 47.9679L102.852 47.9718L102.864 47.9748L102.877 47.9789L102.887 47.982L102.901 47.9862L102.911 47.9891L102.926 47.9937L102.935 47.996L102.954 48.0017L102.966 48.0053L102.982 48.0103L102.989 48.0124L103.006 48.0173L103.015 48.0203L103.029 48.0245L103.039 48.0276L103.052 48.0314L103.064 48.0352L103.076 48.0389L103.086 48.0421L103.101 48.0463L103.11 48.049L103.125 48.0538L103.133 48.0563L103.149 48.0608L103.158 48.0638L103.229 48.0855L103.233 48.0872L103.252 48.0928L103.26 48.0954L103.276 48.1005L103.283 48.1024L103.3 48.1077L103.308 48.1102L103.324 48.1152L103.331 48.1175L103.347 48.1226L103.355 48.1251L103.373 48.1306L103.378 48.1321L103.395 48.1377L103.403 48.1401L103.422 48.1466L103.426 48.1476L103.45 48.155L103.455 48.1565L103.473 48.1623L103.48 48.1644L103.498 48.1704L103.502 48.1715L103.522 48.1778L103.526 48.1792L103.545 48.1854L103.552 48.1874L103.569 48.193L103.575 48.1949L103.593 48.2006L103.599 48.2025L103.618 48.2089L103.622 48.21L103.641 48.2165L103.646 48.218L103.741 48.2487L103.746 48.2507L103.766 48.2569L103.769 48.258L103.788 48.2646L103.794 48.2665L103.812 48.2722L103.818 48.2744L103.835 48.2798L103.842 48.2822L103.861 48.2887L103.864 48.2896L103.96 48.3216L103.963 48.3228L103.983 48.3295L103.987 48.3308L104.007 48.3375L104.011 48.339L104.03 48.3451L104.037 48.3474L104.054 48.3535L104.059 48.3551L104.078 48.3617L104.083 48.3632L104.101 48.3694L104.106 48.3713L104.125 48.3779L104.13 48.3795L104.201 48.4037L104.203 48.4045L104.223 48.4116L104.228 48.4132L104.247 48.4197L104.251 48.4212L104.271 48.4278L104.275 48.4294L104.294 48.4361L104.299 48.4377L104.318 48.4444L104.322 48.446L104.342 48.4529L104.346 48.4541L104.439 48.4873L104.443 48.4886L104.462 48.4951L104.467 48.4973L104.486 48.5037L104.491 48.5055L104.508 48.5117L104.515 48.5144L104.532 48.52L104.538 48.5224L104.555 48.5286L104.561 48.5307L104.581 48.5378L104.584 48.5387L104.604 48.5459L104.607 48.5472L104.654 48.564L104.656 48.5649L104.678 48.5728L104.68 48.5738L104.7 48.5809L104.706 48.5832L104.723 48.5892L104.729 48.5913L104.746 48.5979L104.752 48.5999L104.769 48.6062L104.775 48.6084L104.791 48.6143L104.799 48.6173L104.816 48.6233L104.821 48.6253L104.937 48.6686L104.939 48.6693L104.959 48.677L104.964 48.6786L104.981 48.6853L104.988 48.6876L105.006 48.6945L105.01 48.6958L105.03 48.7035L105.033 48.7045L105.171 48.7573L105.174 48.7587L105.195 48.7664L105.197 48.7672L105.218 48.7754L105.22 48.7762L105.242 48.7847L105.242 48.7848L105.382 48.839L105.383 48.8396L105.404 48.8481L105.407 48.8491L105.427 48.8571L105.43 48.8582L105.45 48.866L105.453 48.8676L105.473 48.875L105.476 48.8764L105.496 48.8842L105.499 48.8854L105.636 48.9404L105.638 48.9414L105.659 48.9497L105.661 48.9507L105.681 48.9589L105.684 48.9601L105.704 48.9681L105.707 48.9691L105.726 48.9768L105.73 48.9787L105.752 48.9875L105.752 48.9874L105.844 49.0252L105.844 49.0251C105.852 49.0288 105.858 49.0312 105.866 49.0346L105.868 49.0351L105.888 49.0436L105.891 49.0449L105.91 49.0528L105.914 49.0544L105.935 49.0634L106.049 49.111L106.05 49.1115L106.071 49.1205L106.075 49.1216L106.093 49.1296L106.095 49.1305C107.562 49.7526 109.217 49.7664 110.694 49.1688C112.172 48.5712 113.351 47.4112 113.973 45.9439C114.595 44.4767 114.609 42.8223 114.012 41.3449C113.414 39.8675 112.254 38.688 110.787 38.0658C100.353 33.6412 87.0931 33.2183 73.4487 36.8744Z" fill="#3D180B"/>
<path d="M119.066 146.417C148.951 131.061 164.794 102.297 154.452 82.1714C144.11 62.0462 111.5 58.1806 81.6154 73.5374C51.7305 88.8941 35.8875 117.658 46.2292 137.783C56.5708 157.908 89.1809 161.774 119.066 146.417Z" fill="#5B2C06"/>
<path d="M115.954 147.468C143.197 134.308 159.683 112.052 152.778 97.7577C145.873 83.4635 118.191 82.5442 90.9482 95.7043C63.7057 108.865 47.219 131.121 54.1242 145.415C61.0293 159.709 88.7115 160.628 115.954 147.468Z" fill="#764126"/>
<path d="M142.912 97.5349C141.178 97.9996 139.622 98.9712 138.444 100.325C137.266 101.679 136.518 103.354 136.297 105.136C136.209 105.718 136.055 106.288 135.837 106.834L135.813 106.897L135.788 106.963C132.761 114.78 120.525 126.407 102.997 133.505C99.9518 134.744 96.8337 135.794 93.66 136.652C86.6344 138.534 79.9541 139.174 74.8501 138.454C73.6767 138.286 72.4814 138.35 71.333 138.644C70.1845 138.939 69.1053 139.456 68.1573 140.168C67.2092 140.88 66.4109 141.772 65.808 142.793C65.2051 143.813 64.8095 144.943 64.6438 146.117C64.4782 147.291 64.5457 148.486 64.8426 149.634C65.1395 150.781 65.6598 151.859 66.3739 152.806C67.088 153.752 67.9817 154.548 69.004 155.148C70.0262 155.749 71.1569 156.142 72.3311 156.305C75.1283 156.685 77.9522 156.834 80.7739 156.75L80.7747 156.749C80.8235 156.748 80.8722 156.747 80.921 156.746L80.923 156.746L81.0677 156.742L81.0724 156.741L81.1181 156.74L81.1224 156.74L81.1687 156.738L81.1692 156.738L81.2158 156.737L81.221 156.737L81.266 156.735L81.2716 156.735L81.364 156.732L81.3692 156.732L81.4154 156.73L81.4183 156.73L81.513 156.726L81.5179 156.726L81.5644 156.725L81.5673 156.724L81.6617 156.721L81.6671 156.72L81.7133 156.718L81.7162 156.719L81.7641 156.717L81.8116 156.714L81.8163 156.714C81.8318 156.714 81.8466 156.713 81.8623 156.712L81.8667 156.712L81.9607 156.708L81.9661 156.708L82.0119 156.706L82.0162 156.705L82.0609 156.703L82.0644 156.703L82.1096 156.701L82.1165 156.701L82.1614 156.698L82.1675 156.698L82.2124 156.696L82.2137 156.696L82.2578 156.694L82.2676 156.693L82.3105 156.691L82.3185 156.691L82.3617 156.688L82.3643 156.688L82.4091 156.686L82.4175 156.686L82.4603 156.683L82.4704 156.683L82.5118 156.681L82.5147 156.68L82.5578 156.678L82.569 156.678L82.6109 156.675L82.6201 156.675L82.6586 156.672L82.669 156.672L82.7075 156.67L82.7207 156.669L82.7603 156.667L82.7733 156.666L82.8094 156.664L82.8189 156.663L82.8577 156.661L82.8717 156.66L82.9111 156.658L82.9248 156.657L82.9584 156.655L82.973 156.654L83.0095 156.652L83.0233 156.651L83.062 156.649L83.0768 156.648L83.1113 156.646L83.1228 156.645L83.1595 156.643L83.1752 156.641L83.2128 156.639L83.2288 156.638L83.2589 156.636L83.2799 156.635L83.3114 156.633L83.3263 156.632L83.3664 156.629L83.3793 156.628L83.4142 156.626L83.4277 156.625L83.4635 156.622L83.4784 156.621L83.5173 156.619L83.5317 156.618L83.566 156.615L83.5806 156.614L83.6158 156.612L83.6312 156.611L83.6684 156.608L83.6862 156.607L83.7167 156.604L83.7339 156.603L83.7683 156.601L83.7829 156.6L83.8223 156.597L83.836 156.596L83.8704 156.593L83.8869 156.592L83.9204 156.59L83.9363 156.588L83.9741 156.585L83.9909 156.584L84.0207 156.582L84.0429 156.58L84.0715 156.578L84.0901 156.576L84.1255 156.574L84.1455 156.572L84.1703 156.57L84.198 156.568L84.224 156.566L84.2438 156.564L84.2786 156.562L84.2994 156.56L84.3251 156.558L84.351 156.556L84.3764 156.553L84.3975 156.552L84.4317 156.549L84.4526 156.547L84.4754 156.545L84.5088 156.542L84.5288 156.541L84.5515 156.539L84.5857 156.536L84.6063 156.534L84.6305 156.532L84.6608 156.53L84.6832 156.527L84.7046 156.526L84.7388 156.522L84.7607 156.521L84.7849 156.519L84.8117 156.516L84.8393 156.514L84.8584 156.512L84.8937 156.509L84.914 156.507L84.9404 156.505L84.9672 156.502L84.9919 156.5L85.0127 156.498L85.0477 156.495L85.0682 156.493L85.093 156.491L85.1231 156.488L85.1467 156.486L85.1673 156.484L85.2025 156.48L85.2233 156.478L85.2471 156.476L85.2784 156.473L85.3003 156.471L85.3222 156.469L85.3566 156.465L85.3785 156.463L85.4012 156.461L85.4321 156.458L85.4569 156.456L85.477 156.454L85.5117 156.45L85.533 156.448C85.5416 156.447 85.5517 156.446 85.56 156.446L85.5853 156.443L85.6114 156.44L85.6319 156.438L85.6679 156.435L85.6872 156.433L85.7125 156.43L85.7437 156.427L85.7664 156.425L85.787 156.422L85.824 156.419L85.8419 156.417L85.8711 156.414L85.898 156.411L85.9213 156.408L85.9434 156.406L85.978 156.402L85.9996 156.4L86.0228 156.398L86.0545 156.394L86.0781 156.392L86.0996 156.389L86.1328 156.386L86.1568 156.383L86.1784 156.381L86.2115 156.377L86.2325 156.375L86.2555 156.372L86.29 156.369L86.3109 156.366L86.3353 156.364L86.3676 156.36L86.3897 156.357L86.4115 156.355L86.4455 156.351L86.4692 156.348L86.4899 156.346L86.525 156.342L86.545 156.34L86.568 156.337L86.6025 156.333L86.6245 156.331L86.6483 156.328L86.68 156.324L86.7032 156.322L86.7246 156.319L86.7592 156.315L86.7818 156.312L86.8072 156.309L86.8355 156.306L86.8598 156.303L86.8809 156.3L86.9163 156.297L86.9383 156.294L86.9601 156.291L86.996 156.287L87.0157 156.284L87.0417 156.281L87.0731 156.278L87.0966 156.275L87.1171 156.272L87.1527 156.268L87.1725 156.266L87.1993 156.262L87.2298 156.258L87.2541 156.255L87.2747 156.253L87.3091 156.248L87.3316 156.245L87.3537 156.243L87.3875 156.239L87.412 156.235L87.4318 156.233L87.4684 156.228L87.4877 156.226L87.5186 156.222L87.5451 156.218L87.5688 156.215L87.5899 156.213L87.6271 156.208L87.6458 156.206L87.6726 156.202L87.7036 156.198L87.7272 156.195L87.748 156.192L87.7846 156.187L87.8039 156.185L87.8283 156.181L87.8615 156.177L87.8855 156.174L87.9055 156.171L87.9427 156.166L87.9624 156.164L87.995 156.159L88.0194 156.156L88.0442 156.153L88.0678 156.149L88.0991 156.145L88.1216 156.142L88.1475 156.139L88.1785 156.134L88.202 156.131L88.2237 156.128L88.26 156.123L88.2802 156.12L88.3027 156.117L88.3387 156.112L88.3601 156.109L88.3868 156.106L88.4163 156.101L88.4402 156.098L88.4613 156.095L88.4975 156.09L88.5189 156.087L88.5469 156.083L88.5747 156.079L88.5997 156.075C88.6076 156.074 88.6166 156.073 88.6249 156.071L88.6556 156.067L88.6792 156.064L88.7033 156.06L88.7356 156.056L88.7584 156.053L88.7797 156.049L88.817 156.044L88.8358 156.041L88.8678 156.036L88.8934 156.033L88.9194 156.029L88.9391 156.026L88.9764 156.02L88.9972 156.017L89.0258 156.013L89.0538 156.009L89.0782 156.005L89.0992 156.002L89.1356 155.997L89.157 155.994L89.1838 155.989L89.2144 155.985L89.2383 155.981L89.2593 155.978L89.2949 155.973L89.3181 155.969L89.346 155.965L89.3741 155.961L89.3985 155.957L89.4192 155.954L89.4556 155.948L89.4772 155.945L89.5043 155.94L89.5345 155.936L89.5592 155.932L89.5796 155.928L89.6171 155.923L89.6367 155.92L89.6703 155.914L89.693 155.911L89.7209 155.906L89.7394 155.903L89.7783 155.897L89.7964 155.894L89.8356 155.888L89.8515 155.886L89.8832 155.881L89.8999 155.878L89.939 155.872L89.9586 155.868L89.9938 155.863L90.0145 155.859L90.0427 155.855L90.0609 155.852L90.1 155.845L90.1187 155.842L90.1528 155.837L90.1769 155.833L90.2029 155.829L90.2232 155.825L90.2609 155.819L90.2804 155.816L90.3156 155.81L90.3382 155.806L90.3634 155.802L90.3851 155.798L90.4217 155.792L90.4423 155.789L90.473 155.783L90.4995 155.779L90.526 155.775L90.5487 155.771L90.5821 155.765L90.6047 155.761L90.6426 155.755L90.6582 155.752L90.6889 155.747L90.7068 155.744L90.7458 155.737L90.765 155.734L90.7998 155.728L90.8221 155.724L90.8512 155.719L90.8679 155.716L90.908 155.709L90.9275 155.706L90.9642 155.699L90.9854 155.696L91.0105 155.691L91.0328 155.687L91.0693 155.681L91.0893 155.677L91.1241 155.671L91.1464 155.667L91.1742 155.662L91.1985 155.658L91.2305 155.652L91.2532 155.648L91.2903 155.642L91.3089 155.638L91.3365 155.633L91.3581 155.629L91.3943 155.623L91.4132 155.619L91.4483 155.613L91.4722 155.609L91.4994 155.604L91.5214 155.6L91.5575 155.593L91.5765 155.59L91.616 155.583L91.6343 155.579L91.6618 155.574L91.684 155.57L91.7193 155.563L91.7396 155.56L91.7779 155.552L91.7965 155.549L91.8265 155.543L91.846 155.54L91.8832 155.533L91.9027 155.529L91.9432 155.522L91.9573 155.519L91.9901 155.513L92.0062 155.51L92.0467 155.502L92.0648 155.499L92.1017 155.492L92.1239 155.488L92.1528 155.482L92.1711 155.479L92.211 155.471L92.2284 155.467L92.2692 155.46L92.2853 155.457L92.3172 155.451L92.333 155.448L92.3738 155.44L92.3915 155.436L92.4325 155.428L92.4486 155.425L92.4822 155.419L92.4965 155.416L92.537 155.408L92.557 155.404L92.5966 155.396L92.6127 155.393L92.6451 155.387L92.6606 155.384L92.7021 155.376L92.7188 155.372L92.7603 155.364L92.7769 155.361L92.8102 155.354L92.8242 155.351L92.8669 155.343L92.8829 155.34L92.9253 155.331L92.9405 155.328L92.974 155.321L92.9884 155.318L93.0304 155.31L93.0471 155.307L93.0885 155.298L93.1051 155.295L93.1397 155.288L93.1527 155.285L93.195 155.277L93.2124 155.273L93.2547 155.265L93.268 155.262L93.3047 155.254L93.3169 155.252L93.3604 155.243L93.3758 155.24L93.4183 155.231L93.4333 155.228L93.4697 155.22L93.4819 155.218L93.5261 155.208L93.5404 155.205L93.5846 155.196L93.5968 155.194L93.6354 155.186L93.6465 155.183L93.6898 155.174L93.7058 155.171L93.7486 155.162L93.7621 155.159L93.8008 155.151L93.8118 155.148L93.8549 155.139L93.8714 155.136L93.9139 155.127L93.9285 155.124L93.9646 155.116L93.9768 155.113L94.022 155.104L94.0345 155.101L94.0799 155.091L94.0923 155.088L94.132 155.08L94.142 155.078L94.1877 155.068L94.2006 155.065L94.2458 155.055L94.2574 155.053L94.2982 155.044L94.3071 155.042L94.3523 155.032L94.3666 155.029L94.4111 155.019L94.423 155.017L94.4643 155.007L94.4728 155.005L94.518 154.996L94.5329 154.992L94.5772 154.982L94.5893 154.98L94.6279 154.972L94.64 154.969L94.6834 154.959L94.6986 154.956L94.741 154.946L94.7586 154.942L94.793 154.935L94.8078 154.931L94.8493 154.922L94.8656 154.918L94.9087 154.909L94.9225 154.905L94.9604 154.897L94.9714 154.894L95.0171 154.884L95.03 154.881L95.0756 154.871L95.0874 154.868L95.1306 154.858L95.1369 154.857L95.183 154.846L95.1973 154.843L95.2427 154.832L95.2537 154.83L95.2965 154.82L95.3037 154.818L95.3514 154.807L95.3619 154.805L95.4085 154.794L95.4215 154.791L95.4626 154.782L95.4703 154.78L95.517 154.769L95.5304 154.766L95.5762 154.755L95.5864 154.753L95.6303 154.743L95.6369 154.741L95.6841 154.73L95.6964 154.727L95.7422 154.716L95.7545 154.713L95.7968 154.703L95.8042 154.701L95.8508 154.69L95.8643 154.687L95.9109 154.676L95.9201 154.674L95.964 154.663L95.9714 154.661L96.0189 154.65L96.0303 154.647L96.0766 154.636L96.0887 154.633L96.1331 154.623L96.138 154.622L96.1867 154.61L96.1977 154.607L96.2451 154.596L96.2547 154.593L96.3015 154.582L96.3054 154.581L96.3546 154.569L96.3644 154.567L96.4129 154.555L96.4219 154.553L96.469 154.541L96.4731 154.54L96.5196 154.529L96.5345 154.525L96.5799 154.514L96.5907 154.511L96.6354 154.5L96.6411 154.499L96.6904 154.487L96.6996 154.484L96.7478 154.473L96.7587 154.47L96.8041 154.458L96.809 154.457L96.8577 154.445L96.8686 154.442L96.9164 154.43L96.9256 154.428L96.9722 154.417L96.9771 154.415L97.0254 154.403L97.0363 154.4L97.0833 154.388L97.0953 154.385L97.1401 154.374L97.1461 154.372L97.1931 154.361L97.2053 154.357L97.2534 154.345L97.2616 154.343L97.3096 154.331L97.3137 154.33L97.3628 154.317L97.3729 154.314L97.4202 154.303L97.4324 154.299L97.4783 154.288L97.4818 154.287L97.5307 154.274L97.5424 154.271L97.5896 154.259L97.5999 154.256L97.6474 154.244L97.6506 154.243L97.6997 154.23L97.7103 154.228L97.758 154.215L97.7684 154.212L97.8178 154.2L97.8795 154.183L97.9276 154.171L97.988 154.155L98.0378 154.142L98.0476 154.139L98.0953 154.126L98.2172 154.094L98.2657 154.081L98.3258 154.065C102.214 153.017 106.033 151.731 109.763 150.214L109.801 150.199L109.811 150.195L109.839 150.184L109.85 150.179L109.885 150.165L109.886 150.165L109.922 150.15L109.936 150.144L109.959 150.135L109.974 150.129L110.001 150.118L110.01 150.114C110.022 150.109 110.034 150.105 110.045 150.099L110.058 150.094L110.082 150.085L110.097 150.078L110.124 150.067L110.132 150.064L110.168 150.049L110.179 150.045L110.207 150.033L110.218 150.029L110.247 150.017L110.255 150.014L110.292 149.999L110.3 149.995L110.328 149.983L110.341 149.978L110.369 149.967L110.377 149.963L110.413 149.949L110.426 149.943L110.451 149.933L110.463 149.928L110.49 149.917L110.499 149.913L110.536 149.898L110.543 149.895L110.573 149.883L110.586 149.877L110.612 149.866L110.622 149.862L110.659 149.847L110.665 149.844C110.675 149.84 110.686 149.836 110.696 149.831L110.707 149.827L110.733 149.816L110.745 149.811L110.779 149.797L110.782 149.795L110.817 149.781L110.83 149.775L110.855 149.765L110.867 149.76L110.894 149.749L110.91 149.742L110.939 149.73L110.953 149.724L110.976 149.715L110.989 149.709L111.015 149.698L111.027 149.693L111.06 149.679L111.075 149.673L111.099 149.663L111.11 149.658L111.138 149.646L111.148 149.642L111.184 149.627L111.193 149.623L111.22 149.611L111.232 149.606L111.261 149.594L111.269 149.591L111.306 149.575L111.314 149.572L111.342 149.56L111.354 149.555L111.379 149.544L111.393 149.538L111.428 149.524L111.434 149.521L111.464 149.508L111.475 149.504L111.504 149.491L111.512 149.488L111.548 149.472L111.555 149.47L111.586 149.456L111.595 149.452L111.624 149.44L111.634 149.435L111.67 149.42L111.675 149.418L111.705 149.405L111.718 149.4L111.745 149.388L111.755 149.384L111.827 149.353L111.839 149.348L111.865 149.336L111.877 149.331L111.908 149.318L111.913 149.316L111.949 149.3L111.959 149.296L111.986 149.284L111.998 149.279L112.021 149.269L112.035 149.263L112.07 149.248L112.079 149.244L112.106 149.232L112.119 149.226L112.146 149.215L112.155 149.211L112.189 149.196L112.202 149.191L112.228 149.179L112.239 149.175L112.264 149.163L112.277 149.158L112.31 149.143L112.326 149.137L112.345 149.128L112.363 149.121L112.384 149.111L112.398 149.105L112.431 149.09L112.443 149.086L112.469 149.074L112.481 149.069L112.505 149.058L112.518 149.052L112.553 149.037L112.558 149.035L112.588 149.022L112.602 149.016L112.626 149.005L112.638 149L112.667 148.987L112.681 148.981L112.711 148.968L112.72 148.964L112.747 148.952L112.758 148.947L112.794 148.931L112.794 148.931C112.806 148.926 112.819 148.92 112.83 148.915L112.841 148.91L112.868 148.898L112.878 148.894L112.907 148.881L112.915 148.877L112.951 148.862L112.96 148.857L112.985 148.846L113 148.84L113.027 148.828L113.035 148.824L113.07 148.809L113.081 148.804L113.107 148.792L113.118 148.787L113.145 148.775L113.156 148.771L113.192 148.755L113.197 148.752L113.227 148.739L113.238 148.734L113.266 148.721L113.275 148.717L113.31 148.701L113.32 148.697L113.347 148.685L113.358 148.68L113.384 148.668L113.395 148.663L113.431 148.647L113.434 148.646L113.465 148.632L113.479 148.625L113.504 148.614L113.514 148.61L113.55 148.593L113.553 148.592L113.586 148.577L113.597 148.572L113.623 148.56L113.634 148.556L113.707 148.523L113.714 148.519L113.744 148.505L113.752 148.502L113.788 148.486L113.789 148.485L113.827 148.468L113.832 148.466L113.864 148.451L113.871 148.448L113.945 148.414L113.953 148.41L113.981 148.398L113.992 148.393L114.024 148.378L114.027 148.377L114.064 148.36L114.07 148.357L114.1 148.343L114.11 148.339L114.144 148.323L114.145 148.323L114.183 148.305L114.19 148.302L114.219 148.289L114.23 148.284L114.255 148.272L114.267 148.267L114.301 148.251L114.311 148.246L114.336 148.235L114.35 148.228L114.374 148.217L114.385 148.212L114.419 148.196L114.43 148.192L114.456 148.179L114.467 148.174L114.492 148.162L114.504 148.157L114.539 148.141L114.545 148.138L114.574 148.125L114.587 148.119L114.613 148.106L114.621 148.103C114.644 148.092 114.671 148.08 114.694 148.069L114.703 148.064L114.729 148.052L114.741 148.047L114.772 148.032L114.777 148.03L114.811 148.014L114.824 148.008L114.847 147.997L114.86 147.991L114.883 147.981L114.9 147.972L114.929 147.959L114.943 147.952L114.964 147.942L114.978 147.936L115.004 147.924L115.013 147.919L115.047 147.903L115.059 147.898L115.085 147.886L115.094 147.881L115.124 147.867L115.131 147.864L115.167 147.847L115.174 147.843L115.201 147.831L115.214 147.824C115.224 147.82 115.23 147.817 115.24 147.812L115.249 147.808L115.285 147.791L115.288 147.789L115.322 147.774L115.328 147.771L115.359 147.756L115.366 147.752L115.438 147.718L115.447 147.714L115.476 147.701L115.484 147.696L115.52 147.68L115.523 147.678L115.557 147.662L115.562 147.659L115.595 147.644L115.6 147.641L115.674 147.606L115.681 147.602L115.712 147.588L115.718 147.585L115.792 147.55L115.797 147.547L115.828 147.532L115.837 147.528L115.908 147.493L115.915 147.49L115.946 147.475L115.953 147.472L115.985 147.456L115.989 147.454L116.026 147.437L116.03 147.435L116.063 147.419L116.069 147.416L116.103 147.399L116.106 147.398L116.142 147.38L116.148 147.378L116.18 147.362L116.186 147.359L116.219 147.343L116.223 147.341L116.297 147.305L116.302 147.303L116.337 147.286L116.338 147.285L116.414 147.248L116.418 147.246L116.451 147.23L116.456 147.228L116.647 147.134L116.65 147.133L116.683 147.116L116.689 147.114L116.763 147.077L116.766 147.075L116.8 147.059L116.805 147.057L116.915 147.002L116.921 146.999L117.032 146.944L117.035 146.942L117.07 146.925L117.074 146.923L117.147 146.887L117.152 146.884L117.188 146.866L117.188 146.866L117.263 146.829L117.267 146.827L117.3 146.81L117.305 146.808L117.377 146.772L117.384 146.768L117.419 146.751C117.418 146.751 117.42 146.75 117.419 146.751L117.532 146.694L117.535 146.692L117.61 146.655L117.611 146.654L117.649 146.635L117.649 146.635L117.762 146.578L117.766 146.576L117.84 146.538L117.842 146.537L117.877 146.519L117.88 146.518L117.991 146.462L117.997 146.459L118.108 146.402L118.108 146.402C118.147 146.382 118.184 146.363 118.222 146.344L118.224 146.343C118.351 146.277 118.474 146.214 118.601 146.148L118.605 146.146L118.944 145.97L119.058 145.91L119.059 145.91L119.208 145.832L119.21 145.831L119.435 145.712L119.436 145.711L119.51 145.672L119.513 145.67L119.548 145.652L119.549 145.651L119.659 145.593L119.663 145.59L119.773 145.532L119.775 145.531L119.809 145.513L119.812 145.511L119.885 145.472L119.888 145.47L120.111 145.351L120.113 145.35C120.2 145.303 120.285 145.257 120.372 145.21L120.374 145.208C136.319 136.556 148.303 124.592 152.608 113.447C152.625 113.404 152.641 113.36 152.657 113.317C152.677 113.266 152.697 113.215 152.716 113.164C153.069 112.226 153.372 111.27 153.623 110.3L153.624 110.297L153.629 110.278L153.63 110.273L153.635 110.254L153.636 110.25L153.641 110.231L153.642 110.227L153.668 110.12L153.67 110.115L153.674 110.098L153.676 110.091L153.68 110.074L153.681 110.068L153.686 110.05L153.687 110.044C153.689 110.039 153.69 110.033 153.692 110.027L153.693 110.023L153.714 109.936L153.714 109.935L153.718 109.916L153.72 109.911L153.724 109.894L153.726 109.886C153.727 109.881 153.728 109.876 153.729 109.871L153.731 109.862L153.735 109.847L153.737 109.84L153.741 109.823L153.742 109.818L153.762 109.733L153.762 109.73L153.766 109.713L153.768 109.707L153.772 109.691L153.773 109.682L153.777 109.667L153.779 109.659L153.783 109.643L153.784 109.635L153.788 109.619L153.79 109.611L153.793 109.596L153.794 109.59L153.803 109.552L153.804 109.55L153.807 109.534L153.809 109.525L153.812 109.513C153.812 109.509 153.813 109.505 153.814 109.501L153.817 109.488L153.82 109.477L153.823 109.464L153.825 109.454L153.828 109.44L153.83 109.429L153.833 109.416L153.835 109.406L153.838 109.392L153.839 109.391L153.847 109.353L153.848 109.346L153.851 109.333L153.854 109.321L153.856 109.31L153.859 109.297L153.861 109.285L153.864 109.273L153.867 109.261L153.869 109.249L153.872 109.237L153.874 109.225L153.877 109.213L153.879 109.2L153.882 109.189L153.887 109.166L153.888 109.159L153.892 109.142L153.894 109.131L153.896 109.118L153.899 109.107L153.901 109.094L153.903 109.083L153.906 109.069L153.908 109.059L153.911 109.045L153.914 109.034L153.916 109.02L153.918 109.011L153.921 108.995L153.923 108.986L153.928 108.962L153.928 108.958L153.933 108.939L153.934 108.928L153.937 108.915L153.939 108.904L153.942 108.89L153.944 108.881C153.945 108.876 153.946 108.87 153.947 108.865L153.948 108.857L153.952 108.841L153.953 108.832L153.957 108.815L153.958 108.808L153.967 108.759L153.967 108.758L153.972 108.735L153.973 108.729L153.976 108.711L153.978 108.704L153.981 108.686L153.982 108.679L153.985 108.661L153.987 108.655L153.99 108.637L153.991 108.63L154.005 108.556L154.009 108.533L154.01 108.527L154.013 108.508L154.014 108.503L154.018 108.483L154.019 108.478L154.022 108.458L154.023 108.453L154.027 108.432L154.027 108.429L154.044 108.33L154.045 108.327L154.048 108.305L154.049 108.301L154.052 108.281L154.053 108.276L154.057 108.255L154.057 108.252L154.061 108.229L154.061 108.228L154.078 108.128L154.078 108.126L154.081 108.102C154.122 107.845 154.159 107.59 154.19 107.336C154.368 105.872 154.184 104.387 153.654 103.011C153.125 101.634 152.266 100.409 151.153 99.4415C150.04 98.4741 148.707 97.7944 147.27 97.462C145.833 97.1295 144.337 97.1545 142.912 97.5346L142.912 97.5349Z" fill="#69341C"/>
<path d="M110.137 94.9107C106.487 95.8955 102.901 97.1038 99.3993 98.5288L99.3336 98.5554L99.3249 98.5589L99.2629 98.5843L99.251 98.5889L99.1911 98.6137L99.1774 98.6191L99.118 98.6432L99.1054 98.6484L99.0436 98.6737L99.0368 98.6766L98.9777 98.7007L98.9674 98.7049L98.9076 98.7297L98.8936 98.7354L98.8358 98.7591L98.8201 98.7656L98.7623 98.7893L98.7481 98.7951L98.6893 98.8196L98.677 98.8247L98.6219 98.8476L98.6119 98.8517L98.5542 98.8757L98.5373 98.8825L98.4822 98.9054L98.4639 98.9133L98.4101 98.9356L98.3902 98.9438L98.3367 98.9663L98.3184 98.9741L98.2722 98.9932L98.2478 99.0035L98.2012 99.023L98.1834 99.0307L98.1296 99.0533L98.1094 99.0616L98.0575 99.0834L98.0361 99.0926L97.985 99.1142L97.9622 99.1238L97.9205 99.1414L97.891 99.154L97.8514 99.1707L97.8252 99.1818L97.7804 99.2008L97.7553 99.2116L97.7082 99.2315L97.6821 99.2429L97.635 99.2631L97.6088 99.2742L97.5695 99.2909L97.5377 99.3046L97.501 99.3203L97.467 99.3349L97.4307 99.3505L97.4035 99.3622L97.3585 99.3815L97.3303 99.3937L97.2859 99.4129L97.2563 99.4255L97.2234 99.4402L97.1834 99.4573L97.1568 99.4688L97.1098 99.4893L97.0847 99.5001L97.0408 99.5191L97.0117 99.5316L96.9804 99.5452L96.9376 99.564L96.9084 99.5768L96.8752 99.5912L96.8334 99.6094L96.8084 99.6205L96.7622 99.6407L96.7358 99.6522L96.691 99.6721L96.6633 99.6841L96.627 99.7L96.591 99.7158L96.5582 99.7304L96.5302 99.7425L96.486 99.7623L96.4625 99.7726L96.4122 99.7949L96.3926 99.8036C96.3742 99.8117 96.3558 99.8199 96.3374 99.8281L96.3201 99.8356L96.2577 99.8637L96.2482 99.8677L96.1373 99.9172L96.1256 99.9224L96.0626 99.9507L96.0521 99.9552L95.9889 99.9838L95.9772 99.989L95.9105 100.019L95.9043 100.022L95.7916 100.072L95.7904 100.073L95.7185 100.106L95.7091 100.11L95.6446 100.139L95.6354 100.143L95.5654 100.175L95.5628 100.176L95.3746 100.262L95.3721 100.263L95.2985 100.297L95.2974 100.297C90.9731 102.271 86.8026 104.566 82.8208 107.162C81.4945 108.039 80.5695 109.405 80.2484 110.962C79.9273 112.519 80.2363 114.14 81.1077 115.47C81.9791 116.799 83.3419 117.729 84.8977 118.056C86.4535 118.383 88.0754 118.08 89.4084 117.214C93.9888 114.235 98.8472 111.707 103.916 109.666C106.959 108.427 110.075 107.376 113.247 106.519C114.787 106.107 116.099 105.1 116.896 103.719C117.693 102.339 117.909 100.699 117.496 99.1596C117.084 97.6203 116.077 96.3078 114.697 95.5109C113.317 94.7141 111.676 94.4982 110.137 94.9106L110.137 94.9107Z" fill="#A77554"/>
<path d="M105.421 77.5108L105.37 77.5247C101.039 78.6967 96.7842 80.1308 92.6279 81.819C79.5836 87.1012 67.8091 94.5668 58.5777 103.409C58.0041 103.954 57.5437 104.607 57.223 105.33C56.9023 106.053 56.7276 106.833 56.7089 107.624C56.6902 108.415 56.8279 109.201 57.1141 109.939C57.4002 110.677 57.8293 111.351 58.3765 111.922C58.9238 112.493 59.5785 112.951 60.3031 113.269C61.0277 113.586 61.8079 113.758 62.599 113.773C63.39 113.789 64.1763 113.648 64.9127 113.359C65.6492 113.069 66.3212 112.638 66.8904 112.088C70.2754 108.869 73.9172 105.932 77.7795 103.304L77.78 103.304L77.9449 103.191L77.9506 103.188L78.0111 103.147L78.0154 103.143L78.1141 103.076L78.1164 103.075L78.1786 103.033L78.1852 103.028L78.246 102.987L78.2504 102.984L78.3484 102.918L78.3544 102.914L78.413 102.875L78.4204 102.87L78.517 102.805L78.5261 102.799L78.583 102.761L78.5909 102.755L78.6475 102.717L78.6567 102.711L78.7517 102.648L78.7652 102.639L78.8148 102.606L78.8296 102.596C78.8449 102.585 78.8586 102.577 78.8742 102.567L78.894 102.553L78.9222 102.534L78.9417 102.521L78.9849 102.493L79.0042 102.48L79.045 102.453L79.0684 102.438L79.094 102.42L79.1312 102.396L79.1568 102.379L79.182 102.362L79.2175 102.339L79.2425 102.323L79.2691 102.305L79.3062 102.281L79.3285 102.266L79.365 102.242L79.3918 102.225L79.4186 102.207L79.4509 102.186L79.4801 102.167L79.5037 102.151L79.5434 102.125L79.5653 102.111L79.6008 102.088L79.6256 102.072L79.6567 102.052L79.6777 102.038L79.719 102.011L79.7399 101.998L79.7823 101.97L79.8014 101.958L79.8345 101.936L79.8601 101.92L79.8957 101.897L79.9155 101.884L79.9578 101.857L79.9776 101.844L80.0214 101.816L80.0361 101.806L80.074 101.782L80.0903 101.771L80.1361 101.742L80.152 101.732L80.1978 101.702L80.2152 101.691C80.2279 101.683 80.2421 101.674 80.2551 101.666L80.27 101.656L80.3131 101.628L80.3298 101.618L80.3753 101.589C80.3808 101.585 80.3863 101.582 80.3917 101.578L80.4382 101.548L80.4518 101.54L80.4931 101.513L80.5056 101.506L80.5529 101.475L80.5686 101.465L80.6165 101.435L80.6294 101.427L80.677 101.397L80.6855 101.392L80.7346 101.36L80.7454 101.354L80.7955 101.322L80.8074 101.314L80.8584 101.282L80.8676 101.277L80.9143 101.247L80.924 101.241L80.9757 101.209L80.9851 101.202L81.0383 101.169L81.0463 101.164L81.1564 101.095L81.1646 101.09L81.2181 101.057L81.2258 101.052L81.2816 101.017L81.2838 101.016L81.3426 100.979L81.3988 100.944L81.4064 100.94L81.4608 100.906L81.4671 100.902L81.5841 100.829L81.5849 100.829L81.6429 100.793L81.6474 100.79L81.8872 100.643L81.889 100.642C86.4077 97.8762 91.132 95.4615 96.0201 93.4188L96.0203 93.4187C96.1132 93.3801 96.2052 93.3415 96.2985 93.3031L96.3003 93.3023C96.3696 93.2735 96.4372 93.2452 96.5068 93.2166L96.5102 93.2151L96.5772 93.1875L96.5806 93.1861L96.7154 93.131L96.7204 93.1288L96.7861 93.1018L96.7914 93.0998L96.8581 93.0726L96.8597 93.0719L96.9267 93.0443L96.9294 93.0436L96.993 93.0175L97.0035 93.0132L97.0653 92.988L97.075 92.9842L97.139 92.9583C100.869 91.4417 104.689 90.1556 108.576 89.1074L108.747 89.0619L108.784 89.0522L108.86 89.0317L108.876 89.0276L108.914 89.0175L108.95 89.0083L108.989 88.9977L109.006 88.9935L109.044 88.9833L109.065 88.978L109.083 88.9732L109.118 88.9641L109.14 88.9583L109.153 88.9549L109.178 88.9483L109.19 88.9454L109.216 88.9384L109.223 88.9369C109.454 88.877 109.684 88.818 109.915 88.76C109.962 88.7481 110.009 88.7353 110.055 88.7217C110.115 88.7085 110.175 88.6948 110.235 88.6798C117.591 86.8588 124.522 86.147 130.616 86.4847L130.754 86.4926L130.756 86.4927L130.865 86.4991L130.866 86.4993L130.893 86.5009L130.894 86.5009L130.976 86.5058L130.976 86.5059L131 86.5074L131.006 86.5079L131.03 86.5095L131.033 86.5096L131.14 86.5165L131.143 86.5166L131.169 86.5185L131.171 86.5185L131.252 86.524L131.252 86.5239L131.277 86.5258L131.281 86.526L131.306 86.5278L131.309 86.5278C131.336 86.5294 131.362 86.5317 131.389 86.5336L131.39 86.5334L131.413 86.5351L131.421 86.5357L131.443 86.5373L131.448 86.5377L131.523 86.5432L131.529 86.5437L131.55 86.5452L131.559 86.5459L131.581 86.5475L131.585 86.5479L131.66 86.5534L131.665 86.554L131.688 86.5555L131.695 86.5562L131.718 86.5578L131.723 86.5582L131.795 86.5641L131.803 86.5646L131.823 86.5662L131.834 86.567L131.853 86.5687L131.864 86.5694L131.932 86.575L131.939 86.5759L131.96 86.5774L131.97 86.5782L131.991 86.5799L131.994 86.5803L132.037 86.5839L132.047 86.5845L132.065 86.5862L132.078 86.5872L132.096 86.5889L132.107 86.5898L132.173 86.5956L132.183 86.5964L132.202 86.5979L132.213 86.599L132.231 86.6006L132.245 86.6018L132.262 86.6032L132.29 86.6056L132.305 86.607L132.319 86.6082L132.337 86.61L132.35 86.6112L132.368 86.6128L132.379 86.6139L132.445 86.6198L132.454 86.6206L132.474 86.6227L132.484 86.6234L132.503 86.6254L132.516 86.6265L132.547 86.6297L132.56 86.6306L132.577 86.6324L132.59 86.6337L132.608 86.6353L132.621 86.6365L132.638 86.6382L132.649 86.6394L132.683 86.6427L132.695 86.6438L132.712 86.6454L132.725 86.6468L132.743 86.6486L132.755 86.6498L132.773 86.6515L132.785 86.6527L132.816 86.656L132.83 86.6574L132.847 86.659L132.859 86.6604L132.878 86.6622L132.89 86.6635L132.907 86.6652L132.925 86.6672L132.949 86.6694L132.965 86.6709L132.98 86.6726L132.994 86.6743L133.012 86.6761L133.025 86.6777L133.04 86.6795L133.062 86.6815L133.081 86.6834L133.1 86.6855L133.113 86.6869L133.13 86.6887L133.144 86.6904L133.162 86.6922L133.175 86.6936L133.203 86.6967L133.218 86.6983L133.233 86.7001L133.248 86.7017L133.263 86.7033L133.279 86.7049L133.295 86.7069L133.308 86.7082L133.336 86.7114L133.35 86.713L133.367 86.7148L133.382 86.7166L133.395 86.7183L133.413 86.7201L133.426 86.7215L133.451 86.7245L133.47 86.7267L133.485 86.7285L133.5 86.7303L133.515 86.732L133.528 86.7334L133.546 86.7356L133.56 86.737L133.578 86.7392L133.602 86.7421L133.617 86.7439L133.632 86.7458L133.648 86.7477L133.663 86.7493L133.678 86.7511L133.697 86.7535L133.716 86.7558L133.735 86.7582L133.749 86.7596L133.766 86.7619L133.779 86.7634L133.797 86.7658L133.81 86.7671L133.833 86.7702L133.848 86.772L133.868 86.7745L133.88 86.7759L133.9 86.7783L133.911 86.7799L133.931 86.7823L133.941 86.7837L133.971 86.7873L133.974 86.7878L134.002 86.7915L134.011 86.7925L134.032 86.7952L134.042 86.7966L134.063 86.799L134.073 86.8005L134.103 86.8042L134.108 86.805L134.133 86.8082L134.143 86.8098L134.163 86.8122L134.174 86.8138L134.198 86.8168L134.204 86.8177L134.234 86.8218L134.24 86.8223L134.264 86.8257L134.275 86.827L134.296 86.8299L134.305 86.8312L134.328 86.8345L134.336 86.8354L134.366 86.8394L134.372 86.8401L134.396 86.8435L134.405 86.8447L134.428 86.848L134.436 86.8489L134.461 86.8525L134.467 86.8532L134.496 86.8573L134.505 86.8584L134.526 86.8614L134.537 86.863L134.558 86.8661L134.567 86.8671L134.591 86.8706L134.6 86.8719L134.627 86.8758L134.635 86.8771L134.657 86.88L134.667 86.8815L134.689 86.8848L134.697 86.8857L134.757 86.8946L134.765 86.8955L134.788 86.8992L134.797 86.9001L134.821 86.9039L134.826 86.9047L134.857 86.9092L134.86 86.9096L134.888 86.9138L134.894 86.9147L134.919 86.9184L134.926 86.9194L134.952 86.9233L134.956 86.9241L134.987 86.9287L134.99 86.929L135.017 86.9334L135.024 86.9345L135.048 86.9379L135.056 86.9389L135.082 86.943L135.086 86.9436L135.116 86.9481L135.123 86.9491L135.146 86.9531L135.154 86.9542L135.178 86.9578L135.184 86.9589L135.246 86.9685L135.247 86.9689L135.277 86.9733L135.282 86.9742L135.308 86.9785L135.313 86.9793L135.375 86.989L135.378 86.9898L135.406 86.994L135.41 86.9947L135.439 86.9994L135.44 86.9997L135.504 87.0101L135.506 87.0103L135.535 87.0153L135.538 87.0157L135.567 87.0206L135.569 87.0208L135.632 87.0313L135.635 87.0316L135.664 87.0366L135.666 87.037L135.76 87.053L135.763 87.0533L135.79 87.0582L135.794 87.0588L135.886 87.0749L135.891 87.0757L135.918 87.0801L135.921 87.0808L136.014 87.0972L136.017 87.0979L136.047 87.1031L136.048 87.1029L136.14 87.1198L136.146 87.1207L136.172 87.1253L136.175 87.1261L136.268 87.143L136.271 87.1436L136.301 87.1489L136.301 87.149L136.393 87.1663L136.398 87.1671L136.519 87.1899L136.523 87.1909L136.615 87.2084L136.618 87.2091L136.644 87.214L136.65 87.2152L136.678 87.2206L136.678 87.2205L136.741 87.2329L136.741 87.2329L136.771 87.2389L136.773 87.2394L136.896 87.2639L136.898 87.2641L136.991 87.283L136.991 87.2829L137.021 87.2894L137.022 87.2894C137.21 87.3278 137.393 87.3668 137.578 87.4075C140.305 87.9765 142.935 88.9354 145.389 90.2547L145.39 90.2553L145.483 90.3073L145.484 90.3077C146.874 91.0863 148.517 91.2807 150.051 90.848C151.585 90.4153 152.884 89.391 153.663 88.0005C154.441 86.6099 154.636 84.967 154.203 83.4331C153.77 81.8993 152.746 80.6001 151.355 79.8215C140.413 73.6941 124.784 72.697 107.347 77.0138C107.309 77.0233 107.272 77.0331 107.234 77.0433L107.194 77.054C107.124 77.0696 107.053 77.0865 106.983 77.1047L105.557 77.4752C105.511 77.4867 105.466 77.4985 105.42 77.5108L105.421 77.5108Z" fill="#3D180B"/>
<path d="M103.66 133.972C105.263 133.543 106.214 131.895 105.784 130.292C105.355 128.69 103.707 127.738 102.104 128.168C100.502 128.597 99.5503 130.245 99.9798 131.848C100.409 133.451 102.057 134.402 103.66 133.972Z" fill="#4D2100"/>
<path d="M91.6342 112.311C93.2371 111.881 94.1883 110.234 93.7588 108.631C93.3293 107.028 91.6817 106.077 90.0789 106.506C88.476 106.936 87.5248 108.583 87.9543 110.186C88.3838 111.789 90.0313 112.74 91.6342 112.311Z" fill="#69341C"/>
<path d="M131.126 120.392C135.934 119.103 138.788 114.161 137.5 109.352C136.211 104.544 131.269 101.69 126.46 102.979C121.652 104.267 118.798 109.21 120.087 114.018C121.375 118.827 126.317 121.68 131.126 120.392Z" fill="#69341C"/>
<path d="M123.35 91.3701C124.953 90.9406 125.904 89.2931 125.474 87.6902C125.045 86.0873 123.397 85.1361 121.794 85.5656C120.191 85.9951 119.24 87.6426 119.67 89.2455C120.099 90.8484 121.747 91.7996 123.35 91.3701Z" fill="#4D2100"/>
<path d="M71.5274 130.14C73.1302 129.711 74.0815 128.063 73.652 126.46C73.2225 124.857 71.5749 123.906 69.9721 124.336C68.3692 124.765 67.418 126.413 67.8475 128.016C68.2769 129.618 69.9245 130.57 71.5274 130.14Z" fill="#69341C"/>
<path d="M89.6623 81.7334C91.2652 81.3039 92.2164 79.6564 91.7869 78.0535C91.3574 76.4506 89.7099 75.4994 88.107 75.9289C86.5041 76.3584 85.5529 78.0059 85.9824 79.6088C86.4119 81.2117 88.0594 82.1629 89.6623 81.7334Z" fill="#4D2100"/>
<path d="M78.2618 97.2303C81.4674 96.3713 83.3697 93.0764 82.5108 89.8708C81.6519 86.6652 78.3569 84.7628 75.1513 85.6218C71.9457 86.4807 70.0434 89.7757 70.9023 92.9812C71.7612 96.1868 75.0562 98.0892 78.2618 97.2303Z" fill="#3D180B"/>
<path d="M81.6774 40.3252C84.883 39.4663 86.7853 36.1713 85.9264 32.9657C85.0674 29.7601 81.7725 27.8578 78.5669 28.7167C75.3613 29.5757 73.4589 32.8706 74.3179 36.0762C75.1768 39.2818 78.4718 41.1842 81.6774 40.3252Z" fill="#3D180B"/>
<path d="M99.5072 60.4319C102.713 59.573 104.615 56.278 103.756 53.0724C102.897 49.8668 99.6023 47.9645 96.3967 48.8234C93.1911 49.6824 91.2888 52.9773 92.1477 56.1829C93.0066 59.3885 96.3016 61.2909 99.5072 60.4319Z" fill="#4D2100"/>
</g>
<defs>
<clipPath id="clip0_1_4928">
<rect width="144.218" height="144.218" fill="white" transform="translate(0 37.3264) rotate(-15)"/>
</clipPath>
</defs>
</svg>
