<svg width="140" height="140" viewBox="0 0 140 140" fill="none" xmlns="http://www.w3.org/2000/svg">
<g clip-path="url(#clip0_1_4950)">
<path d="M62.0124 77.892C78.7562 94.0411 101.146 97.9919 112.021 86.7162C122.896 75.4405 118.139 53.2084 101.395 37.0592C84.6514 20.9101 62.2618 16.9593 51.3865 28.235C40.5113 39.5106 45.2687 61.7428 62.0124 77.892Z" fill="#5B2C06"/>
<path d="M108.614 84.4104C108.038 83.5546 107.166 82.9429 106.165 82.694C105.164 82.4451 104.107 82.5767 103.198 83.0633C98.2005 85.7377 90.8248 85.3784 82.9622 82.078C82.9327 82.0654 82.9033 82.0534 82.8737 82.0418C82.8447 82.0288 82.8154 82.0158 82.7859 82.0034C75.982 79.1111 69.3758 74.1626 64.1838 68.0701C62.8886 66.5525 61.6816 64.9618 60.5686 63.306C57.2792 58.3995 55.0966 53.2281 54.2565 48.3504C54.0692 47.263 53.4576 46.2945 52.5562 45.658C51.6548 45.0216 50.5376 44.7692 49.4501 44.9565C48.3627 45.1438 47.3943 45.7554 46.7578 46.6568C46.1213 47.5582 45.869 48.6754 46.0563 49.7628C46.0859 49.9355 46.1171 50.1087 46.1496 50.2821L46.1625 50.3514C46.1865 50.4782 46.2113 50.6054 46.2366 50.7326L46.2369 50.734L46.2507 50.8029C46.2551 50.8259 46.2598 50.8489 46.2644 50.8714L46.2649 50.8735L46.2789 50.942L46.2791 50.9424L46.2932 51.0111L46.2935 51.0128C46.2982 51.0352 46.3028 51.0582 46.3078 51.0807L46.3082 51.0828L46.3224 51.1505L46.3228 51.1525L46.3371 51.2204L46.3374 51.2219L46.3747 51.3948L46.375 51.396L46.3898 51.464L46.3903 51.4661L46.4052 51.5342L46.4057 51.536L46.4209 51.6043L46.4212 51.6057L46.4365 51.6741L46.4368 51.676L46.4523 51.7438L46.4528 51.7463L46.4684 51.814L46.4688 51.8161L46.4765 51.8497L46.4764 51.8499L46.4843 51.8841L46.4848 51.8862L46.4924 51.9186L46.4929 51.9206L46.5006 51.9542L46.5012 51.9566L46.5085 51.9874L46.5093 51.9913L46.517 52.0239L46.5177 52.027L46.5249 52.0581L46.5257 52.0611L46.5413 52.1274L46.5426 52.1322L46.5582 52.1978L46.5593 52.2022L46.5752 52.2679L46.576 52.2727L46.5922 52.3384L46.5934 52.343L46.6093 52.4089L46.6104 52.4129L46.6269 52.4795L46.6276 52.483L46.644 52.5492L46.6453 52.5543L46.6528 52.5844L46.6536 52.5872L46.6616 52.6203L46.6627 52.6241L46.6706 52.6554L46.6712 52.6573L46.6795 52.6908L46.6805 52.6943L46.688 52.7238L46.6891 52.7289L46.6977 52.7617L46.6981 52.7633C46.7004 52.7735 46.7033 52.784 46.7059 52.7942L46.707 52.7993L46.7156 52.8318L46.716 52.8342L46.724 52.865L46.7254 52.8699L46.7421 52.9347L46.7438 52.9407L46.7606 53.0057L46.762 53.0113L46.779 53.0758L46.7808 53.0824L46.7881 53.1108L46.7892 53.115L46.7977 53.1468L46.7993 53.1528L46.8072 53.182L46.808 53.1853L46.8166 53.2178L46.8179 53.2225L46.8259 53.2519L46.827 53.2564L46.8358 53.2887L46.8368 53.2932L46.8446 53.3222L46.8459 53.327L46.8545 53.3588L46.8564 53.365L46.8632 53.391L46.8655 53.3989L46.8739 53.4303L46.875 53.4341L46.8826 53.4619L46.8847 53.4696L46.8933 53.5009L46.8944 53.5047L46.9021 53.533L46.9041 53.5402L46.9129 53.5723L46.9131 53.5726L46.9218 53.6041L46.9237 53.6108L46.9326 53.6429L46.9328 53.6432L46.9413 53.6742L46.9436 53.6825L46.9613 53.7457L46.9633 53.7529L46.9715 53.7819L46.9723 53.7848L46.9814 53.817L46.9833 53.8233L46.9915 53.8523L46.9925 53.8556L47.0016 53.888L47.0033 53.8937L47.0115 53.9225L47.0129 53.9269L47.0218 53.9585L47.0238 53.9654L47.0317 53.9928L47.0332 53.9979L47.0423 54.03L47.0438 54.0351L47.0518 54.0628L47.0538 54.0693L47.063 54.1011L47.0643 54.1056L47.0723 54.1332L47.0744 54.1406L47.0837 54.172L47.0848 54.176L47.0931 54.2042L47.0953 54.2121L47.1043 54.243L47.106 54.2479L47.1136 54.274L47.1164 54.2834L47.1255 54.3142L47.1259 54.3158L47.1351 54.3463L47.1374 54.3539L47.1466 54.3853L47.1563 54.4175L47.1584 54.4246L47.1673 54.4538L47.1682 54.457L47.1777 54.4887L47.1799 54.4961L47.188 54.523L47.1895 54.5284C47.193 54.5392 47.1961 54.5493 47.1991 54.5602L47.2011 54.5659L47.2095 54.5943L47.2112 54.5996L47.2208 54.6314L47.2228 54.6376L47.231 54.6645L47.233 54.6711L47.2427 54.7026L47.2443 54.7079L47.2527 54.7354L47.255 54.7423L47.2647 54.7743L47.2658 54.7777L47.2745 54.8057L47.2771 54.8141L47.2866 54.8448L47.2882 54.8496L47.2965 54.8771L47.2992 54.8852L47.3088 54.9164L47.3097 54.9192L47.3187 54.948L47.3214 54.9565L47.3313 54.9879L47.3314 54.9883L47.3411 55.0189L47.344 55.0285L47.3536 55.0586L47.3539 55.0589L47.3637 55.0904L47.3664 55.0994L47.3755 55.1276L47.3764 55.1307L47.3866 55.1624L47.389 55.1702L47.3977 55.1972L47.3992 55.2023L47.4093 55.2333L47.4119 55.2414L47.4204 55.2681L47.4222 55.2737L47.4323 55.3048L47.4348 55.3125L47.4431 55.3388L47.4453 55.3452L47.4553 55.376L47.458 55.3845L47.466 55.409L47.4687 55.4172L47.4788 55.448L47.4806 55.4536L47.4896 55.481L47.4919 55.4879L47.5024 55.52L47.5033 55.5227L47.5133 55.5531L47.5151 55.5589L47.5259 55.5916L47.5265 55.5931L47.5364 55.6236L47.5389 55.6308L47.5494 55.6627L47.5502 55.6645L47.5601 55.6948L47.5627 55.7024L47.573 55.7333L47.5733 55.7343L47.584 55.7661L47.5866 55.7738L47.5956 55.8008L47.5975 55.8066L47.608 55.8376L47.6105 55.8455L47.6196 55.8721L47.6216 55.8778L47.632 55.9088L47.6348 55.9168L47.6434 55.9423L47.646 55.9499L47.6563 55.9804L47.6592 55.9885L47.6676 56.0136L47.6703 56.0212L47.6808 56.052L47.6834 56.0594L47.692 56.0848L47.6949 56.093L47.7055 56.1242L47.7074 56.1295L47.7167 56.1563L47.7194 56.1646L47.7302 56.1954L47.7322 56.2011L47.7413 56.2274L47.7444 56.2364L47.7554 56.2675L47.7562 56.2702L47.7665 56.2995L47.7692 56.3071C47.7728 56.3181 47.7764 56.3283 47.7803 56.3391L47.7805 56.3401L47.7912 56.3703L47.7945 56.3798L47.8043 56.4078L47.8056 56.4111L47.8163 56.4415L47.8199 56.4517L47.8285 56.4765L47.831 56.4833L47.8414 56.5129L47.8453 56.5239L47.8535 56.5466L47.8565 56.5554L47.8669 56.5848L47.8707 56.5947L47.8789 56.6179L47.8823 56.6274L47.8926 56.6564L47.8963 56.6665L47.9047 56.6898L47.9078 56.6983L47.9188 56.7287L47.9216 56.7372L47.9304 56.7608L47.9336 56.7705L47.9444 56.8003L47.9479 56.8093L47.9561 56.8321L47.9597 56.8424L47.9706 56.8722L47.9733 56.8798L47.9823 56.904L47.986 56.9142L47.9966 56.944L47.9994 56.951L48.0084 56.9755L48.0121 56.9857L48.0225 57.0142L48.0249 57.0205L48.035 57.0478L48.0385 57.0572L48.0487 57.0847L48.0501 57.0889L48.0614 57.1191L48.065 57.1289L48.0748 57.1552L48.0768 57.1607L48.0883 57.1917L48.0918 57.2004L48.1009 57.2253L48.1036 57.2329L48.1151 57.2632L48.1183 57.2716L48.128 57.2975L48.1304 57.3043L48.1421 57.335L48.1454 57.3438L48.1542 57.3675L48.1577 57.3765L48.1692 57.407L48.1719 57.4146L48.1817 57.4397L48.1848 57.4482L48.1966 57.4793L48.1989 57.4853L48.2086 57.5109L48.2122 57.5205L48.2238 57.5505L48.2264 57.5574L48.2361 57.5824L48.2399 57.5926L48.2514 57.6224L48.2538 57.6292L48.2633 57.6534L48.2675 57.6647L48.2781 57.692L48.2809 57.6996L48.2914 57.7259L48.2952 57.736L48.3062 57.7643L48.3072 57.7672L48.319 57.7975L48.323 57.808L48.3332 57.834L48.3353 57.8392L48.3475 57.8705L48.3507 57.8787L48.3608 57.9047L48.3635 57.9114L48.3752 57.9411L48.3792 57.9518L48.3885 57.9754L48.3917 57.9836L48.4034 58.0133L48.4075 58.0237L48.4166 58.0467L48.4201 58.0554L48.4318 58.0851L48.4359 58.0955L48.4447 58.1178L48.4488 58.1277L48.4605 58.1574L48.4641 58.1663L48.4733 58.1895L48.4775 58.1999C48.4815 58.2094 48.4853 58.2192 48.4891 58.2291L48.4928 58.2382L48.5022 58.2617L48.5063 58.2716L48.5182 58.3016L48.5211 58.3087L48.5311 58.3334L48.5351 58.3432L48.546 58.3704L48.5501 58.3803L48.56 58.4049L48.5645 58.4158L48.5755 58.4427L48.577 58.4468L48.5891 58.4767L48.5937 58.4877L48.6027 58.5103L48.607 58.5201L48.6186 58.549L48.6227 58.5594L48.6325 58.5831L48.6358 58.5912L48.6481 58.6215L48.6518 58.6305L48.6617 58.6544L48.6655 58.6635L48.6776 58.6931L48.6818 58.7029L48.6912 58.7257L48.6954 58.7354L48.7073 58.7647L48.7119 58.7757L48.7204 58.7961L48.7254 58.8085L48.7374 58.837L48.7416 58.8467L48.7505 58.8686L48.755 58.8797L48.7674 58.909L48.7711 58.918L48.7807 58.9407L48.7856 58.9522L48.7978 58.9816L48.8006 58.9883L48.8111 59.013L48.8154 59.0233L48.8268 59.0508L48.8308 59.0599L48.8412 59.0846L48.8461 59.0961L48.8573 59.1222L48.8592 59.1272L48.8721 59.1569L48.8762 59.1673L48.8868 59.1919L48.89 59.1994L48.9026 59.229L48.9072 59.2397L48.9172 59.2631L48.9205 59.2714L48.9332 59.3009L48.9378 59.3113L48.9478 59.3346L48.9515 59.3436L48.964 59.3728L48.969 59.3838L48.9786 59.4062L48.9824 59.4154L48.9953 59.445L48.9998 59.4552L49.0093 59.4774L49.014 59.4879L49.0266 59.5173L49.0308 59.5271L49.0406 59.5494L49.0451 59.5596L49.0579 59.5892L49.0618 59.5981L49.072 59.6214L49.0769 59.6322C49.0809 59.6417 49.0848 59.651 49.089 59.6602L49.0937 59.6706L49.1032 59.6929L49.1084 59.704L49.12 59.7308L49.1243 59.7408L49.1351 59.765L49.1401 59.7762L49.1515 59.8024L49.1543 59.8083L49.167 59.8373L49.1719 59.8481L49.1824 59.8723L49.1858 59.8798L49.1989 59.9091L49.2042 59.9208L49.2132 59.9413L49.2183 59.9524L49.231 59.9812L49.2358 59.9919L49.2461 60.0148L49.2502 60.0242L49.2636 60.054L49.2678 60.0634L49.2783 60.0867L49.2825 60.0961L49.2959 60.126L49.3001 60.135L49.3106 60.1584L49.315 60.1684L49.3286 60.1985L49.3322 60.206L49.3429 60.23L49.3476 60.2405L49.3612 60.2703L49.3646 60.2775L49.3761 60.3026L49.3802 60.3123L49.3942 60.3426L49.3969 60.3488L49.4086 60.3738L49.4135 60.3846L49.4266 60.4134L49.4294 60.4197L49.4415 60.4461L49.4464 60.4569L49.4591 60.4843L49.4607 60.4877L49.4744 60.5175L49.4798 60.5292L49.4909 60.5534L49.4941 60.5602L49.5082 60.5907L49.5128 60.6005L49.5239 60.6243L49.5277 60.6325L49.5413 60.6619L49.5461 60.6725L49.5573 60.6963L49.5611 60.7047L49.575 60.7342L49.5797 60.7447L49.5906 60.7679L49.5946 60.7764L49.6088 60.8064L49.6133 60.8162L49.6242 60.8395L49.6286 60.8488L49.6428 60.8791L49.6468 60.8872L49.658 60.9112L49.6627 60.921L49.6767 60.951L49.6803 60.9585L49.6923 60.9833L49.6967 60.9931L49.7111 61.0233L49.7142 61.0301L49.726 61.0546L49.7309 61.0654L49.7428 61.0903L49.7495 61.1037L49.7599 61.1263L49.7655 61.1378L49.7778 61.1631L49.7815 61.171L49.7946 61.1986L49.8 61.21L49.8111 61.2328L49.8152 61.2413L49.8296 61.2712L49.8345 61.2813L49.8459 61.3053L49.8497 61.3131L49.8644 61.3434L49.8688 61.3524L49.8805 61.3769L49.8846 61.3855L49.8993 61.4155L49.9035 61.4245L49.9153 61.4485L49.9196 61.4573L49.9342 61.4875L49.9385 61.4963L49.9503 61.5206L49.9548 61.5293L49.9698 61.5601L49.973 61.5666L49.9855 61.5923L49.9899 61.6013L50.0049 61.6321L50.0081 61.6382L50.0209 61.6644L50.0252 61.6732L50.0406 61.7047L50.0423 61.7078L50.0568 61.7372L50.0602 61.7444L50.0763 61.7768L50.0769 61.7778L50.0918 61.8084L50.0963 61.8171L50.1278 61.8806L50.1319 61.8888L50.146 61.9169L50.1479 61.9211L50.1636 61.9521L50.1682 61.9615L50.1811 61.9873L50.1841 61.9933L50.1995 62.024L50.204 62.033L50.2166 62.0582L50.2204 62.0657L50.2357 62.0961L50.2401 62.1048L50.2527 62.13L50.2566 62.1375L50.272 62.1678L50.2767 62.1773L50.2882 62.2001L50.2935 62.2104L50.3085 62.2398L50.3132 62.2493L50.3249 62.2722L50.3298 62.2821L50.3453 62.3121L50.3489 62.3197L50.3617 62.3443L50.3667 62.3543L50.3819 62.384L50.3856 62.3916L50.3984 62.4162L50.4034 62.4258L50.419 62.4564L50.4215 62.4612L50.4351 62.4878L50.4405 62.4983L50.4547 62.5261L50.4569 62.5301L50.4725 62.5604L50.4774 62.5698L50.4907 62.5956L50.494 62.6019L50.5097 62.6324L50.5145 62.6417L50.527 62.6659L50.5314 62.6742L50.547 62.7044L50.5516 62.7131L50.5648 62.7383L50.5687 62.746L50.5844 62.776L50.5897 62.7859L50.6013 62.8082L50.6066 62.8182L50.6222 62.8482L50.6271 62.8571L50.6392 62.8805L50.6444 62.8903L50.6602 62.9206L50.6641 62.9278L50.6769 62.9521L50.6821 62.962L50.6982 62.9926L50.7016 62.9992L50.7151 63.0245L50.7201 63.034L50.7364 63.0646L50.739 63.0697L50.7529 63.096L50.7582 63.1059L50.7745 63.1365L50.7767 63.1406L50.7915 63.1683L50.7964 63.1777L50.8119 63.2063L50.8136 63.2099L50.8297 63.2399L50.8349 63.2498L50.8493 63.2765L50.8519 63.2814L50.8684 63.3121L50.8736 63.3218L50.8868 63.3465L50.8906 63.3536L50.9064 63.3827L50.9127 63.3946L50.9245 63.4163L50.93 63.4263L50.9456 63.4552L50.9515 63.4661L50.9633 63.4879L50.9687 63.498L50.9845 63.5268L50.9904 63.5381L51.0021 63.5594L51.0078 63.5701L51.0238 63.5995L51.0289 63.6088L51.0413 63.6315L51.0469 63.6416L51.0631 63.6714L51.0676 63.6796L51.0811 63.7042L51.086 63.7133L51.1028 63.7436L51.1063 63.7502L51.1202 63.7756L51.1256 63.7853L51.1407 63.8128L51.1463 63.8229L51.1595 63.8467L51.1654 63.8577L51.1806 63.8849L51.1834 63.8901L51.1993 63.9186L51.2053 63.9294L51.2185 63.9534L51.2228 63.9611L51.2392 63.9909L51.2449 64.0007L51.2589 64.0258L51.2624 64.0324L51.2795 64.0628L51.2844 64.0719L51.2983 64.0964L51.3029 64.1048L51.3196 64.1349L51.3246 64.1438L51.3383 64.168L51.3428 64.1762L51.3597 64.2062L51.3652 64.2159L51.3778 64.2382L51.3837 64.2491L51.4001 64.2782L51.4056 64.2877L51.418 64.3097L51.4243 64.3209L51.4406 64.3497L51.4461 64.3594L51.4586 64.3815L51.465 64.3927L51.4815 64.422L51.4858 64.4295L51.4996 64.4535L51.5053 64.4638L51.5221 64.4934L51.5259 64.4998L51.5402 64.5249L51.5468 64.5365L51.5617 64.5626L51.5654 64.5691L51.5813 64.5967L51.5877 64.608L51.6016 64.6322L51.6054 64.639L51.6227 64.669L51.6286 64.6791L51.6429 64.704L51.6467 64.7107L51.6641 64.7408L51.6698 64.7504L51.6839 64.7749L51.6883 64.7826L51.7057 64.8127L51.711 64.822L51.7254 64.8471L51.7295 64.8538L51.7474 64.8847L51.752 64.8927L51.7664 64.9176L51.7715 64.9259L51.7891 64.9564L51.7937 64.9643L51.808 64.9888L51.8132 64.9977L51.8312 65.0279L51.8349 65.0348L51.85 65.0606L51.8552 65.0693L51.8731 65.0996L51.877 65.1064L51.892 65.1323L51.8971 65.1406L51.9152 65.1714L51.9181 65.1765L51.9342 65.204L51.9392 65.2121L51.9576 65.2432L51.9581 65.2438L51.9764 65.275L51.9818 65.2841L51.9977 65.311L52.0006 65.316L52.0189 65.3468L52.0241 65.3557L52.0392 65.381L52.0433 65.3877L52.0612 65.4179L52.0667 65.4269L52.0817 65.4521L52.0862 65.4594L52.1042 65.4898L52.1095 65.4985L52.124 65.5228L52.1289 65.5312C52.1352 65.5413 52.1412 65.5512 52.1471 65.5615L52.152 65.5695L52.1669 65.5941L52.172 65.6029L52.1903 65.6333L52.1948 65.6407L52.2093 65.6647L52.2153 65.6748L52.2335 65.7047L52.2376 65.7115L52.253 65.7369L52.2585 65.7459L52.2768 65.7763L52.2804 65.7824L52.2961 65.808L52.3017 65.8174L52.3204 65.848L52.3228 65.8519L52.3396 65.8795L52.3452 65.8889L52.3634 65.9185L52.3647 65.9207L52.3827 65.9504L52.3891 65.9607L52.4054 65.9874L52.4084 65.9919L52.4271 66.0226L52.4328 66.0317L52.4485 66.0576L52.4524 66.0634C52.4584 66.0739 52.4644 66.0835 52.4708 66.0937L52.4765 66.1029L52.4921 66.1283L52.4961 66.135L52.5149 66.1651L52.5205 66.1745L52.5357 66.1989L52.5404 66.2063L52.559 66.2365L52.5648 66.2458L52.5794 66.2694L52.5848 66.2782L52.6038 66.3086L52.6084 66.3161L52.6239 66.341L52.629 66.3493L52.6482 66.3801L52.652 66.386L52.6687 66.4128L52.6735 66.4206L52.693 66.4517L52.6958 66.4559L52.7131 66.4838L52.7183 66.492L52.7376 66.5228L52.7407 66.5275L52.7578 66.5548L52.763 66.5632L52.8028 66.626L52.8079 66.6343L52.8256 66.6622L52.8283 66.6665L52.8479 66.6975L52.853 66.7058L52.8695 66.7318L52.8736 66.738L52.8929 66.7685L52.8984 66.777L52.914 66.8017L52.9191 66.8096L52.9381 66.8394L52.944 66.8486L52.9595 66.8731L52.9641 66.8804L52.9839 66.9113L52.9886 66.9187L53.0048 66.9438L53.01 66.952L53.0297 66.9827L53.0339 66.9893L53.0502 67.0147L53.0557 67.0232L53.0753 67.0538L53.0793 67.0598L53.096 67.0857L53.1017 67.0946L53.1215 67.1252L53.1244 67.1296L53.1422 67.1575L53.1472 67.165L53.1676 67.1964L53.1697 67.1995C53.1756 67.2091 53.1815 67.2183 53.1879 67.2278L53.1938 67.2369L53.2342 67.299L53.2398 67.3077L53.2577 67.3351L53.2607 67.3395L53.2805 67.3701L53.2865 67.379L53.3036 67.4055L53.3068 67.4104L53.3269 67.4411L53.3328 67.4498L53.3495 67.4755L53.3537 67.4818L53.3738 67.5125L53.3793 67.5206L53.3959 67.546L53.4003 67.5527L53.4205 67.5835L53.4257 67.5913L53.4423 67.6164L53.4475 67.6241L53.4675 67.6546L53.4891 67.6869L53.4944 67.6951L53.5147 67.7258L53.5361 67.7577L53.5418 67.7666L53.5664 67.8032L53.5834 67.8289L53.6573 67.9392C54.9478 69.8607 56.3479 71.7063 57.8506 73.4669L57.8709 73.4909L57.8773 73.4983L57.8914 73.5147L57.8991 73.5238L57.9126 73.5394L57.9197 73.5479L57.9327 73.5631L57.9412 73.5729L57.9563 73.5905L57.961 73.5962L57.9808 73.6191L57.989 73.6289L58.0014 73.6431L58.0106 73.6541L58.0212 73.6663L58.0315 73.6781L58.0422 73.6907L58.0517 73.7017L58.0631 73.7152L58.0756 73.7296L58.091 73.7474L58.1013 73.7592L58.1112 73.7707L58.1222 73.7837L58.1318 73.7945L58.1422 73.8065L58.1525 73.8184L58.1631 73.8308L58.1716 73.8406L58.2155 73.8914L58.2215 73.8982L58.2347 73.9133L58.2417 73.9213L58.2542 73.9357L58.262 73.945L58.2744 73.9592L58.281 73.9666L58.3278 74.0204L58.3323 74.0256L58.3465 74.0419L58.3526 74.0489L58.366 74.0641L58.3725 74.0717L58.3864 74.0875L58.3908 74.0925L58.4382 74.1465L58.4446 74.1539L58.4578 74.169L58.464 74.1759L58.4782 74.1922L58.4837 74.1983L58.4982 74.2149L58.5029 74.2202L58.5724 74.299L58.575 74.3019L58.5906 74.3195L58.5953 74.3252L58.6105 74.3422L58.6141 74.3462L58.6849 74.4262L58.6872 74.4286L58.7032 74.4468L58.7072 74.4511L58.7236 74.4695L58.725 74.4714L58.7981 74.5534L58.7995 74.5548L58.8158 74.5732L58.8195 74.5773L58.8356 74.5954L58.839 74.599L58.8554 74.6176L58.8558 74.618L58.9299 74.7006L58.9316 74.7024L58.9494 74.722L58.9503 74.7233L59.0429 74.826L59.045 74.8281L59.0629 74.8478L59.0633 74.8485C64.4427 80.7991 70.7203 85.4525 77.1522 88.5779L77.153 88.5781L77.1749 88.5887L77.1757 88.5891L77.2626 88.6313L77.2668 88.6333L77.2861 88.6426L77.2903 88.6445L77.3094 88.6538L77.3135 88.6557C77.3408 88.6688 77.3687 88.6821 77.396 88.6955L77.403 88.6988L77.4202 88.707L77.4269 88.71L77.4438 88.7184L77.4513 88.7218L77.4687 88.7303L77.4708 88.7313L77.5311 88.7601L77.5387 88.7637L77.5552 88.7714L77.5628 88.775L77.5787 88.7827L77.5876 88.7868L77.6035 88.7944L77.6121 88.7985L77.6271 88.8054L77.6403 88.8118L77.6632 88.8225L77.6755 88.8283L77.6869 88.8338L77.7012 88.8407L77.711 88.8452L77.7281 88.8532L77.7367 88.8573L77.7536 88.8652L77.7621 88.8692L77.7862 88.8807L77.7929 88.8837L77.8122 88.8928L77.8203 88.8965L77.8374 88.9046L77.8459 88.9085L77.8632 88.9167L77.872 88.9208L77.8939 88.931L77.896 88.932L77.9224 88.9444L77.924 88.9451L77.9479 88.9561L77.9546 88.9591L77.9727 88.9676L77.9809 88.9715L78.0004 88.9806L78.0059 88.9832L78.0308 88.9947L78.1115 89.0321L78.1124 89.0325L78.1378 89.0441L78.1399 89.045L78.2466 89.0939L78.2478 89.0946L78.4094 89.1682C78.7849 89.3384 79.1603 89.5034 79.5356 89.663C79.5693 89.6772 79.6026 89.6908 79.6365 89.7042C79.6675 89.7182 79.6988 89.7319 79.7304 89.7453C82.3054 90.8363 84.975 91.6888 87.7058 92.292L87.7071 92.2923L87.7326 92.2978L87.734 92.298L87.7593 92.3036L87.7612 92.304L87.786 92.3094L87.7879 92.3098L87.8125 92.3151L87.8152 92.3156C87.9133 92.3368 88.0083 92.3566 88.1062 92.3769L88.1083 92.3774L88.1313 92.3822L88.1362 92.3831L88.1586 92.3879L88.1631 92.3886L88.1849 92.3932L88.1909 92.3944L88.2122 92.3989L88.2176 92.3999L88.2393 92.4042L88.2449 92.4053L88.2667 92.4097L88.2708 92.4105L88.2941 92.4153L88.2968 92.4158L88.3212 92.4206L88.3232 92.4212L88.3479 92.4262L88.3485 92.4263L88.4524 92.4468L88.4551 92.4473L88.4793 92.4522L88.482 92.4528L88.505 92.4573L88.509 92.4581L88.5301 92.4623L88.5373 92.4636L88.5555 92.4671L88.5652 92.4691L88.5833 92.4726L88.5921 92.4742L88.6105 92.4779L88.6192 92.4796L88.6381 92.4833L88.6469 92.4847L88.6644 92.4882L88.6747 92.4902L88.6927 92.4937L88.7003 92.4952L88.72 92.4989L88.7265 92.5002L88.7476 92.5041L88.7503 92.5046L88.7745 92.5091L88.7772 92.5096L88.852 92.5238L88.8547 92.5243L88.8734 92.5278L88.8827 92.5295L88.9007 92.5327L88.9096 92.5345L88.9273 92.5378L88.9372 92.5397L88.9546 92.5428L88.9645 92.5446L88.9814 92.5478L88.9926 92.5497L89.0079 92.5526L89.0204 92.5548L89.0355 92.5576L89.0481 92.56L89.0627 92.5626L89.0755 92.5648L89.0899 92.5674L89.1047 92.5702L89.117 92.5725L89.1325 92.5752L89.1447 92.5774L89.162 92.5803L89.1719 92.5822L89.1949 92.5864L89.1994 92.5872L89.2273 92.592L89.2306 92.5928L89.2547 92.5971L89.2635 92.5984L89.2824 92.6017L89.2922 92.6036L89.3099 92.6066L89.3217 92.6088L89.3373 92.6114L89.349 92.6134L89.3649 92.6162L89.3769 92.6182L89.3925 92.6209L89.4045 92.623L89.4199 92.6258L89.4324 92.6279L89.4477 92.6304L89.4595 92.6326L89.4754 92.6353L89.4872 92.6372L89.504 92.6401L89.5143 92.6418L89.5322 92.6447L89.5419 92.6463L89.5621 92.6497L89.5693 92.651L89.5913 92.6548L89.597 92.6556L89.6528 92.665L89.6562 92.6655L89.6807 92.6695L89.6863 92.6704L89.708 92.674L89.7159 92.6753L89.7362 92.6786L89.7432 92.6797L89.7633 92.683L89.7725 92.6845L89.791 92.6876L89.7996 92.6889L89.8192 92.6922L89.8271 92.6934L89.8469 92.6966L89.8556 92.6978L89.8733 92.7007L89.8838 92.7024L89.9023 92.7055L89.9107 92.7067C89.9185 92.7078 89.9244 92.709 89.9321 92.7099L89.9377 92.7109L89.9621 92.7147L89.9653 92.7154L90.1058 92.7372L90.1077 92.7373L90.1338 92.7412L90.1364 92.7418L90.1615 92.7456L90.1654 92.7463L90.1889 92.7498L90.194 92.7504L90.2168 92.7539L90.2223 92.7548L90.245 92.7582L90.2497 92.7588L90.2729 92.7623L90.278 92.7629L90.3002 92.7663L90.3059 92.7671L90.3283 92.7704L90.3336 92.7713C90.4078 92.7822 90.4827 92.793 90.5567 92.8032L90.5604 92.8038L90.585 92.8073L90.5881 92.8076L90.6122 92.8111L90.6169 92.8117L90.6402 92.8149L90.6448 92.8156L90.6682 92.8189L90.6723 92.8194L90.6971 92.8228L90.7001 92.8231L90.725 92.8266L90.7279 92.827C90.8218 92.8397 90.9144 92.852 91.0081 92.8641L91.0088 92.8641C93.604 93.2121 96.2323 93.2373 98.8337 92.9391C98.9553 92.9244 99.0765 92.909 99.1971 92.8928L99.1977 92.8926L99.2225 92.8893L99.2238 92.8892L99.2472 92.8859L99.2507 92.8855L99.2735 92.8824L99.2756 92.8821L99.2995 92.8788L99.3012 92.8786L99.3255 92.8752L99.327 92.8749L99.3514 92.8715L99.3525 92.8714L99.5067 92.8493L99.5082 92.849L99.5319 92.8455L99.5351 92.845L99.5565 92.8419L99.5622 92.841L99.5823 92.838L99.587 92.8373L99.6077 92.8342L99.6129 92.8335L99.6326 92.8304L99.6384 92.8296L99.6575 92.8266L99.6642 92.8257L99.6839 92.8228L99.6887 92.8219L99.7101 92.8188L99.7138 92.818L99.7378 92.8143L99.7387 92.8142L99.8657 92.7943L99.8711 92.7933L99.8911 92.7902L99.8963 92.7891L99.9157 92.7862L99.9228 92.7849L99.9411 92.7821L99.9481 92.7809L99.9656 92.778L99.9735 92.7768L99.9909 92.7738L99.9988 92.7725L100.015 92.7697L100.024 92.7684L100.041 92.7654L100.049 92.7641L100.065 92.7614L100.074 92.76C100.079 92.7589 100.086 92.7579 100.091 92.7571L100.099 92.7557L100.117 92.7527L100.124 92.7516L100.146 92.7476L100.148 92.7472L100.199 92.7386L100.203 92.7378L100.223 92.7343L100.232 92.7329C100.237 92.7317 100.242 92.7308 100.248 92.73L100.258 92.7282L100.272 92.7254L100.283 92.7237L100.297 92.7213L100.308 92.7194L100.322 92.7169L100.333 92.7149L100.346 92.7125L100.357 92.7106L100.371 92.708L100.382 92.7059L100.396 92.7034L100.407 92.7016L100.421 92.699L100.432 92.697L100.446 92.6944L100.456 92.6925L100.47 92.6899L100.481 92.688L100.497 92.6849L100.505 92.6835L100.525 92.6798L100.53 92.6788L100.555 92.6741L100.556 92.6738L100.579 92.6695L100.589 92.6678L100.604 92.6647L100.614 92.663L100.628 92.6603L100.639 92.6582L100.653 92.6555L100.665 92.6532C100.669 92.6527 100.672 92.6518 100.676 92.6509L100.689 92.6485L100.701 92.6462L100.714 92.6437L100.726 92.6414L100.738 92.6389L100.75 92.6366L100.763 92.6341L100.774 92.6319C100.778 92.631 100.783 92.6301 100.787 92.6293L100.798 92.6272L100.812 92.6243L100.822 92.6224L100.836 92.6195L100.846 92.6176L100.861 92.6145L100.866 92.6134L100.929 92.6008L100.932 92.6001L100.952 92.5963L100.956 92.5952L100.974 92.5916L100.98 92.5903L100.997 92.5868L101.005 92.5853L101.021 92.5821L101.029 92.5803L101.045 92.5768L101.053 92.5754L101.069 92.5719L101.077 92.5704C101.082 92.569 101.088 92.5679 101.094 92.5667L101.101 92.5652L101.117 92.5619L101.125 92.5601L101.142 92.5566L101.148 92.5552L101.166 92.5514L101.172 92.5501L101.19 92.5461L101.193 92.5455L101.214 92.5411L101.216 92.5406L101.306 92.521L101.308 92.5206L101.327 92.5164L101.332 92.5152L101.35 92.5115L101.356 92.5098L101.375 92.5059L101.38 92.5049L101.398 92.5008L101.404 92.4994L101.422 92.4953L101.427 92.4941L101.446 92.49L101.451 92.4887L101.469 92.4845L101.474 92.4833L101.493 92.4792L101.498 92.4783C101.505 92.4763 101.51 92.4754 101.517 92.4736L101.52 92.4731C101.527 92.4715 101.534 92.4697 101.541 92.4684L101.542 92.4679C101.597 92.4554 101.65 92.443 101.704 92.4301L101.704 92.4299L101.726 92.4249L101.728 92.4244L101.749 92.4195L101.752 92.4187L101.772 92.4138L101.775 92.4132C101.783 92.4111 101.788 92.41 101.796 92.4081L101.799 92.4075C101.806 92.4057 101.811 92.4046 101.819 92.4025L101.822 92.4019L101.843 92.3969L101.845 92.3964C101.853 92.3944 101.859 92.3928 101.867 92.3911L101.868 92.3908C101.96 92.3681 102.052 92.3453 102.144 92.3216L102.145 92.3213C103.88 91.8816 105.556 91.2341 107.137 90.3928C108.105 89.8699 108.827 88.9844 109.145 87.9302C109.462 86.876 109.348 85.7391 108.829 84.7685C108.762 84.6444 108.691 84.525 108.614 84.4104Z" fill="#3D180B"/>
<path d="M58.7692 74.764C71.5264 87.0682 88.1722 90.5068 95.9484 82.4442C103.725 74.3817 99.6867 57.8711 86.9294 45.5669C74.1721 33.2626 57.5264 29.8241 49.7502 37.8866C41.974 45.9492 46.0119 62.4598 58.7692 74.764Z" fill="#69341C"/>
<path d="M90.2152 55.9075C89.2169 54.4233 88.1301 53.0006 86.9606 51.6473L86.946 51.6303L86.943 51.6269C84.4889 48.7849 81.6971 46.2531 78.6295 44.0875C78.1829 43.7729 77.6786 43.5493 77.1455 43.4296C76.6124 43.3099 76.061 43.2964 75.5227 43.3898C74.9844 43.4832 74.4697 43.6817 74.0081 43.974C73.5465 44.2663 73.147 44.6466 72.8324 45.0933C72.5178 45.54 72.2943 46.0443 72.1746 46.5774C72.0549 47.1105 72.0413 47.6619 72.1347 48.2002C72.3234 49.2874 72.9362 50.2551 73.8383 50.8905C76.3567 52.6671 78.6475 54.7462 80.6592 57.0812C81.6095 58.1803 82.4927 59.3356 83.304 60.5408C83.9184 61.4573 84.8718 62.0922 85.9543 62.3058C87.0368 62.5194 88.1598 62.2942 89.0763 61.6797C89.9928 61.0653 90.6276 60.112 90.8412 59.0295C91.0548 57.947 90.8296 56.8239 90.2152 55.9075Z" fill="#764126"/>
<path d="M47.0837 51.4837C46.6238 50.7937 46.3053 50.0193 46.1467 49.2054C45.9881 48.3915 45.9925 47.5542 46.1597 46.742C46.3222 45.9416 46.6416 45.1813 47.0994 44.505C47.5573 43.8286 48.1446 43.2497 48.8274 42.8015C50.2146 41.8906 51.9065 41.5673 53.5318 41.9025C65.7687 44.4646 78.0884 52.0828 87.2668 62.8586C91.2778 67.5038 94.5847 72.713 97.0816 78.3194C97.7423 79.8418 97.7718 81.5642 97.1635 83.1083C96.5553 84.6525 95.359 85.8921 93.8375 86.5549C90.7257 87.8925 86.9955 86.4362 85.6584 83.3218C83.6279 78.8551 80.9759 74.698 77.7812 70.9739C70.4896 62.3376 60.4579 56.0421 51.0023 54.1149C50.2071 53.9587 49.451 53.6455 48.7781 53.1938C48.1053 52.742 47.5293 52.1607 47.0837 51.4837Z" fill="#4D2100"/>
<path d="M100.581 48.9564C99.3024 47.0532 97.9096 45.2289 96.4107 43.4934C91.438 37.7285 85.3913 32.9744 78.9241 29.7448C77.9369 29.2519 76.7943 29.1713 75.7476 29.5208C74.701 29.8703 73.8361 30.6212 73.3431 31.6084C72.8502 32.5956 72.7696 33.7382 73.1191 34.7849C73.4686 35.8315 74.2195 36.6964 75.2068 37.1894L75.208 37.1899L75.2364 37.2042L75.2403 37.2061L75.2677 37.2197L75.2693 37.2207L75.2988 37.2352L75.3015 37.2369C75.3118 37.2417 75.3205 37.2462 75.3306 37.2515L75.3309 37.2517C75.3412 37.2565 75.3506 37.2615 75.3607 37.2667L75.3634 37.2679L75.4224 37.2977L75.4253 37.2992L75.4848 37.3295L75.4869 37.3305L75.5469 37.3609L75.5485 37.3619L75.609 37.3926L75.6103 37.3935L75.6708 37.4246L75.6722 37.4253L75.7017 37.4405L75.7046 37.4421L75.7322 37.4562L75.7344 37.4574L75.7639 37.4728L75.766 37.4737L75.8258 37.5048L75.8277 37.5058L75.8875 37.5369L75.89 37.5382L75.9486 37.5689L75.9522 37.5708L76.0116 37.6019L76.0132 37.6029L76.0726 37.634L76.0755 37.6356L76.1348 37.6669L76.1371 37.6682L76.1958 37.6995L76.1993 37.7012L76.2285 37.7168L76.2297 37.7174L76.2583 37.7328L76.2607 37.734L76.2902 37.7499L76.2916 37.7506L76.352 37.7829L76.3536 37.7839L76.4135 37.8161L76.4156 37.8172L76.4753 37.8495L76.4772 37.8506L76.537 37.8831L76.5391 37.884L76.5983 37.9164L76.6011 37.9181L76.6306 37.934L76.6313 37.9344L76.6601 37.9504L76.6626 37.9517L76.6918 37.9676L76.6942 37.969L76.722 37.9842L76.7242 37.9853L76.7536 38.0015L76.7555 38.0026L76.7842 38.0186L76.7856 38.0193L76.8155 38.0358L76.8167 38.0365C76.8361 38.0472 76.8575 38.0589 76.8766 38.0698L76.8793 38.0711L76.9374 38.1035L76.942 38.106L76.9989 38.1378L77.0035 38.1404L77.0604 38.1724L77.065 38.175L77.1228 38.2074L77.1257 38.2089L77.1553 38.2257L77.1555 38.2261L77.1826 38.2412L77.1883 38.2445L77.2163 38.2602L77.2188 38.2616L77.2447 38.2764L77.2496 38.2792L77.2774 38.2951L77.2807 38.2969L77.3073 38.3119L77.3103 38.3137L77.3389 38.3301L77.3421 38.3317L77.3705 38.3482L77.3712 38.3484L77.4006 38.3653L77.4034 38.367L77.4625 38.4009L77.4643 38.402L77.5237 38.4362L77.5262 38.4375L77.5847 38.4715L77.5881 38.4735L77.6461 38.5071L77.6496 38.5091L77.678 38.5256L77.6807 38.5272L77.7074 38.5428L77.7112 38.545L77.7399 38.5619L77.741 38.5625L77.7701 38.5797L77.7714 38.5802L77.8006 38.5975L77.8039 38.5993L77.8308 38.6151L77.8334 38.6166L77.8618 38.6335L77.8656 38.6356L77.8927 38.6515L77.8945 38.6527L77.9224 38.6692L77.9276 38.6723L77.9841 38.7058L77.9886 38.7084L78.0445 38.7416L78.0505 38.7453L78.1066 38.7786L78.1111 38.7814L78.1393 38.7982L78.1404 38.7989L78.1663 38.8144L78.1732 38.8184L78.2 38.8345L78.2036 38.8368L78.2284 38.8517L78.2338 38.8548L78.2614 38.8715L78.264 38.8733L78.2894 38.8885L78.2948 38.8919C78.3032 38.8968 78.3134 38.9029 78.3217 38.9082L78.3268 38.9113L78.3508 38.9257L78.356 38.9288L78.3828 38.9451L78.3883 38.9485L78.4124 38.9633L78.4166 38.9657L78.4432 38.9819L78.4499 38.986L78.4738 39.0006L78.4777 39.0029L78.5044 39.0193L78.5114 39.0235L78.535 39.038L78.539 39.0404L78.5652 39.0564L78.572 39.0606L78.5981 39.0767L78.602 39.079L78.6259 39.0937L78.6335 39.0985L78.6592 39.1143L78.6645 39.1176L78.6869 39.1315L78.6939 39.1357L78.7201 39.1519L78.7255 39.1554L78.7483 39.1694L78.7549 39.1737L78.7805 39.1894L78.7878 39.1941L78.8085 39.2068L78.8158 39.2113L78.841 39.2272L78.8494 39.2324L78.8687 39.2444L78.8772 39.2497L78.9015 39.2649L78.911 39.271L78.9294 39.2823L78.9376 39.2876C78.9454 39.2923 78.9544 39.298 78.9619 39.3028L78.9714 39.3089L78.9914 39.3213L78.9983 39.3256L79.0227 39.3409L79.0328 39.3473L79.0533 39.3603L79.0606 39.3649L79.083 39.3791L79.0934 39.3855L79.1132 39.3982L79.1253 39.4058L79.1437 39.4174L79.1541 39.4242L79.1784 39.4394L79.1847 39.4436L79.205 39.4563L79.214 39.462L79.2386 39.4777L79.2468 39.483L79.265 39.4947L79.2752 39.5011L79.2995 39.5167L79.307 39.5216L79.3268 39.5341L79.3349 39.5395L79.3596 39.5553L79.368 39.5607L79.3871 39.5728L79.3959 39.5786L79.4201 39.5941L79.4293 39.6001L79.4477 39.612L79.4561 39.6176C79.4636 39.6222 79.4726 39.6282 79.4799 39.6329L79.4903 39.6395L79.5077 39.6509L79.5192 39.6582L79.5412 39.6724L79.5504 39.6784L79.5696 39.6909L79.582 39.699L79.6006 39.7109L79.6114 39.718L79.6287 39.7294L79.6453 39.7401L79.6607 39.7502L79.6721 39.7576L79.6955 39.7729L79.704 39.7787L79.7214 39.7899L79.7323 39.7971L79.7533 39.8109L79.7661 39.8195L79.7812 39.8293L79.7932 39.837L79.8152 39.8516L79.8269 39.8593L79.8417 39.8691L79.8528 39.8762L79.8752 39.8912L79.8872 39.8992L79.9018 39.9088L79.9133 39.9164L79.9359 39.9313L79.9471 39.9388L79.9629 39.9494L79.9734 39.9564L79.9958 39.9712L80.0072 39.9788L80.0235 39.9895L80.0382 39.9994L80.0557 40.0111L80.0681 40.0192L80.0832 40.0295L80.101 40.0413L80.1152 40.0508L80.1287 40.0598L80.144 40.07L80.1609 40.0812C80.1657 40.0848 80.1711 40.0884 80.1761 40.0917L80.1883 40.1L80.2053 40.1113L80.2225 40.123L80.2352 40.1314L80.2486 40.1405L80.2673 40.1531L80.2824 40.1634L80.2955 40.1724L80.3086 40.1811L80.3303 40.1959L80.3428 40.2041L80.355 40.2124L80.3691 40.222L80.3895 40.236L80.4034 40.2455L80.415 40.2532L80.4347 40.2665L80.4495 40.2768L80.4634 40.2862L80.475 40.2942L80.495 40.3078L80.5093 40.3177L80.5229 40.3271L80.5351 40.3354L80.5565 40.3499L80.5695 40.3588L80.5829 40.3681L80.5945 40.3761L80.6173 40.3918L80.629 40.3999L80.6423 40.4091C80.6471 40.4125 80.652 40.4158 80.6569 40.419L80.6764 40.4327L80.6886 40.4412L80.7029 40.4509L80.7151 40.4593L80.7371 40.4746L80.7481 40.4823L80.7626 40.4923L80.7735 40.4998L80.7972 40.5163L80.808 40.5239L80.8223 40.5337L80.8316 40.5402L80.8579 40.5585L80.8668 40.5647L80.9171 40.5998L80.9267 40.6068L80.9524 40.6248L80.9613 40.631L80.9773 40.6421L80.985 40.6475L81.014 40.668L81.0204 40.6723L81.037 40.684L81.0437 40.6889L81.0762 40.7117L81.079 40.7138L81.0974 40.7266L81.1007 40.7291L81.1325 40.7517L81.1391 40.7562L81.1558 40.7682L81.1615 40.7721L81.1926 40.794L81.1982 40.7981L81.2157 40.8105L81.2174 40.8117L81.2512 40.8358L81.2579 40.8406L81.2746 40.8525L81.2778 40.8548L81.311 40.8785L81.3161 40.8822L81.3703 40.921L81.3753 40.9247L81.429 40.9631L81.4349 40.9673L81.4893 41.0065L81.4921 41.0086L81.5482 41.0492L81.5506 41.0509L81.5858 41.0765L81.5888 41.0785L81.6071 41.0918L81.6095 41.0936L81.6661 41.135L81.6667 41.1352L81.7042 41.1627L81.7059 41.1639L81.763 41.2057L81.7644 41.2066L81.8211 41.2482L81.8237 41.2502L81.88 41.2916L81.8821 41.2933L81.9389 41.335L81.94 41.3359C84.4666 43.208 86.8118 45.3131 88.9449 47.6236L88.9469 47.6255L88.9963 47.6792L88.9998 47.683L89.0482 47.7356L89.0523 47.7399L89.1008 47.793L89.1039 47.7963L89.1524 47.8493L89.1569 47.8543L89.188 47.8884L89.1886 47.8894L89.2052 47.9071L89.2077 47.9101L89.2388 47.9442L89.2409 47.9464L89.2574 47.9646L89.2585 47.966L89.2888 47.9992L89.2937 48.0048L89.3089 48.0215L89.3115 48.0244L89.3405 48.0564L89.3455 48.0621L89.3607 48.0788L89.3619 48.0803L89.3923 48.114L89.3976 48.1198L89.443 48.1701L89.4503 48.1785L89.4947 48.2279L89.5025 48.2368L89.5237 48.2604L89.5334 48.2713L89.5457 48.2851L89.5555 48.2961L89.5737 48.3163L89.5851 48.3291L89.5978 48.3436L89.6071 48.3538L89.6266 48.3759L89.6369 48.3878L89.6493 48.4014L89.6596 48.4132L89.6784 48.4344L89.6888 48.4463L89.7006 48.4594L89.7133 48.4737L89.729 48.4916L89.7411 48.5054L89.7517 48.5174L89.7698 48.5377L89.78 48.5494L89.793 48.5642L89.8033 48.5761L89.8228 48.5982L89.8306 48.6071L89.846 48.6247L89.8541 48.6341L89.8744 48.6573L89.8826 48.6664L89.8973 48.6835L89.9057 48.6929L89.9261 48.7163L89.9335 48.7248L89.9503 48.744L89.9567 48.7514L89.9781 48.7763L89.9844 48.7832L90.0032 48.805L90.0077 48.81L90.0297 48.8354L90.0358 48.8424L90.0557 48.8654L90.0589 48.8691L90.0812 48.895L90.0871 48.9017L90.1099 48.9281C91.3896 50.4087 92.5785 51.9654 93.67 53.5897L93.739 53.6926L93.7453 53.7024L93.7715 53.7415L93.7763 53.749L93.7886 53.7673L93.7982 53.782L93.8137 53.8052L93.8172 53.8106L93.8311 53.8314L93.8387 53.8431L93.8434 53.8501L93.8508 53.8616L93.8638 53.8808L93.8687 53.8886L93.8756 53.8989L93.8812 53.9076L93.8882 53.918L93.8938 53.9267L93.9005 53.9367L93.9061 53.9454L93.914 53.9575L93.9183 53.964L93.9286 53.9796L93.9342 53.9883L93.9429 54.0017L93.9465 54.0071L93.9556 54.0209L93.9596 54.0269L93.9676 54.0396L93.9724 54.0468L93.9797 54.058L93.9855 54.0666L93.9924 54.0773L93.9972 54.0844L94.0049 54.0966L94.0099 54.1041L94.0172 54.1156L94.0218 54.1226L94.0299 54.135L94.0345 54.1418L94.0588 54.1795L94.061 54.1827L94.0712 54.1987L94.075 54.2043L94.0829 54.2169L94.0884 54.225L94.0955 54.2363L94.1005 54.2438L94.1075 54.2549L94.1125 54.2623L94.1205 54.275L94.1245 54.281L94.1327 54.2939L94.1369 54.3002L94.1454 54.3135L94.1489 54.3191L94.1579 54.3333L94.1612 54.3381L94.171 54.3534L94.1736 54.3573L94.1858 54.3766L94.186 54.3769L94.1978 54.3955L94.2007 54.3999L94.2102 54.4147L94.2134 54.4196L94.2223 54.4338L94.2258 54.439L94.2344 54.4527L94.2384 54.4589L94.2467 54.4719L94.2506 54.4778L94.2586 54.4907L94.2629 54.4972L94.2709 54.5102L94.2748 54.516L94.2823 54.5279L94.2876 54.5361L94.2958 54.5494L94.299 54.5542L94.3109 54.573L94.3143 54.5781L94.3232 54.5925L94.3269 54.5982L94.3346 54.6104L94.34 54.6193L94.347 54.63L94.3515 54.6374L94.3588 54.649L94.3637 54.6567L94.3708 54.6679L94.376 54.6761L94.3821 54.6859L94.3879 54.6952L94.3946 54.7059L94.3994 54.7135L94.4085 54.7281L94.411 54.7318L94.4349 54.7702L94.4384 54.7754L94.4469 54.7892L94.4508 54.7953L94.4587 54.8083L94.4635 54.8156L94.4704 54.8267L94.476 54.8357L94.4816 54.8448L94.4882 54.8554L94.4933 54.8637L94.4994 54.8735L94.5051 54.8826L94.5116 54.893L94.5163 54.9004L94.5231 54.9116L94.5275 54.9185L94.535 54.9307L94.5384 54.9361L94.5461 54.9488L94.5484 54.9522L94.5633 54.9765L94.5693 54.9861L94.5749 54.9952L94.5806 55.0043L94.5862 55.0135L94.5929 55.0245L94.5976 55.0321L94.6042 55.0427L94.6094 55.0512L94.6163 55.0621L94.621 55.0699L94.6278 55.0811L94.6326 55.089L94.6402 55.1013L94.6443 55.1079L94.6517 55.1198L94.656 55.127L94.6639 55.1398L94.6677 55.1462L94.679 55.1644L94.6832 55.1715L94.6905 55.1833L94.6952 55.1911L94.702 55.2023L94.7069 55.2103L94.7139 55.2218L94.7179 55.2285L94.7255 55.2408L94.73 55.2482L94.7371 55.2598L94.7415 55.2672L94.7483 55.2783L94.7534 55.2867L94.7603 55.298L94.7644 55.3049L94.7721 55.3173L94.7763 55.3244L94.7853 55.3395L94.7877 55.343L94.799 55.362L94.8021 55.367L94.8107 55.3812L94.8153 55.3891L94.8213 55.3987L94.8278 55.4096L94.8328 55.418L94.8385 55.4276L94.8442 55.4371L94.8497 55.4461L94.8559 55.4563L94.8616 55.4658L94.8661 55.4733L94.8731 55.4851L94.8774 55.4923L94.8842 55.5035L94.8886 55.5107L94.8953 55.5221L94.8989 55.5282L94.9165 55.5579L94.9169 55.5586L94.9231 55.5685L94.9289 55.5782L94.9328 55.585L94.9402 55.5972L94.945 55.6053L94.9515 55.6161L94.9562 55.6241L94.9625 55.6349L94.9679 55.6437L94.9741 55.6543L94.9786 55.6618L94.9856 55.6736L94.9901 55.6814L94.9972 55.6933L95.0011 55.6998L95.0093 55.7136L95.0125 55.719L95.035 55.7571L95.037 55.7605L95.0462 55.7762L95.0498 55.7823L95.057 55.7945L95.0619 55.8028L95.0684 55.8139L95.073 55.8214L95.0794 55.8324L95.0842 55.8406L95.091 55.8525L95.095 55.8592L95.102 55.871L95.1064 55.8786L95.1133 55.8904L95.1176 55.8978L95.1251 55.9104L95.1284 55.9164L95.1505 55.9542L95.1545 55.9609L95.1618 55.9736L95.1654 55.9797L95.1726 55.9922L95.1776 56.0006L95.1835 56.0108L95.1886 56.0195L95.1945 56.0297L95.2 56.0393L95.2053 56.0482L95.2107 56.0577L95.2161 56.0671L95.2219 56.0772L95.2269 56.0857L95.2326 56.0957L95.2368 56.1029L95.2589 56.1412L95.2651 56.1518L95.2685 56.158L95.2762 56.1712L95.2802 56.1781L95.2866 56.1891L95.2924 56.1992L95.2973 56.2079L95.3032 56.2181L95.308 56.2266L95.3139 56.2368L95.3192 56.2461L95.3246 56.2556L95.3293 56.2637L95.3357 56.275L95.3398 56.2821L95.3462 56.2935L95.3512 56.3019L95.3569 56.3122L95.3673 56.3305L95.3706 56.3361L95.378 56.349L95.3835 56.3589L95.3886 56.3679L95.3938 56.3771L95.3996 56.3871L95.405 56.3966L95.41 56.4054L95.416 56.416L95.4206 56.424L95.4265 56.4346L95.4315 56.4434L95.4369 56.4529L95.4424 56.4629L95.4476 56.472L95.4531 56.4815L95.4582 56.491L95.463 56.4995L95.4693 56.5103L95.4793 56.5283L95.4831 56.5347L95.4897 56.5467L95.496 56.5579L95.5001 56.565L95.5065 56.5767L95.5106 56.5841L95.5167 56.5947L95.5214 56.6031L95.5273 56.614L95.5317 56.6216L95.5376 56.6322L95.5427 56.6415L95.548 56.6508L95.5533 56.6602L95.5585 56.6696L95.5642 56.6799L95.569 56.6884L95.5749 56.6994L95.5794 56.7075L95.5897 56.7259L95.5928 56.7313L95.6002 56.7447L95.6048 56.7531L95.6108 56.7637L95.6155 56.7722L95.621 56.7822L95.6265 56.7921L95.6315 56.8012L95.6367 56.8104L95.6418 56.8201L95.6473 56.8298L95.6523 56.8389L95.6575 56.8485L95.6629 56.8579L95.668 56.8673L95.6739 56.8782L95.6783 56.8861L95.6836 56.8959L95.7037 56.9329L95.7091 56.9422L95.7137 56.9508L95.7196 56.9614L95.7243 56.9702L95.7296 56.9798L95.7349 56.9895L95.7404 56.9994L95.7447 57.0076L95.751 57.0191L95.7549 57.0263L95.7613 57.038L95.7656 57.0459L95.7709 57.0555L95.7762 57.0655L95.7805 57.0732L95.7866 57.0844L95.7918 57.094L95.7965 57.1027L95.8065 57.1211L95.8115 57.1304L95.8167 57.1398L95.8218 57.1496L95.8269 57.159L95.8316 57.1676L95.8373 57.1783L95.8421 57.1871L95.8471 57.1964L95.8524 57.2065L95.8572 57.215L95.8629 57.2256L95.8673 57.2339L95.8727 57.2441L95.878 57.2537L95.8829 57.2628L95.8885 57.2732L95.893 57.2817L95.8989 57.2925L95.905 57.3041L95.9131 57.3194L95.9163 57.3252L95.9228 57.3377L95.9281 57.3473L95.9328 57.3564L95.9386 57.3673L95.9427 57.3747L95.9486 57.386L95.953 57.3943L95.9581 57.404L95.9633 57.4135L95.968 57.4227L95.9733 57.4323L95.9782 57.4417L95.9833 57.4514L95.9882 57.4604L95.9939 57.4714L95.9982 57.4795L96.0037 57.4899L96.0127 57.5068L96.0177 57.5164L96.0228 57.5261L96.0277 57.5355L96.0327 57.5447L96.0377 57.5547L96.0423 57.5633L96.0479 57.5737L96.0523 57.5824L96.0579 57.5928L96.0621 57.6008L96.068 57.6121L96.0724 57.6204L96.0776 57.6305L96.0822 57.6392L96.0879 57.6502L96.0921 57.6581L96.0986 57.6707L96.1019 57.6769L96.1079 57.6884L96.1158 57.7037L96.1214 57.7145L96.1255 57.7219L96.1312 57.7333L96.1353 57.7412L96.1414 57.7531L96.1454 57.7605L96.1508 57.7709L96.1558 57.7805L96.1608 57.7901L96.1654 57.7994L96.1704 57.809L96.1752 57.8182L96.1805 57.8282L96.1851 57.8372L96.1898 57.8467L96.1949 57.8564L96.2004 57.867L96.2044 57.8747L96.2238 57.9124L96.2276 57.9197L96.2333 57.9311L96.2382 57.9405L96.243 57.9498L96.2477 57.9593L96.2526 57.9687L96.2577 57.9787L96.2621 57.9874L96.2673 57.9976L96.2715 58.0056L96.2772 58.017L96.2813 58.0251L96.2863 58.0346L96.2916 58.0451L96.2959 58.054L96.3013 58.0645L96.3056 58.0726L96.3115 58.0846L96.3182 58.0977L96.3245 58.1102L96.3284 58.1174L96.3339 58.1288L96.3383 58.1375L96.3437 58.148L96.3479 58.1563L96.3532 58.1668L96.3574 58.175L96.3634 58.1867L96.3669 58.1938L96.3724 58.2048L96.3769 58.2136L96.382 58.224L96.3862 58.2325L96.3912 58.2423L96.3958 58.2516L96.4009 58.2616L96.4053 58.2704L96.4089 58.2778L96.4212 58.302L96.4238 58.3073L96.4296 58.3192L96.4329 58.3258L96.439 58.3382L96.4423 58.3444L96.4484 58.357L96.4513 58.3628L96.4578 58.3756L96.4607 58.3816L96.4666 58.3932L96.4704 58.401L96.4761 58.4124L96.4795 58.4193L96.4853 58.4309L96.4888 58.4384L96.4945 58.4496L96.4984 58.4575L96.5036 58.4681L96.5054 58.4714L96.5208 58.5029L96.5217 58.5046L96.5277 58.517L96.531 58.5237L96.5363 58.5343L96.5404 58.5426L96.5459 58.5543L96.549 58.5603L96.5553 58.5732L96.5583 58.5791L96.5645 58.5919L96.5674 58.5975L96.5735 58.6101L96.5764 58.6163L96.5828 58.6292L96.5846 58.6327L96.617 58.6995L96.6183 58.7021L96.6239 58.7141L96.6274 58.7211L96.633 58.7322L96.6367 58.7402L96.6416 58.7499L96.646 58.7594L96.6512 58.7698L96.6547 58.7775L96.6601 58.7884L96.6638 58.7963L96.6693 58.8076L96.6728 58.8147L96.6782 58.8259L96.6818 58.8337L96.6873 58.8451L96.6898 58.8502L96.6962 58.8633L96.6969 58.865L96.7103 58.8931L96.7137 58.9002L96.72 58.9131L96.7224 58.9181L96.7288 58.9311L96.7316 58.937L96.7376 58.9499L96.7402 58.9552L96.7463 58.968L96.7494 58.9744L96.7552 58.9867L96.7581 58.993L96.7638 59.0051L96.7672 59.0122L96.7725 59.0237L96.7761 59.0307L96.7815 59.0423L96.7844 59.0484L96.8064 59.0952L96.8073 59.0969L96.8139 59.111L96.8162 59.1158L96.8227 59.1293L96.8249 59.1344L96.8311 59.1471L96.8338 59.1528L96.8399 59.1659L96.8426 59.1716L96.8484 59.1837L96.8515 59.1905L96.8573 59.203L96.8598 59.2084L96.866 59.2212L96.8685 59.227L96.8747 59.2402L96.8989 59.2923L96.8999 59.2945L96.9056 59.3066L96.909 59.3137L96.9134 59.3235L96.918 59.3335L96.9224 59.3428L96.9264 59.3512L96.9314 59.3621L96.9349 59.3699L96.9401 59.3811L96.9433 59.388L96.9488 59.3997L96.952 59.407L96.9577 59.4189L96.9592 59.4226L96.9822 59.4722L96.9828 59.4735L96.9887 59.4866L96.9912 59.492L96.9972 59.5051L96.9996 59.5105L97.0056 59.5237L97.0081 59.5291L97.0136 59.5408L97.017 59.5484L97.0225 59.56L97.0252 59.5666L97.031 59.5787L97.0335 59.5845L97.0395 59.5977L97.042 59.6032L97.0475 59.6156L97.051 59.6233L97.0562 59.6346L97.0573 59.6369L97.0783 59.6836L97.0812 59.6897L97.0865 59.7018L97.0894 59.7079L97.0948 59.72L97.0978 59.7267L97.1034 59.7389L97.106 59.7449L97.1115 59.7569L97.1146 59.7643L97.1199 59.7757L97.1229 59.7827L97.1282 59.7941L97.1314 59.8014L97.1368 59.8135L97.1382 59.8167L97.1669 59.8812L97.1693 59.8866L97.1746 59.8983L97.1776 59.9052L97.1832 59.9178L97.1857 59.9237L97.1913 59.9354L97.1941 59.9425L97.1996 59.9545L97.2023 59.9609L97.2074 59.9725L97.2108 59.9799L97.216 59.9919L97.2186 59.9979L97.2239 60.0101L97.2265 60.0156C97.2358 60.0366 97.245 60.0575 97.254 60.0784L97.2562 60.0835L97.2621 60.0967L97.2643 60.1018L97.2697 60.1141L97.2729 60.1213L97.2779 60.133L97.2806 60.139L97.2861 60.1518L97.2889 60.1581L97.294 60.1699L97.2971 60.177L97.3018 60.1879L97.3054 60.1961L97.3102 60.2074L97.3118 60.2112L97.3331 60.2604L97.3339 60.2617L97.3404 60.2773L97.3417 60.28L97.3477 60.2938L97.3498 60.299L97.3552 60.3116L97.358 60.3179L97.3625 60.3285L97.3664 60.3374L97.3709 60.348L97.3741 60.3552L97.3789 60.3666L97.3818 60.3738L97.3871 60.3858L97.3899 60.3925L97.3945 60.4035L97.3984 60.4124L97.4028 60.4226L97.4059 60.43L97.4148 60.451L97.4183 60.459L97.4221 60.4682L97.4267 60.4785L97.43 60.487L97.4342 60.4967L97.4383 60.5064L97.4422 60.5157L97.4467 60.5259L97.4497 60.5332L97.4546 60.5447L97.4579 60.5527L97.4626 60.5636L97.4654 60.5706L97.4703 60.5821L97.4734 60.5895L97.4783 60.601L97.4805 60.6065L97.4859 60.6193L97.4887 60.6259L97.4975 60.6472L97.5012 60.6558L97.5056 60.6667L97.509 60.6745L97.5134 60.6849L97.5167 60.693L97.5216 60.7048L97.5245 60.7116L97.5289 60.7224L97.5324 60.7307L97.5369 60.7413L97.5401 60.7496L97.5443 60.7593L97.5478 60.768L97.5526 60.7794L97.5548 60.7844L97.5601 60.7973L97.5621 60.8023L97.588 60.8655L97.5904 60.8709L97.5952 60.8825L97.5979 60.8894L97.6025 60.9004L97.6057 60.9088L97.6103 60.9198L97.613 60.926L97.6181 60.9388L97.6205 60.9449L97.6256 60.957L97.6281 60.9631L97.6332 60.9756L97.635 60.9805L97.6596 61.041L97.6629 61.0491L97.6675 61.0601L97.6703 61.0674L97.6752 61.0796L97.6776 61.0853L97.6829 61.0984L97.6852 61.1039L97.6901 61.1161L97.6926 61.1227L97.6977 61.1356L97.6994 61.1399L97.7052 61.1541L97.7067 61.1578L97.7197 61.1904L97.7211 61.1937L97.7468 61.2582L97.7491 61.2637L97.7542 61.2767L97.756 61.2814L97.7612 61.2948L97.7635 61.3003L97.7687 61.3133L97.7706 61.3183L97.7757 61.3311L97.7785 61.3381L97.7828 61.3493L97.7854 61.356L97.7904 61.3684L97.7921 61.3731L97.7976 61.3868L97.7982 61.3885L97.817 61.4361L97.8188 61.4412L97.8244 61.4553L97.8258 61.459L97.8309 61.4723L97.8331 61.4781L97.838 61.4903L97.8407 61.497L97.8451 61.5081L97.8478 61.5157L97.8522 61.5268L97.8551 61.5342L97.8593 61.5455L97.8621 61.5521L97.8668 61.5647L97.8683 61.5683L97.8739 61.5829L97.8752 61.586C97.8776 61.5927 97.8802 61.5994 97.8829 61.6058L97.888 61.6195L97.8916 61.6283L97.8947 61.6371L97.8994 61.6494L97.9021 61.6558L97.9068 61.6681L97.9088 61.6739L97.9135 61.6858L97.9162 61.6933L97.9206 61.7045L97.923 61.7108L97.9278 61.7236L97.9296 61.7284L97.935 61.7424L97.9365 61.7461L97.9417 61.7601L97.944 61.766L97.9679 61.8289L97.9692 61.8327L97.9742 61.846L97.9763 61.8512L97.9811 61.8644L97.9832 61.8696L97.9882 61.8827L97.9901 61.8884L97.9944 61.8996L97.9977 61.908L98.0014 61.9184L98.0041 61.9257L98.0085 61.9376L98.0104 61.9424L98.0158 61.9569L98.042 62.0274L98.0423 62.0279L98.0472 62.0415L98.0493 62.0471L98.0542 62.0603L98.0558 62.0648L98.0609 62.0783L98.0627 62.0835L98.0675 62.0966L98.0695 62.1017L98.0743 62.1149L98.0765 62.1205L98.0809 62.133L98.0832 62.139L98.0877 62.1517L98.0894 62.1559L98.1069 62.2036L98.1075 62.2056L98.1119 62.2174L98.1143 62.2245L98.1189 62.2367L98.1209 62.2424L98.1255 62.2552L98.1274 62.2605L98.1324 62.2739L98.1341 62.2789L98.1389 62.292L98.1408 62.2973L98.1457 62.3105L98.1471 62.3152L98.152 62.3284L98.1538 62.3332L98.1899 62.4344L98.191 62.437L98.1955 62.4504L98.1977 62.4562L98.2018 62.4678L98.2044 62.4752L98.2086 62.4867L98.2107 62.4926L98.2153 62.5059L98.2169 62.5103L98.2217 62.5241L98.2231 62.5279L98.2281 62.5421L98.2293 62.5456L98.2522 62.6105L98.2535 62.6143L98.2582 62.6283L98.2597 62.6323L98.2647 62.6468L98.2661 62.6505L98.2711 62.6643L98.2726 62.669L98.2771 62.6817L98.2791 62.6878L98.2835 62.7004L98.2854 62.7059L98.2899 62.7186L98.2917 62.7238L98.2962 62.7372L98.2977 62.7415L98.3024 62.7551L98.3032 62.7574L98.3135 62.7875L98.3147 62.791L98.3194 62.8043L98.321 62.8091L98.3253 62.8215L98.3275 62.828L98.3316 62.8404L98.3334 62.8456L98.3379 62.8585L98.3399 62.8643L98.3441 62.8769L98.346 62.8822L98.3505 62.8952L98.3523 62.9007L98.3567 62.9136L98.3579 62.9174L98.363 62.9321L98.3866 63.0022L98.387 63.0031L98.3921 63.0185L98.3932 63.0215L98.3979 63.0355L98.3994 63.0399L98.4041 63.0543L98.4052 63.0576L98.4102 63.0721L98.4113 63.0758L98.4163 63.0903L98.4172 63.0935L98.4222 63.1086L98.4228 63.1106L98.457 63.2138L98.4578 63.2156L98.4627 63.2306L98.4638 63.2341L98.4682 63.2476L98.47 63.2531L98.4742 63.2661L98.4757 63.2707L98.4802 63.2844L98.4817 63.2888L98.4861 63.3023L98.4877 63.3075L98.492 63.3206L98.4928 63.3229L98.5139 63.3883L98.5153 63.3925L98.5195 63.4057L98.5212 63.4107L98.5252 63.4237L98.527 63.4288L98.5311 63.4419L98.5329 63.4474L98.5369 63.4593L98.539 63.4659L98.5429 63.4781L98.5445 63.4833L98.5487 63.4965L98.5498 63.5L98.5764 63.5841L98.577 63.5857L98.5814 63.5992L98.5831 63.6049L98.5872 63.6181L98.5885 63.6222L98.5931 63.6363L98.5941 63.6403L98.5989 63.6551L98.5994 63.6569L98.6046 63.6734L98.6047 63.6736L98.6368 63.7772L98.6377 63.7796L98.6423 63.7948L98.6432 63.7975L98.6474 63.8116L98.6489 63.8162L98.6533 63.8297L98.6545 63.8343L98.6585 63.8474L98.6601 63.8526L98.6643 63.8658L98.6656 63.8705L98.6695 63.8834L98.6712 63.8891L98.7014 63.9888L98.702 63.9907L98.7068 64.0063L98.7075 64.0087L98.7119 64.0233L98.7132 64.0277L98.7172 64.0414L98.7184 64.0448L98.7227 64.0598L98.7233 64.0617L98.7539 64.164L98.7544 64.1662L98.7591 64.1816L98.7597 64.1839L98.7643 64.1995L98.765 64.2016L98.7698 64.2179L98.7699 64.2188L98.7747 64.235L98.7754 64.2371L98.8152 64.3742L98.816 64.3771L98.8205 64.3922L98.821 64.3944L98.8252 64.4094L98.8264 64.4133L98.8304 64.4273L98.8314 64.4309L98.8355 64.4451L98.8368 64.4495L98.8407 64.4634L98.8411 64.4654C98.8494 64.4935 98.8574 64.5219 98.8652 64.55L98.8656 64.5514L98.8699 64.5668L98.8708 64.5695L98.8747 64.5838L98.8759 64.588L98.88 64.6021L98.8808 64.6055L98.8848 64.6195L98.8859 64.624L98.8898 64.6378L98.8908 64.6414L98.8948 64.6558L98.8954 64.6577L98.9132 64.7221L98.9145 64.7269L98.9182 64.7408L98.9193 64.7441L98.9232 64.7584L98.9242 64.7624L98.9279 64.7759L98.9291 64.7805L98.9328 64.7937L98.9341 64.7985L98.938 64.8123L98.9386 64.815L98.9429 64.8304L98.9432 64.8316L98.9664 64.9177L98.9665 64.9179L98.9704 64.9324L98.9715 64.9366L98.975 64.9502L98.9763 64.9545L98.9797 64.9677L98.9811 64.9726L98.9845 64.9857L98.9859 64.9913L98.9888 65.0027L98.991 65.0102L98.994 65.0216L98.9956 65.0275L98.9988 65.0392L99 65.0443L99.0162 65.1055L99.0175 65.111L99.0209 65.1237L99.0222 65.1285L99.0253 65.1405L99.027 65.1471L99.0301 65.1591L99.0314 65.1643L99.0348 65.1773L99.0361 65.1825L99.0397 65.1959L99.0404 65.1987L99.0443 65.2139L99.0448 65.2157L99.0488 65.2315L99.049 65.2326L99.0615 65.2806L99.0624 65.284L99.0658 65.2979L99.0669 65.3019L99.0702 65.3153L99.0713 65.3198L99.0748 65.3334L99.0759 65.3378L99.0792 65.3504L99.0804 65.3557L99.0839 65.3693L99.0849 65.3729L99.0883 65.3868L99.0893 65.3911L99.093 65.4053L99.0932 65.4063L99.0972 65.4228L99.0977 65.4235L99.1144 65.4905L99.1148 65.4928C99.1159 65.4979 99.1173 65.5035 99.1188 65.5086L99.119 65.5099L99.1227 65.5248L99.1236 65.5287L99.127 65.5421L99.128 65.5464L99.1311 65.5595L99.1324 65.565L99.1359 65.5782L99.1365 65.5808L99.1609 65.6821L99.1614 65.6834L99.1646 65.697L99.1657 65.7021L99.169 65.7152L99.17 65.7194L99.1733 65.7332L99.1742 65.7368L99.1775 65.7517L99.1782 65.7537L99.1817 65.7687L99.1825 65.7721L99.206 65.8719L99.2065 65.8741L99.2101 65.89L99.2105 65.8912L99.214 65.9062L99.2148 65.9096L99.2182 65.9245L99.2188 65.9264L99.2221 65.9418L99.2228 65.9442L99.2536 66.0792L99.2542 66.0818L99.2576 66.0967L99.2582 66.0993L99.2614 66.1134L99.2624 66.1174L99.2656 66.1324L99.2657 66.1333L99.2696 66.1495L99.2698 66.1512L99.2918 66.2499L99.2927 66.2547L99.2959 66.2687L99.2964 66.2715L99.2996 66.286L99.3004 66.2894L99.3035 66.3038L99.3041 66.3069L99.3072 66.3205L99.3083 66.3257L99.3111 66.3386L99.3117 66.342L99.3331 66.4415L99.3337 66.4434L99.3363 66.4567L99.3375 66.462L99.3401 66.4746L99.3411 66.4793L99.344 66.4924L99.3447 66.4966L99.3478 66.511L99.3482 66.513L99.3512 66.5277L99.3523 66.5317L99.3658 66.5973L99.3692 66.614L99.3695 66.6148L99.3723 66.6284L99.3733 66.6334L99.3757 66.6458L99.3768 66.6509L99.3793 66.6627L99.3807 66.6693L99.3831 66.6813L99.3838 66.6859L99.3866 66.6988L99.3876 66.7038L99.3903 66.717L99.3907 66.7193L99.4068 66.8001L99.4077 66.8042L99.4105 66.8178L99.4112 66.8216L99.4137 66.8345L99.4148 66.8396L99.4173 66.8521L99.4185 66.8573L99.4207 66.8695L99.4217 66.8751L99.4243 66.8877L99.4249 66.8922L99.4276 66.9045L99.4288 66.9112L99.4311 66.9231L99.4319 66.9268L99.4345 66.9401L99.4353 66.9442L99.4402 66.97L99.4413 66.9751L99.4439 66.9884L99.4446 66.9922L99.4469 67.0052L99.448 67.0103L99.4504 67.0238L99.4513 67.0272L99.4537 67.0406L99.4548 67.0457L99.4571 67.0578L99.4582 67.0636L99.4603 67.0749L99.4617 67.0822L99.4637 67.0933L99.4646 67.0981L99.4671 67.111L99.4676 67.1153L99.4756 67.1569L99.4767 67.1632L99.4787 67.1741L99.4801 67.1811L99.482 67.1916L99.4834 67.1991L99.4851 67.2085L99.4867 67.2173L99.4885 67.2269L99.4899 67.2346L99.4918 67.2449L99.4931 67.252L99.4951 67.2631L99.4963 67.2694L99.4983 67.2807L99.4992 67.2864L99.5108 67.3491L99.5107 67.3503L99.5134 67.3649L99.5138 67.3677L99.5162 67.3807L99.5171 67.3859L99.5193 67.3986L99.52 67.4032L99.5224 67.4158L99.5233 67.421L99.5256 67.4335L99.5265 67.4384L99.5285 67.4508L99.5294 67.4564L99.5316 67.4685L99.5325 67.4733L99.5346 67.4859L99.5353 67.4904L99.5432 67.5361L99.5434 67.5376L99.5455 67.5498L99.5466 67.5556L99.5487 67.5678L99.5495 67.5729L99.5516 67.5851L99.5524 67.5905L99.5546 67.6029L99.5555 67.6081L99.5575 67.6202L99.5583 67.6255L99.5605 67.6386L99.561 67.6411L99.5635 67.6558L99.5638 67.6582C99.5676 67.6801 99.571 67.7013 99.5744 67.7232L99.5747 67.7244L99.5769 67.7381L99.5776 67.7419L99.5794 67.7534L99.5807 67.7605L99.5826 67.7722L99.5834 67.7768L99.5854 67.79L99.586 67.7943L99.5881 67.807L99.589 67.8118L99.591 67.8245L99.5917 67.8292L99.5938 67.8428C99.5984 67.8707 99.6028 67.8986 99.607 67.9265L99.6073 67.9277L99.6096 67.9426L99.6099 67.9452L99.612 67.9586L99.6129 67.9634L99.6147 67.9763L99.6153 67.9806L99.6173 67.9933L99.618 67.998L99.6202 68.0111L99.6206 68.0151L99.6228 68.0282L99.6233 68.0325L99.6326 68.0936L99.6331 68.0971L99.635 68.1099L99.6356 68.1142L99.6376 68.1269L99.6383 68.1319L99.6402 68.1445L99.6409 68.1491L99.6426 68.1611L99.6435 68.1676L99.6451 68.1787L99.646 68.1847L99.6476 68.1963L99.6485 68.2013L99.6596 68.2789L99.66 68.2826L99.6617 68.2943L99.6626 68.3001L99.6641 68.3118L99.665 68.3177L99.6666 68.3293L99.6675 68.3348L99.6692 68.3471L99.6699 68.352L99.6716 68.3643L99.6722 68.3695L99.6741 68.3821L99.6745 68.3855L99.6763 68.3994L99.6768 68.4023L99.6853 68.4654L99.6858 68.4675L99.6874 68.4811L99.6879 68.4846L99.6895 68.4976L99.6904 68.5024L99.6921 68.5154L99.6925 68.5188L99.6943 68.5327L99.6948 68.5363L99.6965 68.5493L99.697 68.5543L99.6987 68.5663L99.6995 68.5724L99.7011 68.5842L99.7014 68.5864L99.7092 68.6478L99.71 68.6524L99.7114 68.6651L99.712 68.6694L99.7136 68.6824L99.7142 68.6867L99.7157 68.6984L99.7164 68.705L99.7178 68.7162L99.7184 68.7217L99.72 68.7335L99.7207 68.7392L99.722 68.751L99.7229 68.7567L99.7243 68.768L99.725 68.7743L99.7317 68.8297L99.7327 68.8375L99.7338 68.8462L99.7346 68.8545L99.7359 68.8644L99.7368 68.8721L99.738 68.8819L99.7388 68.8895L99.74 68.8995L99.7409 68.9073L99.742 68.9169L99.7427 68.924L99.7441 68.9348L99.7448 68.9411L99.746 68.952L99.7466 68.9568L99.7519 69.0024L99.7519 69.0028L99.7534 69.0159L99.754 69.0202L99.755 69.0313L99.7557 69.0383L99.7569 69.0485L99.7577 69.0555L99.759 69.0659L99.7595 69.0726L99.7607 69.0835L99.7615 69.09L99.7627 69.1005L99.7633 69.1074L99.7646 69.1187L99.7651 69.1231L99.7666 69.1357L99.7668 69.1384L99.7732 69.1989L99.7737 69.2038L99.7749 69.2154L99.7755 69.2211L99.7766 69.2316L99.7774 69.2391L99.7785 69.2494L99.779 69.2554L99.7802 69.2667L99.7809 69.2733L99.7819 69.2837L99.7827 69.2911L99.7838 69.3008L99.7844 69.3088L99.7855 69.3184L99.7862 69.325L99.7872 69.3356L99.7889 69.3529L99.789 69.3548L99.7907 69.3706L99.7912 69.3759L99.7922 69.3876L99.793 69.3958L99.794 69.4043L99.7948 69.4143L99.7954 69.4218L99.7963 69.4309L99.7974 69.4395L99.7982 69.4487L99.7988 69.4567L99.7996 69.4655L99.8007 69.4742L99.8014 69.4836L99.802 69.4914L99.8028 69.5005L99.8037 69.5088L99.8074 69.5486L99.8076 69.5513L99.8085 69.5622L99.8092 69.5695L99.81 69.5788L99.8107 69.5868L99.8116 69.5958L99.8124 69.6044L99.813 69.6134L99.8136 69.6212L99.8147 69.6306L99.8153 69.6395L99.8161 69.6477L99.8169 69.6559L99.8176 69.6657L99.8182 69.6719L99.8191 69.6833L99.8193 69.6843L99.823 69.7283L99.8235 69.7336L99.8241 69.7437L99.8248 69.7513L99.8255 69.7602L99.8263 69.7686L99.827 69.7778L99.8277 69.7858L99.8283 69.7947L99.8291 69.8033L99.8297 69.8123L99.8305 69.8212L99.8311 69.829L99.8317 69.8384L99.8324 69.8471L99.8331 69.8556L99.8338 69.8639L99.8348 69.8773L99.8351 69.8813L99.8364 69.8989L99.8367 69.9018L99.8377 69.9152L99.8383 69.9232L99.839 69.9333L99.8396 69.9405L99.8402 69.9502L99.841 69.9583L99.8414 69.9674L99.8421 69.9764L99.8426 69.9838L99.8433 69.9941L99.8439 70.0012L99.8447 70.0108L99.8452 70.0189L99.846 70.0278L99.8465 70.038L99.847 70.0451L99.8477 70.0541L99.8491 70.0741L99.8494 70.0788L99.85 70.0877L99.8506 70.0963L99.8513 70.105L99.8517 70.1136L99.8523 70.1219L99.8528 70.1307L99.8534 70.1397L99.8539 70.1485L99.8545 70.1557L99.8552 70.1662L99.8554 70.1736L99.8563 70.1836L99.8566 70.1904L99.8574 70.2006L99.8578 70.2083L99.8585 70.2201L99.8589 70.225L99.8596 70.2379L99.8604 70.2489L99.861 70.2595L99.8615 70.2677L99.862 70.2765L99.8624 70.2849L99.8631 70.2943L99.8633 70.3016L99.8641 70.3112L99.8644 70.3193L99.8649 70.3288L99.8654 70.3362L99.866 70.3466L99.8664 70.3531L99.8671 70.3651L99.8674 70.3703L99.868 70.3821L99.8684 70.3879L99.8692 70.4024L99.8691 70.4048L99.8711 70.4399L99.8711 70.4434C99.8715 70.4483 99.8718 70.4523 99.8719 70.4569L99.8724 70.4632L99.8729 70.4746L99.8732 70.4805L99.8737 70.4914L99.8741 70.4987L99.8746 70.5089L99.875 70.5155L99.8754 70.5259L99.8757 70.5333L99.8764 70.5441L99.8765 70.5496L99.8771 70.561L99.8774 70.5678L99.878 70.5792L99.8781 70.5845L99.879 70.6017L99.8792 70.6047L99.8797 70.6191L99.88 70.6248L99.8805 70.6357L99.8809 70.6434L99.8812 70.6536L99.8815 70.6597L99.8819 70.6707L99.8823 70.6773L99.8826 70.6883L99.883 70.6951L99.8833 70.7043L99.8839 70.7126L99.8841 70.722L99.8844 70.7294L99.8848 70.7395L99.885 70.7465L99.8854 70.7576L99.8859 70.7639L99.8864 70.7776L99.8867 70.7861L99.887 70.7978L99.8872 70.8031L99.8877 70.815L99.8879 70.8219L99.8882 70.8318L99.8885 70.8393L99.8888 70.8485L99.8891 70.8573L99.8894 70.8662L99.8894 70.8732L99.89 70.8839L99.8903 70.8907L99.8906 70.9016L99.8907 70.9073L99.8913 70.9187L99.8913 70.925L99.8929 70.9765L99.8928 70.9799L99.8933 70.9932L99.8935 70.9994L99.8937 71.011L99.894 71.0159L99.8942 71.0278L99.8943 71.0336L99.8947 71.0453L99.8949 71.0508L99.8951 71.0624L99.8952 71.0682L99.8957 71.0811L99.8958 71.0847L99.896 71.0973L99.896 71.1026L99.8962 71.1169L99.8963 71.1196L99.8968 71.1367L99.897 71.1405L99.8973 71.1539L99.8974 71.1586L99.8975 71.1716L99.8977 71.1748L99.898 71.1893L99.8979 71.192L99.8981 71.2059L99.8983 71.2108L99.8985 71.2233L99.8986 71.2277L99.8989 71.2407L99.899 71.245L99.8991 71.2593L99.8992 71.2618L99.8993 71.276L99.8995 71.2797L99.9004 71.3483L99.9004 71.3526L99.9006 71.3665L99.9007 71.3691L99.9007 71.3831L99.9007 71.3873L99.901 71.4003L99.9009 71.4048L99.9011 71.4169L99.9011 71.4223L99.9012 71.4363L99.9013 71.4386L99.9016 71.5081L99.9016 71.5105L99.9017 71.5254L99.9017 71.5282L99.9018 71.5427L99.9018 71.5458L99.9018 71.5592L99.9019 71.5643L99.9018 71.577L99.9018 71.5805L99.9017 71.5944L99.9019 71.5981L99.9019 71.6115L99.9018 71.6153L99.9017 71.629L99.9018 71.6327L99.9017 71.6844L99.9018 71.6862L99.9016 71.7011L99.9016 71.7046L99.9017 71.7187L99.9015 71.7212L99.9016 71.7357L99.9016 71.7392L99.9014 71.7529L99.9014 71.7564L99.9012 71.7702L99.9012 71.7737L99.9012 71.7883L99.9011 71.7907L99.9003 71.8595L99.9003 71.8623L99.9004 71.8764L99.9001 71.8801L99.8999 71.8936L99.8999 71.8974L99.8997 71.9102L99.8995 71.9155L99.8995 71.9273L99.8994 71.932L99.8991 71.9446L99.8991 71.9491L99.8988 71.9634L99.8989 71.9657L99.8986 71.9802L99.8986 71.983L99.898 72.0172L99.8979 72.0187L99.8975 72.0347L99.8974 72.0366L99.8971 72.0509L99.897 72.0557L99.8969 72.068L99.8969 72.0727L99.8964 72.0852L99.8963 72.0893L99.8961 72.1023L99.896 72.1066L99.8957 72.1185L99.8955 72.1241L99.8953 72.1364L99.8952 72.1405L99.8928 72.2262L99.8927 72.2274L99.8922 72.2425L99.8922 72.246L99.8918 72.259L99.8917 72.2638L99.8912 72.277L99.8912 72.2798L99.8906 72.2948L99.8906 72.2969L99.8869 72.3992L99.8868 72.4018L99.8862 72.4167L99.8862 72.4184L99.8855 72.4339L99.8855 72.4356L99.8848 72.4517L99.8849 72.4522L99.8805 72.5556L99.8803 72.5564L99.8796 72.5724L99.8796 72.5745L99.8788 72.5896L99.8786 72.5914L99.8781 72.6063L99.8778 72.609L99.8773 72.6233L99.877 72.6258L99.8764 72.6405L99.8763 72.6429L99.8709 72.7447L99.8708 72.7467L99.8699 72.7618L99.8698 72.7638L99.8688 72.7785L99.8688 72.7808L99.8681 72.7959L99.868 72.7978L99.8671 72.812L99.8668 72.815L99.8659 72.8312L99.866 72.8313L99.8617 72.8999L99.8619 72.9001C99.8612 72.9061 99.8611 72.9109 99.8607 72.9168L99.8606 72.9178L99.8597 72.9332L99.8594 72.9353L99.8586 72.9499L99.8584 72.9527L99.8572 72.9685L99.8515 73.0538L99.8514 73.0547L99.8503 73.0705L99.8502 73.0729L99.8491 73.0866L99.849 73.0883C99.7694 74.1888 100.13 75.2759 100.852 76.1104C101.574 76.9449 102.598 77.4584 103.698 77.5381C104.799 77.6177 105.886 77.2569 106.72 76.535C107.555 75.8132 108.068 74.7894 108.148 73.6888C108.715 65.863 106.027 57.0797 100.581 48.9564Z" fill="#3D180B"/>
<path d="M39.0008 103.337C55.7445 119.486 78.1341 123.437 89.0093 112.161C99.8846 100.885 95.1272 78.6532 78.3835 62.504C61.6397 46.3549 39.2501 42.4042 28.3749 53.6798C17.4996 64.9555 22.257 87.1877 39.0008 103.337Z" fill="#5B2C06"/>
<path d="M37.6166 101.533C52.3303 116.442 70.5996 122.269 78.4222 114.549C86.2449 106.828 80.6586 88.4839 65.945 73.5751C51.2313 58.6663 32.9619 52.8389 25.1393 60.5592C17.3166 68.2794 22.9029 86.624 37.6166 101.533Z" fill="#764126"/>
<path d="M76.3623 108.034C75.6702 107.002 74.6858 106.2 73.5351 105.73C72.3844 105.261 71.1198 105.146 69.9032 105.399C69.5021 105.472 69.0942 105.498 68.6872 105.477L68.6406 105.476L68.5921 105.473C62.7932 105.238 52.4392 99.8196 43.8693 89.9211C42.3769 88.2026 40.9912 86.3943 39.7199 84.5065C36.9157 80.3237 35.003 76.0895 34.3337 72.5841C34.1818 71.7775 33.8722 71.0088 33.4228 70.322C32.9733 69.6352 32.3928 69.0438 31.7144 68.5817C31.0361 68.1196 30.2732 67.7958 29.4696 67.629C28.6659 67.4622 27.8372 67.4555 27.031 67.6094C26.2248 67.7633 25.4568 68.0747 24.7711 68.5258C24.0854 68.9769 23.4954 69.5589 23.035 70.2384C22.5745 70.9178 22.2526 71.6815 22.0877 72.4855C21.9228 73.2896 21.9181 74.1183 22.074 74.9241C22.4498 76.8421 22.9836 78.7258 23.6698 80.5558L23.6701 80.5563C23.6817 80.588 23.6934 80.6197 23.7052 80.6514L23.7058 80.6526L23.7408 80.7465L23.7419 80.7495L23.7531 80.7792L23.7542 80.7819L23.7654 80.812L23.7657 80.8123L23.777 80.8425L23.7783 80.8458L23.7894 80.875L23.7907 80.8786L23.8134 80.9385L23.8147 80.9419L23.8261 80.9718L23.8269 80.9736L23.8503 81.0349L23.8515 81.0381L23.863 81.0682L23.8638 81.07L23.8873 81.131L23.8887 81.1345L23.9003 81.1644L23.9009 81.1663L23.9129 81.1972L23.925 81.2279L23.9261 81.2309C23.93 81.2409 23.9336 81.2505 23.9378 81.2606L23.9388 81.2635L23.9625 81.3241L23.9639 81.3276L23.9755 81.3572L23.9767 81.3599L23.988 81.3887L23.9888 81.391L24.0004 81.4201L24.002 81.4247L24.0136 81.4535L24.0151 81.4575L24.0265 81.4864L24.027 81.4872L24.0381 81.5157L24.0407 81.522L24.0517 81.5496L24.0538 81.5548L24.0649 81.5825L24.0655 81.5842L24.0771 81.6131L24.0791 81.6185L24.0903 81.646L24.0928 81.6526L24.1036 81.6791L24.1043 81.681L24.1154 81.7088L24.1184 81.7159L24.1294 81.7428L24.1317 81.7488L24.1417 81.7735L24.1444 81.7802L24.1544 81.805L24.1577 81.8135L24.1682 81.8389L24.1715 81.8473L24.1811 81.8704L24.1836 81.8765L24.1937 81.9014L24.1974 81.9105L24.2077 81.9357L24.2113 81.9445L24.2201 81.9661L24.224 81.9755L24.2336 81.9988L24.2372 82.0077L24.2475 82.0325L24.2515 82.042L24.2605 82.0642L24.2636 82.0715L24.2733 82.0951L24.2776 82.1051L24.2875 82.1292L24.2918 82.1395L24.2998 82.1588L24.3053 82.1722L24.3136 82.1924L24.3177 82.2019L24.3285 82.2276L24.3318 82.2359L24.3413 82.2582L24.3448 82.2669L24.3545 82.2897L24.3585 82.2993L24.3689 82.3242L24.3727 82.3334L24.382 82.3553L24.3859 82.3647L24.3954 82.3872L24.3996 82.397L24.4097 82.4208L24.4145 82.4322L24.4229 82.4517L24.4274 82.4627L24.4367 82.4846L24.4407 82.494L24.4514 82.5192L24.4552 82.5279L24.4645 82.5498L24.4692 82.5603L24.4782 82.5818L24.4826 82.5919L24.4929 82.616L24.4975 82.6268L24.5056 82.6458L24.5118 82.6599L24.5196 82.6782L24.5247 82.69L24.5344 82.7126L24.5399 82.7254L24.5468 82.7412L24.5544 82.7589L24.5615 82.7755L24.5669 82.7881L24.5766 82.8102L24.5824 82.8234L24.5894 82.8399L24.5967 82.8563L24.6038 82.8725L24.6096 82.886L24.6192 82.9077L24.6249 82.9211L24.6313 82.9355L24.6406 82.9568L24.6461 82.9695L24.6525 82.984L24.6621 83.0057L24.6678 83.0188L24.6746 83.0342L24.6829 83.0535L24.6894 83.0677L24.6953 83.0814L24.7051 83.103L24.7112 83.117L24.718 83.1324L24.7256 83.1494L24.7334 83.1669L24.7387 83.1791L24.7487 83.2015L24.7544 83.2144L24.7619 83.2312L24.7695 83.2481L24.7765 83.2639L24.7823 83.2771L24.7923 83.2993L24.7981 83.3123L24.8052 83.328L24.8138 83.3471L24.8205 83.3621L24.8262 83.3752L24.8364 83.3974L24.8423 83.4106L24.8491 83.4258L24.8582 83.4456L24.8644 83.4594L24.8707 83.4733L24.8806 83.4951L24.8868 83.509L24.8932 83.5235L24.9023 83.543L24.9093 83.5587L24.9153 83.5714L24.9253 83.5933L24.9313 83.6069C24.9338 83.6123 24.9369 83.6186 24.939 83.624L24.9464 83.6399L24.954 83.6565L24.9599 83.6694L24.9704 83.6922L24.976 83.7044L24.9833 83.7204L24.9923 83.7402L24.9989 83.7546L25.0052 83.7675L25.0157 83.7909L25.021 83.8022L25.0296 83.8206L25.0374 83.8377L25.0442 83.8524L25.0506 83.8664L25.0608 83.8882L25.0671 83.9018L25.0739 83.9165L25.0833 83.9365L25.0902 83.9514L25.0965 83.965L25.1063 83.9859L25.1134 84.0011L25.1197 84.0147L25.1295 84.0356L25.1358 84.0488L25.1425 84.0633L25.1526 84.0851L25.1591 84.0982L25.1661 84.1137L25.1758 84.134L25.1823 84.1479L25.1887 84.1617L25.1988 84.1831L25.206 84.198L25.212 84.2111L25.2225 84.2332L25.2286 84.2457L25.2353 84.2603L25.2456 84.282L25.2523 84.2958L25.2594 84.3108L25.2689 84.3307L25.2759 84.3453L25.2824 84.3588L25.2927 84.3805L25.2994 84.3948L25.3071 84.4108L25.3155 84.4286L25.3229 84.4438L25.3295 84.4571L25.3399 84.4794L25.3468 84.4931L25.3532 84.5069L25.3641 84.5294L25.3701 84.5418L25.378 84.5581L25.3874 84.5779L25.3945 84.5926L25.4008 84.6055L25.4116 84.6279L25.4175 84.6403L25.4258 84.6571L25.4351 84.6762L25.4425 84.6915L25.4488 84.7044L25.4593 84.726L25.4663 84.74L25.4729 84.754L25.4833 84.7751L25.4908 84.7905L25.4968 84.803L25.5081 84.8259L25.5139 84.838L25.5236 84.8573L25.5317 84.874L25.539 84.8888L25.5456 84.902L25.557 84.9253L25.5625 84.9371L25.5709 84.9538L25.5804 84.9732L25.5879 84.9879L25.5943 85.001L25.6057 85.0239L25.6115 85.036L25.6193 85.0512L25.6295 85.072L25.637 85.087L25.643 85.0996L25.6546 85.1228L25.6608 85.1351L25.6709 85.1556L25.6788 85.1707L25.6864 85.1863L25.6939 85.201L25.7035 85.2206L25.7106 85.2346L25.7186 85.2508L25.7283 85.2702L25.7358 85.2849L25.7425 85.2984L25.754 85.3211L25.7603 85.3337L25.7674 85.3477L25.7787 85.3702L25.7853 85.3836L25.7939 85.4002L25.8032 85.4186L25.8108 85.4335L25.8173 85.4467L25.8289 85.4692L25.8355 85.4826L25.8446 85.5L25.8534 85.5174L25.8613 85.533C25.8637 85.5379 25.8665 85.5436 25.8694 85.5486L25.879 85.5678L25.8865 85.5825L25.8942 85.5975L25.9044 85.6177L25.9116 85.6319L25.9184 85.6452L25.9304 85.6683L25.9364 85.6801L25.9467 85.6999L25.9548 85.7159L25.9633 85.732L25.9694 85.7443L25.9814 85.7675L25.988 85.7805L25.9971 85.7983L26.0062 85.8157L26.014 85.8309L26.0209 85.8439L26.0326 85.8666L26.0394 85.8799L26.0482 85.8965L26.0579 85.9156L26.0655 85.9304L26.0724 85.9434L26.0839 85.9655L26.0914 85.98L26.1007 85.9972L26.1096 86.0147L26.1174 86.0299L26.1242 86.0428L26.136 86.0654L26.1431 86.0787L26.152 86.0955L26.1618 86.1143L26.1697 86.1296L26.1765 86.1422L26.1886 86.1656L26.1951 86.1777L26.206 86.1985L26.2134 86.2126L26.2226 86.2299L26.2286 86.2413L26.2413 86.2655L26.2474 86.2767L26.2602 86.301L26.2654 86.3109L26.2757 86.3305L26.2813 86.3408L26.2942 86.365L26.3007 86.3771L26.3122 86.3989L26.3191 86.4117L26.3285 86.4291L26.3344 86.4404L26.3474 86.4646L26.3535 86.4762L26.3648 86.4973L26.3727 86.5122L26.3812 86.5284L26.3881 86.5408L26.4007 86.5641L26.4071 86.5762L26.4187 86.598L26.4264 86.6119L26.4345 86.6276L26.4419 86.641L26.4541 86.6635L26.4611 86.6763L26.4714 86.6952L26.4801 86.7116L26.4889 86.728L26.4964 86.742L26.5077 86.7626L26.5153 86.7765L26.528 86.7999L26.5333 86.8096L26.5436 86.8285L26.5494 86.8396L26.5627 86.8636L26.569 86.8755L26.581 86.8968L26.5884 86.9107L26.5981 86.9286L26.6038 86.9389L26.6173 86.9636L26.6239 86.9756L26.6363 86.9983L26.6434 87.0113L26.6519 87.0268L26.6595 87.0405L26.6718 87.063L26.6786 87.0753L26.6906 87.0967L26.6979 87.1105L26.7075 87.1276L26.7157 87.1425L26.7265 87.1622L26.7345 87.1762L26.747 87.199L26.7534 87.2104L26.7627 87.2274L26.7702 87.2407L26.7826 87.263L26.789 87.2746L26.801 87.2961L26.8091 87.3109L26.8186 87.3276L26.826 87.3411L26.8385 87.3633L26.8449 87.3749L26.8584 87.3992L26.8648 87.4105L26.8742 87.4274L26.8819 87.441L26.8941 87.4627L26.9011 87.4751L26.9144 87.4986L26.9207 87.5101L26.9312 87.5284L26.9378 87.5404L26.9507 87.5632L26.9574 87.5752L26.9714 87.6001L26.9763 87.6087L26.9877 87.6288L26.9933 87.6387L27.0074 87.6635L27.0137 87.6746L27.0265 87.6972L27.0342 87.7108L27.0442 87.7285L27.0506 87.7398L27.0646 87.7642L27.0708 87.7748L27.085 87.7998L27.0906 87.8097L27.1016 87.8293L27.1072 87.8389L27.1215 87.8638L27.1277 87.8747L27.1421 87.8998L27.1478 87.9096L27.1594 87.9302L27.1646 87.939L27.1788 87.9637L27.1858 87.9759L27.1998 88.0001L27.2054 88.01L27.2168 88.0298L27.2223 88.0393L27.2369 88.0647L27.2428 88.0748L27.2575 88.1002L27.2633 88.1104L27.2751 88.1307L27.2801 88.1393L27.2952 88.1653L27.3009 88.1751L27.3159 88.201L27.3214 88.2102L27.3332 88.2307L27.3384 88.2395L27.3532 88.2652L27.3591 88.2753L27.3739 88.3006L27.3798 88.3107L27.3923 88.3317L27.3969 88.3397L27.4119 88.3656L27.4182 88.3761L27.4332 88.402L27.4379 88.4101L27.4513 88.4324L27.4555 88.4398L27.471 88.4663L27.4766 88.4757L27.492 88.5015L27.4972 88.5107L27.5104 88.5329L27.5147 88.5403L27.5306 88.5672L27.5358 88.576L27.5517 88.6029L27.5562 88.6102L27.5701 88.6338L27.5741 88.6404L27.5897 88.6669L27.5955 88.6766L27.611 88.7026L27.6159 88.7108L27.6298 88.7344L27.6338 88.7411L27.6494 88.7672L27.6555 88.7772L27.6709 88.8031L27.6762 88.812L27.6894 88.8338L27.6937 88.8413L27.7102 88.8687L27.7146 88.8763L27.7312 88.9039L27.7358 88.9114L27.7503 88.9355L27.7539 88.9416L27.7706 88.9693L27.7754 88.9772L27.7919 89.0046L27.7962 89.0116L27.8111 89.0364L27.8143 89.0418L27.8308 89.0692L27.8361 89.0778L27.8525 89.1048L27.8569 89.112L27.872 89.1371L27.8753 89.1422L27.8918 89.1696L27.8973 89.1786L27.9137 89.2054L27.9181 89.2128L27.9322 89.2362L27.9366 89.2436L27.9528 89.2698L27.9583 89.279L27.9741 89.3046L27.9805 89.3153L27.9933 89.3361L27.9988 89.3451L28.0143 89.3702L28.0202 89.3801L28.0363 89.4062L28.0414 89.4145L28.0555 89.4374L28.0596 89.4441L28.0765 89.4717L28.0814 89.4794L28.0983 89.5071L28.1028 89.5142L28.1189 89.5403L28.1212 89.5441L28.1385 89.572L28.1438 89.5806L28.1607 89.608L28.1648 89.6147L28.1809 89.6405L28.1836 89.6448L28.2015 89.6736L28.2053 89.68L28.2229 89.7081L28.2277 89.7159L28.2432 89.7408L28.2462 89.7453L28.2637 89.7735L28.2687 89.7816L28.2861 89.8092L28.2897 89.8154L28.3063 89.8419L28.3089 89.8458L28.3266 89.8743L28.3315 89.8816L28.3487 89.9093L28.3534 89.9167L28.3693 89.9422L28.3722 89.9466L28.3897 89.9747L28.3949 89.9828L28.4125 90.0109L28.4162 90.0164L28.4328 90.0428L28.4357 90.0472L28.4536 90.0759L28.4581 90.0827L28.4757 90.1106L28.4803 90.1178L28.4971 90.1446L28.499 90.1475L28.5177 90.1768L28.5219 90.1834L28.5399 90.212L28.5437 90.2176L28.5614 90.2459L28.5629 90.2481L28.5818 90.2777L28.5857 90.2836L28.6042 90.3128L28.6077 90.3181L28.6258 90.3464L28.6274 90.3489L28.6452 90.3768L28.6508 90.3858L28.6683 90.413L28.6726 90.4195L28.6897 90.4463L28.692 90.4497L28.7109 90.4793L28.7146 90.4848L28.733 90.5138L28.7374 90.5202L28.7549 90.5475L28.7569 90.5504L28.7755 90.5796L28.7799 90.5861L28.7984 90.6148L28.8021 90.6203L28.8199 90.6483L28.8219 90.6512L28.8408 90.6801L28.845 90.6867L28.8633 90.7147L28.8679 90.722L28.8854 90.7488L28.8878 90.7523L28.906 90.7805L28.9109 90.7878L28.9295 90.8166L28.9328 90.8215L28.9516 90.8502L28.9532 90.8526L28.9724 90.882L28.9764 90.888L28.9947 90.9164L28.9996 90.9237L29.0175 90.9511L29.0189 90.9532L29.0381 90.9824L29.0427 90.9894L29.0612 91.0176L29.0653 91.0238L29.084 91.0521L29.0853 91.054L29.1046 91.0834L29.1088 91.0897L29.1277 91.1182L29.1318 91.1243L29.1511 91.1538L29.1758 91.1906L29.1946 91.2193L29.2187 91.2553L29.2384 91.2851L29.2423 91.2909L29.2611 91.3193L29.3098 91.3919L29.3289 91.4208L29.3529 91.4566C30.9089 93.7698 32.6056 95.9852 34.4332 98.0903L34.4514 98.1114L34.4563 98.117L34.47 98.1328L34.4754 98.1392L34.4928 98.1591L34.4932 98.1597L34.5109 98.1798L34.5177 98.1879L34.529 98.201L34.5363 98.2093L34.5493 98.2242L34.5539 98.2293C34.5598 98.2363 34.5653 98.2428 34.5714 98.2494L34.5775 98.2565L34.5893 98.2702L34.5968 98.2786L34.6101 98.2938L34.614 98.2983L34.6317 98.3188L34.6371 98.325L34.6507 98.3404L34.656 98.3466L34.6703 98.3629L34.6743 98.3675L34.6924 98.3882L34.6968 98.393L34.7108 98.409L34.7167 98.4158L34.7306 98.4316L34.7349 98.4365L34.7522 98.4564L34.7587 98.4637L34.771 98.4778L34.7772 98.4849L34.7906 98.5001L34.7952 98.5052L34.8134 98.5259L34.8166 98.5297L34.8315 98.5467L34.838 98.554L34.8509 98.5686L34.8557 98.5741L34.8739 98.5948L34.877 98.5981C34.8818 98.6038 34.8873 98.61 34.8925 98.6156L34.898 98.6221L34.9108 98.6367L34.9167 98.6433L34.9337 98.6624L34.9354 98.6642L34.9527 98.684L34.9592 98.6913L34.9716 98.7052L34.9774 98.7118L34.9909 98.727L34.9992 98.7362L35.0132 98.7522L35.0205 98.7604L35.0315 98.7729L35.0386 98.7807L35.0513 98.7951L35.0572 98.8018L35.0738 98.8205L35.0812 98.8289L35.0931 98.842L35.0989 98.8485L35.1125 98.864L35.1179 98.8698L35.1355 98.8899L35.1402 98.895L35.1538 98.9101L35.1597 98.9169L35.1745 98.9333L35.1784 98.9377L35.1967 98.958L35.2006 98.9625L35.215 98.9787L35.2207 98.985L35.2333 98.9993L35.2402 99.0068L35.2576 99.0264L35.2608 99.0299L35.2758 99.0466L35.2815 99.0529L35.296 99.069L35.3002 99.0739L35.3185 99.0941L35.3215 99.0976L35.3371 99.1149L35.3422 99.1204L35.3564 99.1363L35.3617 99.1421L35.3797 99.162L35.382 99.1647L35.3974 99.1818L35.404 99.1891L35.4176 99.2042L35.4227 99.2097L35.4592 99.25L35.4649 99.2565L35.4782 99.2711L35.4842 99.2779L35.5001 99.2954L35.5023 99.2979L35.5205 99.3181L35.5256 99.3236L35.5394 99.339L35.5458 99.3457L35.5572 99.3585L35.5644 99.3664L35.582 99.3856L35.5868 99.391L35.6006 99.406L35.6071 99.4133L35.6206 99.4282L35.6251 99.4332L35.6426 99.4522L35.6492 99.4596L35.6625 99.4741L35.6678 99.48L35.6807 99.494L35.6873 99.5014L35.7042 99.5196L35.712 99.5285L35.722 99.5394L35.731 99.5493L35.7416 99.561L35.7487 99.5685L35.7661 99.5873L35.7717 99.5936L35.785 99.6082L35.7911 99.6149L35.8034 99.6283L35.8103 99.6358L35.828 99.6552L35.8307 99.6581L35.8461 99.6748L35.8531 99.6825L35.8654 99.6959L35.8715 99.7026L35.8862 99.7186L35.8934 99.7262L35.9087 99.743L35.9132 99.7479L35.9274 99.7632L35.9332 99.7695L35.9511 99.7891L35.9513 99.7893C35.9574 99.7957 35.9642 99.803 35.97 99.8096L35.9755 99.8153L35.9893 99.8303L35.9945 99.8359L36.0094 99.8522L36.0138 99.8568L36.0321 99.8767L36.0369 99.8817L36.0499 99.8958L36.0571 99.9038L36.0712 99.9188L36.0755 99.9234L36.0933 99.9427L36.0992 99.9491L36.1127 99.9635L36.1182 99.9697L36.132 99.9844L36.1375 99.9904L36.156 100.01L36.1588 100.013L36.1744 100.03L36.1801 100.036L36.1946 100.052L36.1992 100.057L36.2175 100.076L36.2222 100.081L36.2363 100.096L36.2422 100.103L36.2556 100.117L36.2613 100.123L36.2801 100.143L36.2813 100.145L36.2976 100.162L36.305 100.17L36.3181 100.184L36.323 100.189L36.3419 100.209L36.3432 100.211L36.3602 100.229L36.3662 100.235L36.3796 100.25L36.3853 100.256L36.4232 100.296L36.4271 100.3L36.443 100.317L36.4469 100.321L36.4656 100.341L36.4658 100.341L36.4858 100.363L36.4883 100.365L36.5049 100.383L36.5089 100.387L36.5473 100.428L36.5517 100.432L36.5664 100.448L36.5719 100.454L36.5887 100.472L36.5903 100.473L36.6099 100.494L36.613 100.497L36.6286 100.514L36.634 100.519L36.6514 100.538L36.6523 100.539L36.672 100.559L36.6757 100.563L36.6909 100.579L36.6968 100.586L36.7099 100.599L36.716 100.606L36.7341 100.625L36.7392 100.63L36.7526 100.644L36.7601 100.652L36.7725 100.665L36.7782 100.671L36.7964 100.69L36.8017 100.696L36.8155 100.71L36.8218 100.717L36.8348 100.73L36.8409 100.737L36.8591 100.756L36.8623 100.759L36.8777 100.775L36.8847 100.782L36.8985 100.797L36.9026 100.801C36.9146 100.814 36.9289 100.829 36.9414 100.841L36.9462 100.847L36.96 100.861L36.966 100.867L36.9825 100.884L36.9849 100.887L37.003 100.906L37.0101 100.913L37.0223 100.926L37.029 100.933L37.0414 100.946L37.0505 100.955L37.0657 100.971L37.0731 100.978L37.0847 100.99L37.0918 100.998L37.1058 101.012L37.1107 101.017L37.1287 101.036L37.1349 101.042L37.1486 101.057L37.1534 101.062L37.1698 101.078L37.1731 101.082L37.1922 101.102L37.1964 101.106L37.2104 101.12L37.2177 101.128C37.2228 101.133 37.226 101.137 37.2315 101.142L37.2361 101.147L37.2554 101.167L37.2572 101.168L37.275 101.187L37.2785 101.191L37.295 101.207L37.2989 101.211L37.3373 101.251L37.3421 101.256L37.3574 101.272L37.3618 101.276L37.3809 101.296L37.3827 101.298L37.401 101.316L37.4036 101.319L37.4214 101.337L37.4242 101.34L37.4635 101.38L37.4676 101.384L37.484 101.401L37.4874 101.404L37.5269 101.445L37.5297 101.448L37.5462 101.464L37.5512 101.469L37.5899 101.509L37.5932 101.512L37.6099 101.529L37.6137 101.533L37.6312 101.551L37.6335 101.553L37.6532 101.573L37.6556 101.575L37.6733 101.593L37.6766 101.597L37.6948 101.615L37.6963 101.616L37.7162 101.637L37.719 101.64L37.7365 101.657L37.7399 101.661L37.7576 101.678L37.7597 101.681L37.8 101.721L37.8027 101.724L37.8218 101.743L37.8223 101.744L37.8635 101.785L37.8657 101.787L37.8838 101.805L37.8862 101.808L37.9902 101.912L37.9919 101.914L38.0103 101.932L38.0131 101.935L38.0536 101.975L38.0556 101.977L38.0739 101.996L38.0764 101.998L38.137 102.058L38.1402 102.062L38.2013 102.122L38.2029 102.124L38.222 102.143L38.2239 102.145L38.2643 102.185L38.2671 102.187L38.2867 102.207L38.2869 102.207L38.3283 102.248L38.3304 102.25L38.3487 102.268L38.3514 102.271L38.3912 102.31L38.3949 102.314L38.414 102.332C38.4136 102.332 38.4145 102.333 38.414 102.332L38.4764 102.394L38.4785 102.396L38.52 102.436L38.5204 102.437L38.5412 102.457L38.5415 102.457L38.6042 102.519L38.606 102.521L38.6475 102.561L38.6484 102.562L38.6684 102.581L38.6698 102.582L38.7313 102.642L38.7346 102.646L38.7967 102.706L38.7969 102.706C38.8185 102.727 38.8391 102.747 38.8603 102.767L38.8614 102.768C38.9327 102.837 39.0017 102.904 39.073 102.972L39.0752 102.974L39.2669 103.157L39.331 103.218L39.3315 103.219L39.4163 103.299L39.4175 103.3L39.5454 103.421L39.5462 103.421L39.5883 103.461L39.5903 103.463L39.6103 103.482L39.6105 103.482L39.6737 103.541L39.6763 103.544L39.7392 103.603L39.74 103.603L39.7595 103.622L39.7617 103.624L39.8036 103.663L39.805 103.664L39.933 103.783L39.9342 103.784C39.9845 103.831 40.0336 103.876 40.0841 103.923L40.0852 103.924C49.3198 112.438 59.8385 117.616 68.1037 117.945C68.1358 117.946 68.1681 117.947 68.2 117.948C68.2375 117.95 68.2751 117.951 68.3127 117.952C69.0064 117.974 69.7007 117.959 70.3927 117.906L70.3946 117.906L70.4084 117.905L70.4116 117.905L70.4251 117.904L70.428 117.904L70.4417 117.903L70.4445 117.902L70.5207 117.896L70.524 117.896L70.5366 117.895L70.5411 117.894L70.5533 117.893L70.5576 117.893L70.5701 117.892L70.5744 117.891C70.5786 117.891 70.5828 117.891 70.587 117.89L70.5898 117.89L70.6513 117.884L70.6522 117.884L70.6655 117.883L70.6693 117.883L70.681 117.882L70.6867 117.881C70.6904 117.881 70.6938 117.881 70.6973 117.88L70.7036 117.88L70.7148 117.879L70.7192 117.878L70.7317 117.877L70.7347 117.877L70.7949 117.871L70.7969 117.87L70.8094 117.869L70.8138 117.869L70.825 117.868L70.8314 117.867L70.8418 117.866L70.8477 117.865L70.8587 117.864L70.8645 117.863L70.8755 117.862L70.881 117.862L70.8922 117.861L70.8959 117.86L70.9226 117.857L70.9244 117.857L70.9353 117.856L70.9419 117.855L70.9505 117.854C70.9533 117.854 70.9561 117.853 70.9589 117.853L70.9679 117.852L70.9758 117.851L70.9847 117.85L70.9923 117.849L71.002 117.848L71.0094 117.848L71.0185 117.847L71.0261 117.846L71.0357 117.845L71.0366 117.844L71.0632 117.841L71.068 117.841L71.0774 117.84L71.0855 117.839L71.0937 117.838L71.1024 117.837L71.1109 117.836L71.1193 117.835L71.1277 117.834L71.1361 117.833L71.1447 117.832L71.1534 117.831L71.1615 117.83L71.1705 117.828L71.1784 117.828L71.1948 117.826L71.1992 117.825L71.2115 117.823L71.2189 117.823L71.2284 117.821L71.2358 117.82L71.2453 117.819L71.253 117.818L71.2626 117.817L71.2695 117.816L71.2794 117.815L71.2868 117.814L71.2966 117.812L71.3034 117.812L71.3145 117.81L71.3204 117.809L71.3372 117.807L71.3399 117.807L71.3536 117.805L71.3609 117.804L71.3706 117.803L71.3776 117.802L71.3876 117.8L71.3944 117.799C71.3973 117.799 71.402 117.798 71.4051 117.798L71.4112 117.797L71.422 117.796L71.4282 117.795L71.44 117.793L71.4448 117.792L71.4791 117.787L71.4801 117.787L71.4957 117.785L71.5004 117.784L71.5129 117.783L71.5176 117.782L71.53 117.78L71.5348 117.779L71.5472 117.778L71.5516 117.777L71.5643 117.775L71.5688 117.774L71.6204 117.767L71.6369 117.764L71.6405 117.764L71.6541 117.762L71.6578 117.761L71.6712 117.759L71.6752 117.758L71.6888 117.756L71.692 117.756L71.7069 117.753L71.7088 117.753L71.7779 117.742L71.7798 117.742L71.7946 117.739L71.7978 117.739L71.8117 117.736L71.8148 117.736L71.8296 117.733L71.8314 117.733L71.8476 117.73L71.8485 117.73L71.9177 117.719L71.9187 117.718L71.9355 117.715C72.1126 117.685 72.2879 117.652 72.4612 117.615C73.4603 117.405 74.3924 116.952 75.1759 116.297C75.9594 115.643 76.5704 114.806 76.9555 113.86C77.3405 112.915 77.4878 111.889 77.3845 110.873C77.2811 109.858 76.9302 108.883 76.3626 108.034L76.3623 108.034Z" fill="#69341C"/>
<path d="M70.7548 85.9712C69.2935 83.7998 67.7001 81.7202 65.9836 79.7443L65.9514 79.7072L65.9472 79.7023L65.9167 79.6673L65.911 79.6606L65.8813 79.6269L65.8747 79.6191L65.8456 79.5856L65.8395 79.5785L65.8091 79.5436L65.8056 79.5399L65.7766 79.5065L65.7716 79.5007L65.742 79.467L65.7351 79.4592L65.7067 79.4266L65.6989 79.4177L65.6704 79.3851L65.6634 79.3772L65.6342 79.3441L65.6282 79.3372L65.6008 79.3062L65.5959 79.3006L65.5673 79.2681L65.5591 79.2586L65.5317 79.2276L65.5225 79.2174L65.4959 79.1871L65.486 79.1759L65.4593 79.1459L65.4501 79.1356L65.4272 79.1096L65.415 79.096L65.3918 79.0697L65.3828 79.0598L65.356 79.0296L65.346 79.0182L65.3201 78.9891L65.3093 78.9771L65.2838 78.9485L65.2724 78.9357L65.2515 78.9123L65.2367 78.8957L65.2169 78.8736L65.2037 78.8589L65.1813 78.8338L65.1686 78.8198L65.145 78.7933L65.1317 78.7788L65.1079 78.7524L65.0948 78.7377L65.0751 78.7157L65.059 78.6979L65.0405 78.6774L65.0233 78.6584L65.005 78.6381L64.9913 78.6229L64.9685 78.5977L64.9542 78.582L64.9317 78.5571L64.9168 78.5406L64.8999 78.5223L64.8797 78.4999L64.8662 78.485L64.8423 78.4588L64.8296 78.4448L64.8073 78.4203L64.7927 78.404L64.7767 78.3866L64.7549 78.3627L64.74 78.3464L64.7231 78.3279L64.7018 78.3046L64.689 78.2907L64.6654 78.2649L64.652 78.2502L64.6289 78.2253L64.6148 78.2098L64.5963 78.1896L64.5779 78.1695L64.561 78.1513L64.5468 78.1357L64.524 78.1111L64.5119 78.098L64.4861 78.07L64.476 78.0592C64.4666 78.0489 64.4571 78.0387 64.4476 78.0284L64.4389 78.0188L64.4065 77.9842L64.4018 77.9789L64.3445 77.9173L64.3385 77.9107L64.3059 77.8758L64.3006 77.87L64.2677 77.8349L64.2617 77.8284L64.2272 77.7914L64.224 77.7879L64.1656 77.7254L64.1647 77.7248L64.1275 77.685L64.1228 77.6797L64.0892 77.644L64.0841 77.6389L64.0478 77.6001L64.0464 77.5987L63.9483 77.4945L63.9468 77.4932L63.9084 77.4524L63.908 77.4518C61.6477 75.0596 59.2116 72.8399 56.6201 70.8113C55.7492 70.1381 54.6472 69.8374 53.5551 69.9751C52.4631 70.1128 51.4701 70.6776 50.7937 71.5459C50.1172 72.4141 49.8124 73.5151 49.946 74.6076C50.0796 75.7002 50.6407 76.6952 51.5064 77.375C54.4823 79.7103 57.2247 82.3288 59.6952 85.1935C61.1875 86.9106 62.573 88.7178 63.8437 90.6048C64.4581 91.5212 65.4114 92.1561 66.494 92.3697C67.5765 92.5833 68.6995 92.3581 69.616 91.7437C70.5325 91.1292 71.1673 90.1759 71.3809 89.0934C71.5945 88.0109 71.3693 86.8879 70.7549 85.9714L70.7548 85.9712Z" fill="#A77554"/>
<path d="M81.1019 78.991L81.0813 78.9606C79.3453 76.3852 77.4543 73.9176 75.4189 71.5715C69.0415 64.205 61.5173 58.1587 53.6597 54.0865C53.1744 53.8324 52.6437 53.6767 52.098 53.6283C51.5524 53.5798 51.0026 53.6396 50.4801 53.8042C49.9577 53.9688 49.4728 54.2349 49.0535 54.5874C48.6341 54.9398 48.2885 55.3716 48.0364 55.8579C47.7844 56.3442 47.6308 56.8756 47.5846 57.4214C47.5384 57.9672 47.6005 58.5168 47.7672 59.0386C47.9339 59.5604 48.2021 60.0441 48.5562 60.462C48.9104 60.8799 49.3436 61.2237 49.8309 61.4738C52.6969 62.9723 55.436 64.7018 58.021 66.6453L58.0212 66.6456L58.1319 66.7284L58.1357 66.7313L58.1761 66.7617L58.1792 66.7639L58.2453 66.8135L58.2466 66.8147L58.288 66.8461L58.2926 66.8494L58.3331 66.88L58.336 66.8823L58.4013 66.9317L58.4052 66.9347L58.4441 66.9643L58.4489 66.9681L58.5131 67.0169L58.5192 67.0214L58.5569 67.0502L58.5623 67.0541L58.5996 67.0828L58.6057 67.0874L58.6685 67.1355L58.6775 67.1424L58.7101 67.1675L58.7199 67.175C58.7302 67.1827 58.7391 67.1896 58.7491 67.1977L58.7624 67.2076L58.7809 67.2219L58.7938 67.2318L58.8221 67.2537L58.8348 67.2635L58.8618 67.2841L58.8769 67.2961L58.894 67.309L58.9184 67.3279L58.9351 67.3409L58.9517 67.3537L58.9748 67.3718L58.9913 67.3845L59.0086 67.398L59.033 67.4169L59.0476 67.4282L59.0713 67.4468L59.0889 67.4604L59.1063 67.4741L59.1274 67.4904L59.1465 67.5053L59.1618 67.5173L59.1878 67.5375L59.2019 67.5487L59.225 67.5668L59.2411 67.5795L59.2613 67.5953L59.2751 67.606L59.3018 67.627L59.3153 67.6377L59.343 67.6593L59.3554 67.6691L59.3768 67.686L59.3933 67.6991L59.4163 67.7172L59.4292 67.7274L59.4566 67.7489L59.4695 67.7591L59.4977 67.7815L59.5071 67.789L59.5314 67.8084L59.5422 67.8167L59.5717 67.8401L59.5819 67.8483L59.6114 67.8717L59.6226 67.8806C59.6309 67.8871 59.64 67.8943 59.6481 67.9011L59.6578 67.9087L59.6855 67.9307L59.6962 67.9393L59.7255 67.9626C59.729 67.9655 59.7325 67.9683 59.736 67.9711L59.7661 67.9948L59.7745 68.0018L59.8011 68.023L59.809 68.0294L59.8393 68.0537L59.8494 68.0617L59.88 68.0863L59.8882 68.093L59.9187 68.1174L59.924 68.1219L59.9554 68.147L59.9622 68.1526L59.9943 68.1783L60.0019 68.1844L60.0342 68.2107L60.0401 68.2155L60.0698 68.2394L60.0759 68.2445L60.1088 68.271L60.1148 68.2759L60.1485 68.3033L60.1536 68.3074L60.2235 68.3641L60.2287 68.3684L60.2625 68.396L60.2675 68.3999L60.3026 68.4287L60.304 68.4299L60.341 68.4602L60.3767 68.4892L60.3812 68.4932L60.4157 68.5212L60.4196 68.5245L60.4932 68.585L60.4937 68.5854L60.5303 68.6154L60.533 68.6177L60.6834 68.7418L60.6845 68.7428C63.5067 71.0855 66.1451 73.6412 68.5764 76.3875L68.5765 76.3877C68.6226 76.4399 68.6685 76.4916 68.7145 76.5441L68.7154 76.5451C68.7497 76.5841 68.7834 76.6221 68.8177 76.6613L68.8194 76.6632L68.8525 76.7009L68.8542 76.7028L68.9205 76.7788L68.923 76.7816L68.9553 76.8186L68.9578 76.8216L68.9906 76.8593L68.9914 76.8602L69.0244 76.8979L69.0255 76.8995L69.0568 76.9353L69.062 76.9413L69.0924 76.9761L69.097 76.9816L69.1283 77.0177C70.956 79.1228 72.6526 81.3382 74.2086 83.6514L74.2765 83.7526L74.2911 83.7747L74.3216 83.8203L74.3279 83.8301L74.343 83.8526L74.357 83.8738L74.3727 83.8973L74.3793 83.9074L74.3945 83.9301L74.4026 83.9425L74.4098 83.9532L74.4235 83.974L74.4322 83.987L74.4375 83.9952L74.4473 84.0099L74.452 84.0172L74.4624 84.0327L74.4648 84.0367C74.5557 84.1746 74.6459 84.3125 74.7354 84.4505C74.7537 84.4787 74.7726 84.5065 74.7919 84.534C74.8139 84.5704 74.8364 84.6068 74.8597 84.6428C77.6973 89.0555 79.7133 93.4382 80.8543 97.5064L80.88 97.5988L80.8803 97.6L80.9004 97.6727L80.9007 97.6737L80.9056 97.6915L80.9058 97.6923L80.9209 97.747L80.921 97.7474L80.9254 97.7635L80.9263 97.7673L80.9307 97.7836L80.9313 97.7856L80.9506 97.8572L80.9512 97.8591L80.9557 97.8763L80.9563 97.8778L80.9707 97.932L80.9708 97.9321L80.9752 97.9492L80.976 97.9517L80.9804 97.9684L80.981 97.9704C80.9859 97.9882 80.9904 98.0061 80.995 98.0239L80.9954 98.0244L80.9995 98.04L81.001 98.0457L81.0048 98.0606L81.0055 98.0634L81.0186 98.1137L81.0197 98.1177L81.0235 98.1323L81.025 98.1379L81.0288 98.1527L81.0295 98.1555L81.0426 98.2059L81.0434 98.2096L81.0476 98.2249L81.0487 98.2297L81.0527 98.2447L81.0535 98.2481L81.0659 98.2971L81.0673 98.3023L81.0708 98.3159L81.0727 98.3233L81.0758 98.336L81.0777 98.343L81.0894 98.3891L81.0904 98.3941L81.0941 98.4081L81.0957 98.4147L81.0993 98.4288L81.0997 98.4308L81.107 98.4599L81.1087 98.4663L81.1119 98.479L81.114 98.4875L81.1168 98.4994L81.1189 98.5074L81.1297 98.5516L81.1315 98.5584L81.1348 98.5714L81.1366 98.5789L81.1395 98.591L81.1417 98.5999L81.1447 98.6117L81.1493 98.6305L81.1517 98.6404L81.1542 98.6504L81.157 98.6622L81.159 98.6709L81.162 98.683L81.1637 98.6905L81.1746 98.7351L81.1761 98.7412L81.1794 98.7552L81.181 98.7614L81.1839 98.7742L81.1861 98.7831L81.1911 98.8046L81.1934 98.8132L81.196 98.8248L81.198 98.8334L81.2009 98.8455L81.2031 98.8543L81.2058 98.8661L81.2076 98.8736L81.2128 98.8962L81.2149 98.9044L81.2175 98.9158L81.2197 98.9249L81.2225 98.9371L81.2244 98.9452L81.2272 98.9572L81.229 98.9651L81.234 98.9865L81.2361 98.9961L81.2389 99.0076L81.2407 99.0158L81.2436 99.0282L81.2457 99.0369L81.2482 99.0481L81.251 99.0605L81.2547 99.0763L81.2574 99.0872L81.2598 99.0978L81.2618 99.1075L81.2645 99.1193L81.2665 99.1285L81.2687 99.1388L81.2722 99.1536L81.2753 99.1665L81.278 99.179L81.2801 99.188L81.2827 99.1996L81.2847 99.2089L81.2876 99.2213L81.2895 99.2301L81.2936 99.2489L81.296 99.259L81.2982 99.2693L81.3006 99.2799L81.3028 99.2899L81.3054 99.3007L81.3078 99.312L81.3096 99.3203L81.3139 99.3397L81.3159 99.349L81.3185 99.3606L81.3207 99.3709L81.3226 99.38L81.3253 99.3918L81.3272 99.4006L81.3311 99.4182L81.3337 99.4305L81.3359 99.4408L81.3381 99.4511L81.3404 99.4615L81.3424 99.4705L81.3449 99.4826L81.3472 99.4924L81.3499 99.5047L81.3532 99.521L81.3554 99.5312L81.3575 99.5413L81.3599 99.5522L81.362 99.562L81.3642 99.5723L81.3669 99.5855L81.3696 99.5983L81.3725 99.6116L81.3747 99.6212L81.3769 99.6326L81.3788 99.6414L81.3813 99.6538L81.3833 99.6624L81.3864 99.6783L81.3886 99.6886L81.3914 99.7022L81.3932 99.7104L81.396 99.7238L81.3974 99.7315L81.4005 99.7455L81.4018 99.7523L81.4062 99.7729L81.4064 99.7746L81.4102 99.7936L81.4115 99.7998L81.4145 99.8144L81.416 99.8215L81.4189 99.8352L81.4203 99.8427L81.4245 99.8629L81.425 99.8661L81.4285 99.8833L81.4299 99.8906L81.4328 99.9043L81.4341 99.9116L81.4374 99.9277L81.4383 99.9321L81.4423 99.9529L81.4434 99.9569L81.4465 99.9735L81.448 99.9806L81.4508 99.9949L81.452 100.001L81.455 100.017L81.4561 100.023L81.4602 100.043L81.4611 100.047L81.4643 100.064L81.4654 100.07L81.4685 100.086L81.4696 100.091L81.4728 100.108L81.4737 100.112L81.4776 100.132L81.4789 100.138L81.4817 100.153L81.4829 100.16L81.4857 100.175L81.487 100.181L81.4902 100.198L81.4913 100.204L81.4947 100.222L81.4957 100.228L81.4987 100.243L81.5 100.25L81.5028 100.265L81.5039 100.27L81.5116 100.312L81.5127 100.317L81.5155 100.333L81.5167 100.339L81.5198 100.356L81.5204 100.359L81.5243 100.381L81.5247 100.383L81.5282 100.402L81.529 100.406L81.532 100.423L81.533 100.428L81.5362 100.446L81.5367 100.449L81.5406 100.47L81.541 100.472L81.5443 100.491L81.5451 100.496L81.5483 100.512L81.5493 100.517L81.5523 100.535L81.5529 100.538L81.5567 100.559L81.5575 100.564L81.5602 100.58L81.5613 100.585L81.5641 100.601L81.5649 100.606L81.5725 100.649L81.5725 100.65L81.5761 100.67L81.5766 100.673L81.5798 100.692L81.5803 100.695L81.5877 100.737L81.588 100.74L81.5915 100.759L81.5919 100.762L81.5953 100.782L81.5954 100.783L81.6027 100.827L81.6031 100.828L81.6063 100.848L81.6067 100.851L81.61 100.87L81.6104 100.872L81.6175 100.915L81.6179 100.917L81.6212 100.938L81.6214 100.939L81.6319 101.004L81.6323 101.006L81.6353 101.025L81.6358 101.028L81.6458 101.092L81.6464 101.095L81.6495 101.114L81.6498 101.116L81.6598 101.181L81.6601 101.183L81.6632 101.203L81.6635 101.204L81.6732 101.268L81.6738 101.272L81.6767 101.29L81.6769 101.293L81.6865 101.357L81.6868 101.359L81.69 101.38L81.69 101.38L81.6993 101.445L81.6998 101.448L81.712 101.533L81.7123 101.535L81.7212 101.599L81.7215 101.601L81.7241 101.62L81.7246 101.623L81.7274 101.643L81.7275 101.644L81.7333 101.687L81.7334 101.687L81.7362 101.708L81.7363 101.71L81.7478 101.796L81.7479 101.797L81.7563 101.862L81.7565 101.862L81.759 101.883L81.7593 101.884C81.7759 102.016 81.7914 102.144 81.8061 102.275C82.0429 104.189 82.0026 106.127 81.6866 108.029L81.6864 108.03L81.6732 108.103L81.6731 108.103C81.4738 109.189 81.7137 110.309 82.3401 111.217C82.9665 112.125 83.9282 112.748 85.0134 112.947C86.0987 113.146 87.2186 112.906 88.127 112.28C89.0353 111.653 89.6576 110.692 89.857 109.607C91.4258 101.067 88.5851 90.603 81.8582 80.1422C81.8435 80.1195 81.8286 80.097 81.8135 80.0745L81.7976 80.0507C81.7717 80.0081 81.7449 79.9658 81.7172 79.9238L81.1556 79.0721C81.1379 79.0449 81.12 79.0178 81.1018 78.9908L81.1019 78.991Z" fill="#3D180B"/>
<path d="M43.7111 90.4597C44.3509 91.414 45.6431 91.669 46.5974 91.0292C47.5517 90.3894 47.8066 89.0972 47.1669 88.1429C46.5271 87.1886 45.2349 86.9337 44.2806 87.5734C43.3263 88.2132 43.0714 89.5054 43.7111 90.4597Z" fill="#4D2100"/>
<path d="M55.2168 77.7371C55.8566 78.6913 57.1488 78.9463 58.1031 78.3065C59.0574 77.6668 59.3124 76.3745 58.6726 75.4203C58.0328 74.466 56.7406 74.211 55.7863 74.8508C54.832 75.4905 54.5771 76.7828 55.2168 77.7371Z" fill="#69341C"/>
<path d="M58.7504 105.421C60.6697 108.284 64.5462 109.049 67.409 107.129C70.2717 105.21 71.0366 101.334 69.1174 98.4708C67.1981 95.6081 63.3216 94.8432 60.4588 96.7624C57.5961 98.6817 56.8312 102.558 58.7504 105.421Z" fill="#69341C"/>
<path d="M76.0286 93.8376C76.6683 94.7919 77.9605 95.0469 78.9148 94.4071C79.8691 93.7674 80.1241 92.4751 79.4843 91.5208C78.8445 90.5666 77.5523 90.3116 76.598 90.9514C75.6437 91.5911 75.3888 92.8834 76.0286 93.8376Z" fill="#4D2100"/>
<path d="M39.0388 68.5481C39.6786 69.5024 40.9708 69.7573 41.9251 69.1176C42.8794 68.4778 43.1343 67.1856 42.4946 66.2313C41.8548 65.277 40.5626 65.0221 39.6083 65.6618C38.654 66.3016 38.399 67.5938 39.0388 68.5481Z" fill="#69341C"/>
<path d="M74.8119 69.6091C75.4517 70.5634 76.7439 70.8184 77.6982 70.1786C78.6525 69.5388 78.9074 68.2466 78.2677 67.2923C77.6279 66.338 76.3357 66.0831 75.3814 66.7229C74.4271 67.3626 74.1722 68.6548 74.8119 69.6091Z" fill="#4D2100"/>
<path d="M62.1088 65.6034C63.3883 67.5118 65.9727 68.0217 67.8811 66.7423C69.7896 65.4628 70.2995 62.8785 69.02 60.97C67.7406 59.0615 65.1562 58.5516 63.2478 59.8311C61.3393 61.1106 60.8294 63.6949 62.1088 65.6034Z" fill="#3D180B"/>
<path d="M100.16 55.1197C101.439 57.0282 104.024 57.5381 105.932 56.2586C107.841 54.9792 108.35 52.3948 107.071 50.4864C105.792 48.5779 103.207 48.068 101.299 49.3475C99.3902 50.6269 98.8803 53.2113 100.16 55.1197Z" fill="#3D180B"/>
<path d="M90.9708 71.298C92.2503 73.2064 94.8346 73.7163 96.7431 72.4369C98.6515 71.1574 99.1614 68.573 97.882 66.6646C96.6025 64.7561 94.0182 64.2462 92.1097 65.5257C90.2012 66.8051 89.6913 69.3895 90.9708 71.298Z" fill="#4D2100"/>
</g>
<defs>
<clipPath id="clip0_1_4950">
<rect width="99.8489" height="99.8489" fill="white" transform="translate(83.8649 0.929688) rotate(56.1614)"/>
</clipPath>
</defs>
</svg>
