<svg width="28" height="28" viewBox="0 0 28 28" fill="none" xmlns="http://www.w3.org/2000/svg">
<g id="linkedin-icon">
<path id="Path 2520" d="M21.393 21.3203H18.2815V16.4955C18.2815 15.345 18.2607 13.8639 16.6631 13.8639C15.0425 13.8639 14.7946 15.1175 14.7946 16.4118V21.32H11.683V11.3982H14.6701V12.7542H14.7119C15.0109 12.2481 15.4428 11.8317 15.9618 11.5495C16.4808 11.2673 17.0674 11.1297 17.6592 11.1515C20.8128 11.1515 21.3943 13.2054 21.3943 15.8774L21.393 21.3203ZM8.17217 10.042C7.81505 10.0421 7.46591 9.93728 7.16893 9.74088C6.87196 9.54447 6.64049 9.26528 6.50376 8.93861C6.36704 8.61195 6.3312 8.25247 6.40081 7.90564C6.47042 7.55881 6.64234 7.24021 6.89483 6.99013C7.14731 6.74004 7.46902 6.56971 7.81927 6.50066C8.16952 6.43161 8.53258 6.46695 8.86255 6.60221C9.19252 6.73747 9.47456 6.96658 9.67303 7.26056C9.87149 7.55454 9.97746 7.90019 9.97752 8.2538C9.97756 8.48859 9.93089 8.72109 9.84019 8.93802C9.74948 9.15495 9.61653 9.35207 9.44889 9.51812C9.28125 9.68417 9.0822 9.8159 8.86314 9.90579C8.64408 9.99568 8.4093 10.042 8.17217 10.042ZM9.72794 21.3203H6.61316V11.3982H9.72794V21.3203ZM22.9442 3.60518H5.04962C4.64346 3.60064 4.25208 3.75595 3.96151 4.03697C3.67094 4.318 3.50496 4.70175 3.5 5.1039V22.8958C3.50479 23.2981 3.67067 23.6821 3.96123 23.9635C4.25179 24.2448 4.64326 24.4004 5.04962 24.3961H22.9442C23.3514 24.4012 23.744 24.246 24.0357 23.9647C24.3274 23.6834 24.4944 23.2989 24.5 22.8958V5.10262C24.4942 4.69967 24.3271 4.31548 24.0354 4.03446C23.7436 3.75344 23.3512 3.59858 22.9442 3.60389" fill="#0A66C2"/>
</g>
</svg>
