<svg width="1112" height="250" viewBox="0 0 1112 250" fill="none" xmlns="http://www.w3.org/2000/svg">
<rect width="250" height="250" rx="56.8636" fill="#055E40"/>
<path d="M117.004 190.892L138.345 110.207L138.345 110.207C139.614 105.41 140.248 103.011 138.922 101.255C137.597 99.4993 135.258 99.4548 130.581 99.3659C109.456 98.9645 102.53 106.226 101.798 110.449L79.4801 195.8C78.1865 200.747 77.5397 203.22 78.948 204.992C80.3564 206.763 82.7497 206.695 87.5362 206.559C108.571 205.96 115.675 197.584 116.706 192.343C116.864 191.542 116.943 191.142 116.959 191.071C116.975 191 116.985 190.964 117.004 190.892Z" fill="white"/>
<path d="M173.834 143.975L183.545 109.96C184.93 105.11 185.622 102.685 184.256 100.883C182.889 99.0811 180.55 99.0929 175.872 99.1164C155.289 99.2197 147.504 108.283 146.197 113.491L135.749 149.83C134.398 154.529 133.722 156.879 135.054 158.675C136.385 160.471 138.62 160.505 143.089 160.572C163.812 160.883 172.201 150.167 173.834 143.975Z" fill="white"/>
<path d="M96.3852 92.7706L175.331 93.4322C180.338 93.4741 182.842 93.4951 184.214 91.7144C185.587 89.9337 184.978 87.6932 183.759 83.2122C178.339 63.2885 167.547 58.1001 162.171 58.186L80.7853 57.4102C75.9352 57.364 73.5101 57.3409 72.1349 59.0856C70.7597 60.8303 71.2981 62.9811 72.3749 67.2827C77.4238 87.4516 89.9724 92.7965 96.3852 92.7706Z" fill="#FDB022"/>
<path d="M1055.61 201.043C1048.36 201.043 1041.97 199.79 1036.43 197.285C1031.02 194.648 1026.8 191.088 1023.77 186.606C1020.74 181.991 1019.22 176.585 1019.22 170.388C1019.22 164.587 1020.47 159.379 1022.98 154.764C1025.62 150.15 1029.64 146.26 1035.04 143.096C1040.45 139.932 1047.24 137.69 1055.41 136.372L1092.6 130.241L1092.6 147.842L1059.77 153.578C1053.83 154.633 1049.48 156.544 1046.71 159.313C1043.94 161.95 1042.56 165.378 1042.56 169.597C1042.56 173.685 1044.08 177.047 1047.11 179.684C1050.27 182.189 1054.29 183.441 1059.17 183.441C1065.24 183.441 1070.51 182.123 1074.99 179.486C1079.61 176.849 1083.17 173.355 1085.67 169.004C1088.18 164.521 1089.43 159.577 1089.43 154.171L1089.43 126.681C1089.43 121.407 1087.45 117.122 1083.5 113.826C1079.67 110.398 1074.53 108.684 1068.07 108.684C1062.14 108.684 1056.93 110.266 1052.45 113.43C1048.1 116.463 1044.87 120.418 1042.76 125.297L1024.17 116.001C1026.14 110.727 1029.37 106.113 1033.86 102.157C1038.34 98.0701 1043.55 94.9058 1049.48 92.6644C1055.55 90.4229 1061.94 89.3022 1068.67 89.3022C1077.1 89.3022 1084.55 90.8844 1091.01 94.0487C1097.61 97.2131 1102.68 101.63 1106.24 107.299C1109.93 112.837 1111.78 119.297 1111.78 126.681L1111.78 198.67L1090.42 198.67L1090.42 179.288L1094.97 179.881C1092.46 184.232 1089.23 187.99 1085.28 191.154C1081.45 194.319 1077.04 196.758 1072.03 198.472C1067.15 200.186 1061.68 201.043 1055.61 201.043Z" fill="#04432D"/>
<path d="M963.786 198.67L963.786 91.6754L985.145 91.6754L985.145 113.232L983.167 110.068C985.541 103.08 989.364 98.07 994.638 95.0375C999.912 91.8732 1006.24 90.291 1013.62 90.291L1020.15 90.291L1020.15 110.661L1010.86 110.661C1003.47 110.661 997.473 112.969 992.858 117.583C988.375 122.066 986.134 128.527 986.134 136.965L986.134 198.67L963.786 198.67Z" fill="#04432D"/>
<path d="M898.066 198.67L898.066 91.6754L919.425 91.6754L919.425 113.232L917.448 110.068C919.821 103.08 923.645 98.07 928.918 95.0375C934.192 91.8732 940.521 90.291 947.904 90.291L954.431 90.291L954.431 110.661L945.136 110.661C937.752 110.661 931.753 112.969 927.138 117.583C922.656 122.066 920.414 128.527 920.414 136.965L920.414 198.67L898.066 198.67Z" fill="#04432D"/>
<path d="M838.877 201.043C828.197 201.043 818.704 198.604 810.398 193.725C802.223 188.715 795.829 181.991 791.214 173.553C786.599 164.983 784.292 155.424 784.292 144.876C784.292 134.065 786.599 124.506 791.214 116.199C795.96 107.893 802.289 101.366 810.2 96.6199C818.111 91.7415 827.076 89.3024 837.097 89.3024C845.14 89.3024 852.325 90.6868 858.654 93.4556C864.983 96.2243 870.322 100.048 874.673 104.926C879.024 109.673 882.32 115.144 884.562 121.341C886.935 127.538 888.122 134.13 888.122 141.118C888.122 142.832 888.056 144.612 887.924 146.458C887.792 148.304 887.528 150.018 887.133 151.6L801.894 151.6L801.894 133.801L874.476 133.801L863.796 141.909C865.114 135.449 864.653 129.714 862.412 124.703C860.302 119.561 857.006 115.54 852.523 112.639C848.172 109.607 843.03 108.091 837.097 108.091C831.164 108.091 825.89 109.607 821.275 112.639C816.661 115.54 813.101 119.759 810.596 125.297C808.09 130.702 807.102 137.295 807.629 145.074C806.97 152.325 807.959 158.654 810.596 164.06C813.364 169.466 817.188 173.685 822.066 176.717C827.076 179.75 832.746 181.266 839.075 181.266C845.535 181.266 851.007 179.816 855.49 176.915C860.104 174.014 863.73 170.257 866.367 165.642L884.562 174.542C882.452 179.552 879.156 184.101 874.673 188.188C870.322 192.143 865.048 195.308 858.852 197.681C852.787 199.922 846.128 201.043 838.877 201.043Z" fill="#04432D"/>
<path d="M770.546 199.856C759.339 199.856 750.637 196.692 744.44 190.363C738.243 184.035 735.145 175.135 735.145 163.664L735.145 111.848L716.357 111.848L716.357 91.6756L719.323 91.6756C724.333 91.6756 728.223 90.2253 730.992 87.3246C733.761 84.424 735.145 80.4685 735.145 75.4584L735.145 67.152L757.493 67.152L757.493 91.6756L781.819 91.6756L781.819 111.848L757.493 111.848L757.493 162.675C757.493 166.367 758.086 169.531 759.273 172.168C760.46 174.673 762.371 176.651 765.008 178.102C767.645 179.42 771.073 180.079 775.292 180.079C776.347 180.079 777.534 180.013 778.852 179.881C780.171 179.75 781.423 179.618 782.61 179.486L782.61 198.67C780.764 198.933 778.721 199.197 776.479 199.461C774.238 199.724 772.26 199.856 770.546 199.856Z" fill="#04432D"/>
<path d="M596.81 198.67L560.025 91.6755L583.757 91.6755L611.841 176.915L603.535 176.915L632.211 91.6755L652.582 91.6755L681.061 176.915L672.754 176.915L701.036 91.6755L724.768 91.6755L687.785 198.67L667.612 198.67L638.738 111.453L646.055 111.453L617.181 198.67L596.81 198.67Z" fill="#04432D"/>
<path d="M509.087 201.043C498.803 201.043 489.376 198.604 480.806 193.725C472.368 188.847 465.643 182.189 460.633 173.751C455.623 165.312 453.118 155.753 453.118 145.074C453.118 134.262 455.623 124.703 460.633 116.397C465.643 107.959 472.368 101.366 480.806 96.6199C489.244 91.7415 498.671 89.3024 509.087 89.3024C519.635 89.3024 529.062 91.7415 537.368 96.6199C545.807 101.366 552.465 107.959 557.343 116.397C562.353 124.703 564.859 134.262 564.859 145.074C564.859 155.885 562.353 165.51 557.343 173.948C552.333 182.387 545.609 189.045 537.171 193.923C528.732 198.67 519.371 201.043 509.087 201.043ZM509.087 180.277C515.416 180.277 521.019 178.761 525.898 175.728C530.776 172.696 534.6 168.543 537.368 163.269C540.269 157.863 541.719 151.798 541.719 145.074C541.719 138.35 540.269 132.351 537.368 127.077C534.6 121.803 530.776 117.65 525.898 114.617C521.019 111.585 515.416 110.068 509.087 110.068C502.89 110.068 497.287 111.585 492.277 114.617C487.398 117.65 483.509 121.803 480.608 127.077C477.839 132.351 476.455 138.35 476.455 145.074C476.455 151.798 477.839 157.863 480.608 163.269C483.509 168.543 487.398 172.696 492.277 175.728C497.287 178.761 502.89 180.277 509.087 180.277Z" fill="#04432D"/>
<path d="M422.836 198.67L422.836 48.957L445.185 48.957L445.185 198.67L422.836 198.67Z" fill="#04432D"/>
<path d="M311 198.67L311 51.3303L364.596 51.3303C374.484 51.3303 383.186 53.1762 390.702 56.8679C398.349 60.4278 404.282 65.7017 408.501 72.6896C412.72 79.5456 414.83 87.7861 414.83 97.411C414.83 106.904 412.654 115.078 408.303 121.935C404.084 128.791 398.217 134.065 390.702 137.756C383.186 141.448 374.485 143.294 364.596 143.294L334.337 143.294L334.337 198.67L311 198.67ZM334.337 122.528L365.189 122.528C370.463 122.528 375.078 121.473 379.033 119.364C382.989 117.254 386.087 114.353 388.328 110.662C390.57 106.838 391.691 102.355 391.691 97.2132C391.691 92.0711 390.57 87.6542 388.328 83.9625C386.087 80.139 382.989 77.2383 379.033 75.2606C375.078 73.1511 370.463 72.0963 365.189 72.0963L334.337 72.0963L334.337 122.528Z" fill="#04432D"/>
</svg>
